<svg width="154" height="65" viewBox="0 0 154 65" fill="none" xmlns="http://www.w3.org/2000/svg">
<path opacity="0.55" d="M52.5501 49.0307L40.3251 61.1402C36.0751 65.35 29.1251 65.35 24.8751 61.1402L18.0376 54.3673C17.4626 53.0053 16.9251 51.5938 16.4376 50.1575C21.4626 52.5595 27.2501 53.9339 33.4251 53.9339C40.4876 53.9215 47.0626 52.1262 52.5501 49.0307Z" fill="white"/>
<path opacity="0.57" d="M5.66257 42.1093L8.66257 45.0809C7.58757 44.1399 6.58757 43.1493 5.66257 42.1093Z" fill="white"/>
<path opacity="0.57" d="M52.5501 49.0307L40.3251 61.1402C36.0751 65.35 29.1251 65.35 24.8751 61.1402L18.0376 54.3673C17.4626 53.0053 16.9251 51.5938 16.4376 50.1575C21.4626 52.5595 27.2501 53.9339 33.4251 53.9339C40.4876 53.9215 47.0626 52.1262 52.5501 49.0307Z" fill="white"/>
<path d="M52.5501 49.0307L40.3251 61.1402C36.0751 65.35 29.1251 65.35 24.8751 61.1402L18.0376 54.3673C17.4626 53.0053 16.9251 51.5938 16.4376 50.1575C21.4626 52.5595 27.2501 53.9339 33.4251 53.9339C40.4876 53.9215 47.0626 52.1262 52.5501 49.0307Z" fill="white"/>
<path d="M63.1501 38.0356C57.0876 28.5759 44.9001 22.1126 30.8626 22.1126C24.3626 22.1126 18.2626 23.4993 12.9751 25.9262C8.18756 28.1178 4.07506 31.1637 0.962564 34.8163C0.875064 34.6182 0.787564 34.4201 0.712564 34.222C0.200064 30.9284 1.22506 27.4368 3.77506 24.9233L15.2376 13.5691L24.8876 4.01031C29.1376 -0.199517 36.0876 -0.199517 40.3376 4.01031L61.4626 24.9233C65.0251 28.4521 65.5876 33.8877 63.1501 38.0356Z" fill="white"/>
<path d="M18.0376 54.3549L8.66257 45.0685L6.83757 43.2608C5.06257 41.5025 3.51257 39.5338 2.26257 37.3794C1.77507 36.5498 1.35007 35.6955 0.96257 34.8163C4.08757 31.1637 8.20007 28.1178 12.9751 25.9138C12.6126 32.1419 13.2751 38.89 15.1001 45.7124C15.5001 47.223 15.9501 48.6964 16.4376 50.1451C16.9251 51.5938 17.4626 52.9929 18.0376 54.3549Z" fill="white"/>
<path opacity="0.38" d="M5.66257 42.1093L8.66257 45.0809C7.58757 44.1399 6.58757 43.1493 5.66257 42.1093Z" fill="white"/>
<path d="M43.8501 46.4305H25.8876V34.2715H43.8501C46.7251 34.2715 49.0626 36.9955 49.0626 40.351C49.0626 43.7065 46.7251 46.4305 43.8501 46.4305ZM27.4251 44.9075H43.8501C45.8751 44.9075 47.5251 42.8645 47.5251 40.351C47.5251 37.8375 45.8751 35.7945 43.8501 35.7945H27.4251V44.9075Z" fill="white"/>
<path d="M21.8751 46.5667C21.4501 46.5667 21.1126 46.22 21.1126 45.8114V34.9278C21.1126 34.5068 21.4626 34.1725 21.8751 34.1725C22.3001 34.1725 22.6376 34.5192 22.6376 34.9278V45.8114C22.6501 46.22 22.3001 46.5667 21.8751 46.5667Z" fill="white"/>
<path d="M21.8751 32.9838C22.4273 32.9838 22.8751 32.5404 22.8751 31.9933C22.8751 31.4462 22.4273 31.0027 21.8751 31.0027C21.3228 31.0027 20.8751 31.4462 20.8751 31.9933C20.8751 32.5404 21.3228 32.9838 21.8751 32.9838Z" fill="white"/>
<path d="M62.7751 41.0073C62.5751 41.0073 62.3876 41.0568 62.2126 41.1435C62.0376 41.2425 61.9001 41.3663 61.7751 41.5273H61.7626L58.8501 44.8333C58.8126 44.8704 58.7501 44.9199 58.6876 44.9695C58.6251 45.019 58.5626 45.0438 58.4876 45.0438C58.4126 45.0438 58.3501 45.019 58.2876 44.9695C58.2251 44.9199 58.1751 44.8828 58.1251 44.8333L55.1876 41.5149C55.0501 41.3663 54.9001 41.2549 54.7376 41.1435C54.5751 41.0444 54.3876 40.9949 54.1876 40.9949C53.8501 40.9949 53.5751 41.1187 53.3876 41.354C53.1876 41.5892 53.1001 41.874 53.1001 42.2083V45.8981C53.1001 46.0714 53.1626 46.2076 53.2751 46.3315C53.4001 46.4553 53.5376 46.5048 53.7126 46.5048C53.8876 46.5048 54.0251 46.4429 54.1501 46.3315C54.2751 46.2076 54.3251 46.0714 54.3251 45.8981V43.137C54.3251 42.7903 54.3501 42.6169 54.3876 42.6169C54.4251 42.6169 54.5501 42.7284 54.7501 42.9636L57.5626 46.121C57.6751 46.2448 57.8126 46.3439 57.9751 46.4058C58.1376 46.4677 58.3126 46.5048 58.5001 46.5048C58.6876 46.5048 58.8626 46.4677 59.0251 46.4058C59.1876 46.3439 59.3251 46.2448 59.4376 46.121L62.2501 42.9636C62.4501 42.7407 62.5751 42.6169 62.6126 42.6169C62.6501 42.6169 62.6751 42.7903 62.6751 43.137V45.8981C62.6751 46.0714 62.7376 46.2076 62.8501 46.3315C62.9751 46.4553 63.1126 46.5048 63.2876 46.5048C63.4626 46.5048 63.6001 46.4429 63.7251 46.3315C63.8501 46.2076 63.9001 46.0714 63.9001 45.8981V42.2083C63.9001 41.874 63.8001 41.5892 63.6126 41.354C63.3876 41.1187 63.1251 41.0073 62.7751 41.0073Z" fill="white"/>
<path d="M74.1126 45.4771L71.0126 41.3663C70.8626 41.1682 70.6751 41.0197 70.4501 40.9082C70.2251 40.7968 69.9751 40.7473 69.7251 40.7473C69.4501 40.7473 69.2001 40.8092 68.9626 40.933C68.7251 41.0568 68.5376 41.2178 68.3876 41.4035L65.2876 45.539C65.2001 45.6381 65.1626 45.7495 65.1626 45.9105C65.1626 46.0838 65.2251 46.22 65.3376 46.3439C65.4626 46.4677 65.6001 46.5172 65.7751 46.5172C65.9626 46.5172 66.1251 46.4429 66.2501 46.2943L66.9876 45.3038H72.4626L73.2001 46.2819C73.3251 46.4429 73.4751 46.5172 73.6876 46.5172C73.8626 46.5172 74.0001 46.4553 74.1251 46.3439C74.2501 46.22 74.3001 46.0838 74.3001 45.9105C74.3001 45.8238 74.2876 45.7495 74.2501 45.6752C74.2126 45.6009 74.1626 45.539 74.1126 45.4771ZM67.9126 44.0904L69.2376 42.3445C69.2876 42.2826 69.3626 42.2083 69.4501 42.1216C69.5376 42.0473 69.6251 41.9978 69.7251 41.9978C69.8126 41.9978 69.9126 42.035 70.0001 42.1216C70.0876 42.1959 70.1626 42.2702 70.2251 42.3445L71.5376 44.0904H67.9126Z" fill="white"/>
<path d="M85.0501 41.5025C84.8876 41.354 84.7126 41.2301 84.5001 41.1435C84.2876 41.0568 84.0626 41.0073 83.8251 41.0073H76.1751C76.0001 41.0073 75.8626 41.0692 75.7376 41.1806C75.6126 41.3044 75.5626 41.4406 75.5626 41.614V45.9105C75.5626 46.0838 75.6251 46.22 75.7376 46.3439C75.8626 46.4677 76.0001 46.5172 76.1751 46.5172C76.3376 46.5172 76.4751 46.4553 76.6001 46.3439C76.7251 46.22 76.7876 46.0838 76.7876 45.9105V44.3628H83.8251C84.0626 44.3628 84.2876 44.3132 84.5001 44.2266C84.7126 44.1399 84.8876 44.0161 85.0501 43.8675C85.2126 43.7189 85.3251 43.5332 85.4251 43.3351C85.5251 43.137 85.5626 42.9141 85.5626 42.6788C85.5626 42.4436 85.5126 42.2207 85.4251 42.0226C85.3376 41.8245 85.2001 41.6511 85.0501 41.5025ZM84.2126 43.0255C84.1126 43.1122 84.0001 43.1617 83.8751 43.1617H76.7876V42.2207H83.8751C84.0001 42.2207 84.1126 42.2702 84.2126 42.3569C84.3126 42.456 84.3626 42.555 84.3626 42.6912C84.3626 42.815 84.3126 42.9265 84.2126 43.0255Z" fill="white"/>
<path d="M95.2126 43.0379C95.4126 42.9141 95.6251 42.7779 95.8251 42.6293C96.0251 42.4807 96.2376 42.3198 96.4626 42.1588C96.5501 42.0969 96.6376 42.0102 96.7001 41.9235C96.7626 41.8369 96.8001 41.7378 96.8001 41.614C96.8001 41.4406 96.7376 41.3044 96.6251 41.1806C96.5001 41.0568 96.3626 41.0073 96.1876 41.0073C96.0376 41.0073 95.9001 41.0692 95.7501 41.1806C95.4126 41.4283 95.0501 41.6635 94.6876 41.8988C94.3126 42.134 93.9251 42.3445 93.5251 42.5302C93.1251 42.716 92.7001 42.8646 92.2751 42.976C91.8501 43.0874 91.4126 43.1493 90.9751 43.1493H88.0251V41.614C88.0251 41.4406 87.9626 41.3044 87.8501 41.1806C87.7251 41.0568 87.5876 41.0073 87.4126 41.0073C87.2501 41.0073 87.1126 41.0692 86.9876 41.1806C86.8626 41.3044 86.8126 41.4406 86.8126 41.614V45.9105C86.8126 46.0838 86.8751 46.22 86.9876 46.3439C87.1126 46.4677 87.2501 46.5172 87.4251 46.5172C87.5876 46.5172 87.7251 46.4553 87.8501 46.3439C87.9751 46.22 88.0251 46.0838 88.0251 45.9105V44.3628H90.9751C91.4126 44.3628 91.8501 44.4123 92.2751 44.5237C92.7001 44.6352 93.1126 44.7837 93.5126 44.9695C93.9126 45.1552 94.3001 45.3657 94.6626 45.6009C95.0376 45.8362 95.3876 46.0838 95.7376 46.3315C95.8876 46.4553 96.0251 46.5048 96.1751 46.5048C96.3501 46.5048 96.4876 46.4429 96.6126 46.3315C96.7376 46.2076 96.7876 46.0714 96.7876 45.8981C96.7876 45.7743 96.7501 45.6752 96.6876 45.5886C96.6251 45.5019 96.5376 45.4276 96.4501 45.3533C96.2251 45.18 96.0126 45.0314 95.8126 44.8828C95.6126 44.7342 95.4001 44.598 95.2001 44.4742C95.0001 44.3504 94.7876 44.2266 94.5626 44.1027C94.3501 43.9789 94.1126 43.8675 93.8626 43.7437C94.1126 43.6198 94.3376 43.5084 94.5626 43.3846C94.8001 43.2855 95.0126 43.1617 95.2126 43.0379Z" fill="white"/>
<path d="M99.4251 42.3569C99.5001 42.295 99.5876 42.2578 99.7126 42.2578H107.75C107.925 42.2578 108.063 42.1959 108.188 42.0845C108.313 41.9607 108.363 41.8245 108.363 41.6511C108.363 41.4778 108.3 41.3416 108.188 41.2178C108.063 41.0939 107.925 41.0444 107.75 41.0444H99.6501C99.4626 41.0444 99.2751 41.0816 99.0876 41.1682C98.9001 41.2425 98.7376 41.354 98.5876 41.5025C98.4376 41.6511 98.3251 41.8245 98.2251 42.0226C98.1251 42.2207 98.0876 42.4559 98.0876 42.7036V43.7189V43.8427V44.858C98.0876 45.1057 98.1376 45.3409 98.2251 45.539C98.3126 45.7371 98.4376 45.9105 98.5876 46.0591C98.7376 46.2077 98.9001 46.3191 99.0876 46.3934C99.2751 46.4677 99.4626 46.5172 99.6501 46.5172H107.75C107.925 46.5172 108.063 46.4553 108.188 46.3439C108.313 46.22 108.363 46.0838 108.363 45.9105C108.363 45.7371 108.3 45.6009 108.188 45.4771C108.063 45.3533 107.925 45.3038 107.75 45.3038H99.7126C99.5876 45.3038 99.5001 45.2666 99.4251 45.2047C99.3501 45.1428 99.3126 45.0685 99.3126 44.9818V44.4123H107.463C107.638 44.4123 107.775 44.3504 107.9 44.2389C108.025 44.1151 108.075 43.9789 108.075 43.8056C108.075 43.7932 108.075 43.7932 108.075 43.7808C108.075 43.7684 108.075 43.7684 108.075 43.756C108.075 43.5827 108.013 43.4465 107.9 43.3227C107.775 43.1989 107.638 43.1493 107.463 43.1493H99.3126V42.5798C99.3126 42.4931 99.3501 42.4188 99.4251 42.3569Z" fill="white"/>
<path d="M119.025 41.0073H110.25C110.075 41.0073 109.938 41.0692 109.813 41.1806C109.688 41.3044 109.638 41.4406 109.638 41.614C109.638 41.7873 109.7 41.9235 109.813 42.0473C109.938 42.1712 110.075 42.2207 110.25 42.2207H114.438C114.3 42.456 114.2 42.7036 114.125 42.976C114.063 43.236 114.025 43.5084 114.025 43.7684V45.9229C114.025 46.0962 114.088 46.2324 114.2 46.3562C114.325 46.48 114.463 46.5296 114.638 46.5296C114.813 46.5296 114.95 46.4677 115.075 46.3562C115.2 46.2324 115.25 46.0962 115.25 45.9229V43.7684C115.25 43.6198 115.263 43.4589 115.3 43.2855C115.338 43.1122 115.4 42.9388 115.488 42.7903C115.575 42.6417 115.713 42.5055 115.875 42.4064C116.038 42.295 116.25 42.2455 116.513 42.2207H119.075C119.225 42.2083 119.363 42.134 119.475 42.0226C119.588 41.9111 119.638 41.7749 119.638 41.614C119.638 41.4406 119.575 41.3044 119.463 41.1806C119.35 41.0568 119.2 41.0073 119.025 41.0073Z" fill="white"/>
<path d="M129.613 41.0073C129.488 41.0073 129.375 41.0197 129.263 41.0568C129.15 41.0939 129.038 41.1311 128.95 41.193L123.1 44.7342C122.938 44.8333 122.8 44.8952 122.7 44.9571C122.588 45.0066 122.513 45.0438 122.438 45.0438C122.313 45.0438 122.225 44.9695 122.2 44.8085C122.163 44.6475 122.15 44.4123 122.15 44.1151V41.614C122.15 41.4406 122.088 41.3044 121.975 41.1806C121.85 41.0568 121.713 41.0073 121.538 41.0073C121.363 41.0073 121.225 41.0692 121.1 41.1806C120.975 41.3044 120.925 41.4406 120.925 41.614V45.2914C120.925 45.6381 121.038 45.9229 121.275 46.1581C121.513 46.3934 121.8 46.5172 122.15 46.5172C122.275 46.5172 122.388 46.5048 122.5 46.4677C122.613 46.4305 122.725 46.3934 122.813 46.3315L128.663 42.7903C128.825 42.7036 128.963 42.6293 129.063 42.5674C129.163 42.5179 129.25 42.4807 129.325 42.4807C129.45 42.4807 129.538 42.555 129.563 42.716C129.6 42.8769 129.613 43.1122 129.613 43.4094V45.8981C129.613 46.0714 129.675 46.2076 129.788 46.3315C129.913 46.4553 130.05 46.5048 130.225 46.5048C130.4 46.5048 130.538 46.4429 130.663 46.3315C130.788 46.2076 130.838 46.0714 130.838 45.8981V42.2331C130.838 41.8864 130.725 41.6016 130.488 41.3663C130.25 41.1187 129.963 41.0073 129.613 41.0073Z" fill="white"/>
<path d="M141.5 41.0073C141.325 41.0073 141.188 41.0692 141.063 41.1806C140.938 41.3044 140.888 41.4406 140.888 41.614V43.1617H133.35V41.614C133.35 41.4406 133.288 41.3044 133.175 41.1806C133.05 41.0568 132.913 41.0073 132.738 41.0073C132.563 41.0073 132.425 41.0692 132.3 41.1806C132.175 41.3044 132.125 41.4406 132.125 41.614V45.9105C132.125 46.0838 132.188 46.22 132.3 46.3439C132.425 46.4677 132.563 46.5172 132.738 46.5172C132.913 46.5172 133.05 46.4553 133.175 46.3439C133.3 46.22 133.35 46.0838 133.35 45.9105V44.3628H140.888V45.9105C140.888 46.0838 140.95 46.22 141.063 46.3439C141.188 46.4677 141.325 46.5172 141.5 46.5172C141.675 46.5172 141.813 46.4553 141.938 46.3439C142.063 46.22 142.113 46.0838 142.113 45.9105V41.614C142.113 41.4406 142.05 41.3044 141.938 41.1806C141.813 41.0568 141.663 41.0073 141.5 41.0073Z" fill="white"/>
<path d="M153.188 41.1806C153.063 41.0568 152.925 41.0073 152.75 41.0073H145.125C144.888 41.0073 144.663 41.0568 144.45 41.1435C144.238 41.2301 144.05 41.354 143.9 41.5025C143.738 41.6511 143.613 41.8369 143.525 42.035C143.425 42.2331 143.388 42.456 143.388 42.6912V45.9105C143.388 46.0838 143.45 46.22 143.563 46.3439C143.688 46.4677 143.825 46.5172 144 46.5172C144.163 46.5172 144.3 46.4553 144.425 46.3439C144.55 46.22 144.613 46.0838 144.613 45.9105V42.6912C144.613 42.5674 144.663 42.456 144.763 42.3569C144.863 42.2702 144.975 42.2207 145.1 42.2207H152.763C152.938 42.2207 153.075 42.1588 153.2 42.0473C153.325 41.9235 153.375 41.7873 153.375 41.614C153.363 41.4406 153.3 41.3044 153.188 41.1806Z" fill="white"/>
</svg>
