<svg width="220" height="93" viewBox="0 0 220 93" fill="none" xmlns="http://www.w3.org/2000/svg">
<path d="M75.1161 70.7944L57.6191 88.3679C51.5363 94.4772 41.5891 94.4772 35.5063 88.3679L25.7201 78.539C24.8971 76.5624 24.1278 74.514 23.4301 72.4296C30.6221 75.9155 38.9055 77.9101 47.7435 77.9101C57.8517 77.8921 67.2621 75.2866 75.1161 70.7944Z" fill="url(#paint0_linear_49_451)"/>
<path d="M90.2874 54.8381C81.6104 41.11 64.1671 31.7303 44.0759 31.7303C34.7728 31.7303 26.0421 33.7428 18.4744 37.2646C11.6223 40.4451 5.73627 44.8654 1.28151 50.1662C1.15627 49.8787 1.03104 49.5912 0.923696 49.3037C0.190181 44.524 1.65721 39.4568 5.3069 35.8092L21.7126 19.3318L35.5242 5.45996C41.607 -0.649414 51.5542 -0.649414 57.637 5.45996L87.8721 35.8092C92.971 40.9303 93.776 48.8186 90.2874 54.8381Z" fill="url(#paint1_linear_49_451)"/>
<path d="M25.7201 78.5208L12.3021 65.0442L9.6901 62.4208C7.14963 59.8692 4.9312 57.0122 3.14213 53.8856C2.4444 52.6817 1.83612 51.4419 1.28151 50.1661C5.75417 44.8653 11.6402 40.445 18.4744 37.2466C17.9556 46.2849 18.9038 56.0778 21.5158 65.9786C22.0883 68.1708 22.7324 70.3091 23.4301 72.4114C24.1278 74.5138 24.8971 76.5442 25.7201 78.5208Z" fill="url(#paint2_linear_49_451)"/>
<path d="M62.6643 67.0208H36.9554V49.3755H62.6643C66.7791 49.3755 70.1246 53.3286 70.1246 58.1981C70.1246 63.0677 66.7791 67.0208 62.6643 67.0208ZM39.156 64.8106H62.6643C65.5625 64.8106 67.9241 61.8458 67.9241 58.1981C67.9241 54.5505 65.5625 51.5856 62.6643 51.5856H39.156V64.8106Z" fill="black"/>
<path d="M31.2125 67.2187C30.6042 67.2187 30.1212 66.7155 30.1212 66.1226V50.328C30.1212 49.7171 30.6221 49.2319 31.2125 49.2319C31.8208 49.2319 32.3039 49.7351 32.3039 50.328V66.1226C32.3217 66.7155 31.8208 67.2187 31.2125 67.2187Z" fill="black"/>
<path d="M31.2125 47.5068C32.003 47.5068 32.6438 46.8632 32.6438 46.0693C32.6438 45.2754 32.003 44.6318 31.2125 44.6318C30.4221 44.6318 29.7813 45.2754 29.7813 46.0693C29.7813 46.8632 30.4221 47.5068 31.2125 47.5068Z" fill="black"/>
<path d="M89.7507 59.1508C89.4644 59.1508 89.196 59.2227 88.9456 59.3484C88.6951 59.4922 88.4983 59.6719 88.3194 59.9055H88.3015L84.133 64.7031C84.0793 64.757 83.9899 64.8289 83.9004 64.9008C83.811 64.9727 83.7215 65.0086 83.6142 65.0086C83.5068 65.0086 83.4174 64.9727 83.3279 64.9008C83.2385 64.8289 83.1669 64.775 83.0953 64.7031L78.891 59.8875C78.6942 59.6719 78.4796 59.5102 78.247 59.3484C78.0144 59.2047 77.746 59.1328 77.4598 59.1328C76.9767 59.1328 76.5832 59.3125 76.3148 59.6539C76.0285 59.9953 75.9033 60.4086 75.9033 60.8937V66.2484C75.9033 66.5 75.9928 66.6977 76.1538 66.8773C76.3327 67.057 76.5295 67.1289 76.78 67.1289C77.0304 67.1289 77.2272 67.0391 77.4061 66.8773C77.585 66.6977 77.6566 66.5 77.6566 66.2484V62.2414C77.6566 61.7383 77.6924 61.4867 77.746 61.4867C77.7997 61.4867 77.9786 61.6484 78.2649 61.9898L82.2903 66.5719C82.4513 66.7516 82.6481 66.8953 82.8806 66.9852C83.1132 67.075 83.3637 67.1289 83.6321 67.1289C83.9004 67.1289 84.1509 67.075 84.3835 66.9852C84.616 66.8953 84.8128 66.7516 84.9739 66.5719L88.9992 61.9898C89.2855 61.6664 89.4644 61.4867 89.5181 61.4867C89.5717 61.4867 89.6075 61.7383 89.6075 62.2414V66.2484C89.6075 66.5 89.697 66.6977 89.858 66.8773C90.0369 67.057 90.2337 67.1289 90.4842 67.1289C90.7346 67.1289 90.9314 67.0391 91.1103 66.8773C91.2892 66.6977 91.3608 66.5 91.3608 66.2484V60.8937C91.3608 60.4086 91.2177 59.9953 90.9493 59.6539C90.6273 59.3125 90.2516 59.1508 89.7507 59.1508Z" fill="black"/>
<path d="M105.977 65.6375L101.541 59.6719C101.326 59.3844 101.058 59.1687 100.735 59.007C100.413 58.8453 100.056 58.7734 99.6978 58.7734C99.3042 58.7734 98.9464 58.8633 98.6065 59.043C98.2666 59.2227 97.9982 59.4562 97.7835 59.7258L93.3467 65.7273C93.2214 65.8711 93.1678 66.0328 93.1678 66.2664C93.1678 66.518 93.2572 66.7156 93.4182 66.8953C93.5971 67.075 93.7939 67.1469 94.0444 67.1469C94.3128 67.1469 94.5453 67.0391 94.7242 66.8234L95.7798 65.3859H103.616L104.671 66.8055C104.85 67.0391 105.065 67.1469 105.369 67.1469C105.62 67.1469 105.816 67.057 105.995 66.8953C106.174 66.7156 106.246 66.518 106.246 66.2664C106.246 66.1406 106.228 66.0328 106.174 65.925C106.121 65.8172 106.049 65.7273 105.977 65.6375ZM97.1037 63.625L99.0001 61.0914C99.0717 61.0016 99.179 60.8937 99.3042 60.768C99.4295 60.6602 99.5547 60.5883 99.6978 60.5883C99.8231 60.5883 99.9662 60.6422 100.091 60.768C100.217 60.8758 100.324 60.9836 100.413 61.0914L102.292 63.625H97.1037Z" fill="black"/>
<path d="M121.632 59.8696C121.399 59.654 121.149 59.4743 120.845 59.3485C120.54 59.2228 120.218 59.1509 119.878 59.1509H108.929C108.679 59.1509 108.482 59.2407 108.303 59.4024C108.124 59.5821 108.053 59.7798 108.053 60.0314V66.2665C108.053 66.5181 108.142 66.7157 108.303 66.8954C108.482 67.0751 108.679 67.147 108.929 67.147C109.162 67.147 109.359 67.0571 109.538 66.8954C109.717 66.7157 109.806 66.5181 109.806 66.2665V64.0204H119.878C120.218 64.0204 120.54 63.9485 120.845 63.8228C121.149 63.697 121.399 63.5173 121.632 63.3017C121.864 63.086 122.025 62.8165 122.168 62.529C122.312 62.2415 122.365 61.9181 122.365 61.5767C122.365 61.2353 122.294 60.9118 122.168 60.6243C122.043 60.3368 121.846 60.0853 121.632 59.8696ZM120.433 62.0798C120.29 62.2056 120.129 62.2774 119.95 62.2774H109.806V60.9118H119.95C120.129 60.9118 120.29 60.9837 120.433 61.1095C120.576 61.2532 120.648 61.397 120.648 61.5946C120.648 61.7743 120.576 61.936 120.433 62.0798Z" fill="black"/>
<path d="M136.177 62.0978C136.463 61.9181 136.767 61.7204 137.053 61.5048C137.34 61.2892 137.644 61.0556 137.966 60.822C138.091 60.7321 138.216 60.6064 138.306 60.4806C138.395 60.3548 138.449 60.211 138.449 60.0314C138.449 59.7798 138.359 59.5821 138.198 59.4024C138.02 59.2228 137.823 59.1509 137.572 59.1509C137.358 59.1509 137.161 59.2407 136.946 59.4024C136.463 59.7618 135.944 60.1032 135.425 60.4446C134.889 60.786 134.334 61.0915 133.762 61.361C133.189 61.6306 132.581 61.8462 131.973 62.0079C131.364 62.1696 130.738 62.2595 130.112 62.2595H125.89V60.0314C125.89 59.7798 125.8 59.5821 125.639 59.4024C125.46 59.2228 125.264 59.1509 125.013 59.1509C124.78 59.1509 124.584 59.2407 124.405 59.4024C124.226 59.5821 124.154 59.7798 124.154 60.0314V66.2665C124.154 66.5181 124.244 66.7157 124.405 66.8954C124.584 67.0751 124.781 67.147 125.031 67.147C125.264 67.147 125.46 67.0571 125.639 66.8954C125.818 66.7157 125.89 66.5181 125.89 66.2665V64.0204H130.112C130.738 64.0204 131.364 64.0923 131.973 64.254C132.581 64.4157 133.171 64.6313 133.744 64.9009C134.316 65.1704 134.871 65.4759 135.39 65.8173C135.926 66.1587 136.427 66.5181 136.928 66.8774C137.143 67.0571 137.34 67.129 137.554 67.129C137.805 67.129 138.002 67.0392 138.181 66.8774C138.359 66.6978 138.431 66.5001 138.431 66.2485C138.431 66.0688 138.377 65.9251 138.288 65.7993C138.198 65.6735 138.073 65.5657 137.948 65.4579C137.626 65.2064 137.322 64.9907 137.036 64.7751C136.749 64.5595 136.445 64.3618 136.159 64.1821C135.873 64.0024 135.569 63.8228 135.247 63.6431C134.942 63.4634 134.602 63.3017 134.245 63.122C134.602 62.9423 134.924 62.7806 135.247 62.6009C135.586 62.4571 135.891 62.2774 136.177 62.0978Z" fill="black"/>
<path d="M142.206 61.1093C142.313 61.0194 142.439 60.9655 142.617 60.9655H154.121C154.372 60.9655 154.568 60.8757 154.747 60.714C154.926 60.5343 154.998 60.3366 154.998 60.0851C154.998 59.8335 154.908 59.6358 154.747 59.4561C154.568 59.2765 154.372 59.2046 154.121 59.2046H142.528C142.26 59.2046 141.991 59.2585 141.723 59.3843C141.455 59.4921 141.222 59.6538 141.007 59.8694C140.793 60.085 140.632 60.3366 140.488 60.6241C140.345 60.9116 140.292 61.253 140.292 61.6124V63.0858V63.2655V64.739C140.292 65.0983 140.363 65.4397 140.488 65.7272C140.614 66.0147 140.793 66.2663 141.007 66.4819C141.222 66.6976 141.455 66.8593 141.723 66.9671C141.991 67.0749 142.26 67.1468 142.528 67.1468H154.121C154.372 67.1468 154.568 67.0569 154.747 66.8952C154.926 66.7155 154.998 66.5179 154.998 66.2663C154.998 66.0147 154.908 65.8171 154.747 65.6374C154.568 65.4577 154.372 65.3858 154.121 65.3858H142.617C142.439 65.3858 142.313 65.3319 142.206 65.2421C142.099 65.1522 142.045 65.0444 142.045 64.9186V64.0921H153.71C153.96 64.0921 154.157 64.0022 154.336 63.8405C154.515 63.6608 154.586 63.4632 154.586 63.2116C154.586 63.1936 154.586 63.1936 154.586 63.1757C154.586 63.1577 154.586 63.1577 154.586 63.1397C154.586 62.8882 154.497 62.6905 154.336 62.5108C154.157 62.3311 153.96 62.2593 153.71 62.2593H142.045V61.4327C142.045 61.3069 142.099 61.1991 142.206 61.1093Z" fill="black"/>
<path d="M170.258 59.1509H157.699C157.449 59.1509 157.252 59.2407 157.073 59.4024C156.894 59.5821 156.823 59.7798 156.823 60.0314C156.823 60.2829 156.912 60.4806 157.073 60.6603C157.252 60.8399 157.449 60.9118 157.699 60.9118H163.693C163.496 61.2532 163.353 61.6126 163.245 62.0079C163.156 62.3853 163.102 62.7806 163.102 63.1579V66.2845C163.102 66.536 163.192 66.7337 163.353 66.9134C163.532 67.0931 163.728 67.1649 163.979 67.1649C164.229 67.1649 164.426 67.0751 164.605 66.9134C164.784 66.7337 164.855 66.536 164.855 66.2845V63.1579C164.855 62.9423 164.873 62.7087 164.927 62.4571C164.981 62.2056 165.07 61.954 165.195 61.7384C165.321 61.5228 165.517 61.3251 165.75 61.1814C165.983 61.0196 166.287 60.9478 166.662 60.9118H170.33C170.545 60.8939 170.742 60.786 170.903 60.6243C171.064 60.4626 171.135 60.2649 171.135 60.0314C171.135 59.7798 171.046 59.5821 170.885 59.4024C170.724 59.2228 170.509 59.1509 170.258 59.1509Z" fill="black"/>
<path d="M185.412 59.1509C185.233 59.1509 185.072 59.1689 184.911 59.2228C184.75 59.2767 184.589 59.3306 184.464 59.4204L176.091 64.5595C175.858 64.7032 175.661 64.7931 175.518 64.8829C175.357 64.9548 175.25 65.0087 175.143 65.0087C174.964 65.0087 174.838 64.9009 174.803 64.6673C174.749 64.4337 174.731 64.0923 174.731 63.661V60.0314C174.731 59.7798 174.642 59.5821 174.481 59.4024C174.302 59.2228 174.105 59.1509 173.854 59.1509C173.604 59.1509 173.407 59.2407 173.228 59.4024C173.049 59.5821 172.978 59.7798 172.978 60.0314V65.3681C172.978 65.8712 173.139 66.2845 173.479 66.6259C173.819 66.9673 174.23 67.147 174.731 67.147C174.91 67.147 175.071 67.129 175.232 67.0751C175.393 67.0212 175.554 66.9673 175.679 66.8774L184.052 61.7384C184.285 61.6126 184.482 61.5048 184.625 61.4149C184.768 61.3431 184.893 61.2892 185 61.2892C185.179 61.2892 185.304 61.397 185.34 61.6306C185.394 61.8642 185.412 62.2056 185.412 62.6368V66.2485C185.412 66.5001 185.501 66.6978 185.662 66.8774C185.841 67.0571 186.038 67.129 186.288 67.129C186.539 67.129 186.736 67.0392 186.915 66.8774C187.094 66.6978 187.165 66.5001 187.165 66.2485V60.9298C187.165 60.4267 187.004 60.0134 186.664 59.672C186.324 59.3126 185.913 59.1509 185.412 59.1509Z" fill="black"/>
<path d="M202.426 59.1509C202.175 59.1509 201.979 59.2407 201.8 59.4024C201.621 59.5821 201.549 59.7798 201.549 60.0314V62.2774H190.761V60.0314C190.761 59.7798 190.672 59.5821 190.511 59.4024C190.332 59.2228 190.135 59.1509 189.884 59.1509C189.634 59.1509 189.437 59.2407 189.258 59.4024C189.079 59.5821 189.008 59.7798 189.008 60.0314V66.2665C189.008 66.5181 189.097 66.7157 189.258 66.8954C189.437 67.0751 189.634 67.147 189.884 67.147C190.135 67.147 190.332 67.0571 190.511 66.8954C190.69 66.7157 190.761 66.5181 190.761 66.2665V64.0204H201.549V66.2665C201.549 66.5181 201.639 66.7157 201.8 66.8954C201.979 67.0751 202.175 67.147 202.426 67.147C202.676 67.147 202.873 67.0571 203.052 66.8954C203.231 66.7157 203.302 66.5181 203.302 66.2665V60.0314C203.302 59.7798 203.213 59.5821 203.052 59.4024C202.873 59.2228 202.658 59.1509 202.426 59.1509Z" fill="black"/>
<path d="M219.154 59.4024C218.975 59.2228 218.778 59.1509 218.527 59.1509H207.614C207.274 59.1509 206.952 59.2228 206.648 59.3485C206.344 59.4743 206.075 59.654 205.861 59.8696C205.628 60.0853 205.449 60.3548 205.324 60.6423C205.181 60.9298 205.127 61.2532 205.127 61.5946V66.2665C205.127 66.5181 205.217 66.7157 205.378 66.8954C205.557 67.0751 205.753 67.147 206.004 67.147C206.237 67.147 206.433 67.0571 206.612 66.8954C206.791 66.7157 206.881 66.5181 206.881 66.2665V61.5946C206.881 61.4149 206.952 61.2532 207.095 61.1095C207.238 60.9837 207.399 60.9118 207.578 60.9118H218.545C218.796 60.9118 218.993 60.822 219.171 60.6603C219.35 60.4806 219.422 60.2829 219.422 60.0314C219.404 59.7798 219.315 59.5821 219.154 59.4024Z" fill="black"/>
<defs>
<linearGradient id="paint0_linear_49_451" x1="31.1655" y1="63.039" x2="60.3478" y2="83.0452" gradientUnits="userSpaceOnUse">
<stop/>
<stop offset="1" stop-color="#333333"/>
</linearGradient>
<linearGradient id="paint1_linear_49_451" x1="82.0917" y1="36.0527" x2="21.9624" y2="25.125" gradientUnits="userSpaceOnUse">
<stop/>
<stop offset="1" stop-color="#333333"/>
</linearGradient>
<linearGradient id="paint2_linear_49_451" x1="3.59266" y1="51.2115" x2="22.2174" y2="57.8677" gradientUnits="userSpaceOnUse">
<stop/>
<stop offset="1" stop-color="#333333"/>
</linearGradient>
</defs>
</svg>
