<svg width="109" height="189" viewBox="0 0 109 189" fill="none" xmlns="http://www.w3.org/2000/svg">
<g id="Vector 6">
<path d="M92.0214 135H122.521V162H92.0214V135Z" fill="#9335FF"/>
<path d="M122.521 162H153.021V189H122.521V162Z" fill="#9335FF"/>
<path d="M61 0H91.5V27H61V0Z" fill="#9335FF"/>
<path d="M91.5 27H122V54H91.5V27Z" fill="#9335FF"/>
<path d="M61 135H30.5V162H61V135Z" fill="#9335FF"/>
<path d="M30.5 162H-1.52588e-05V189H30.5V162Z" fill="#9335FF"/>
<path d="M61.2607 108H91.7607V135H61.2607V108Z" fill="#9335FF"/>
<path d="M152.5 54V81H122V54L152.5 54Z" fill="white"/>
<path d="M152.5 27H183V54H152.5V27Z" fill="white"/>
<path d="M122.521 81V108H92.0214V81H122.521Z" fill="white"/>
</g>
</svg>
