<?xml version="1.0" encoding="UTF-8" standalone="no"?>
<svg
   width="20"
   height="20"
   viewBox="0 0 20 20"
   fill="none"
   version="1.1"
   id="svg1"
   sodipodi:docname="book.svg"
   inkscape:version="1.3.2 (091e20e, 2023-11-25, custom)"
   xmlns:inkscape="http://www.inkscape.org/namespaces/inkscape"
   xmlns:sodipodi="http://sodipodi.sourceforge.net/DTD/sodipodi-0.dtd"
   xmlns="http://www.w3.org/2000/svg"
   xmlns:svg="http://www.w3.org/2000/svg">
  <defs
     id="defs1" />
  <sodipodi:namedview
     id="namedview1"
     pagecolor="#ffffff"
     bordercolor="#cccccc"
     borderopacity="1"
     inkscape:showpageshadow="0"
     inkscape:pageopacity="1"
     inkscape:pagecheckerboard="0"
     inkscape:deskcolor="#d1d1d1"
     inkscape:zoom="59.05"
     inkscape:cx="9.9915326"
     inkscape:cy="10"
     inkscape:window-width="3440"
     inkscape:window-height="1377"
     inkscape:window-x="-8"
     inkscape:window-y="-8"
     inkscape:window-maximized="1"
     inkscape:current-layer="svg1" />
  <path
     style="color:#000000;fill:#0f141e;fill-opacity:0.4;stroke-linecap:round;stroke-linejoin:round;-inkscape-stroke:none"
     d="M 5.8339844,1.75 C 4.3617649,1.75 2.9646663,2.3998527 1.25,3.5429688 A 0.750075,0.750075 0 0 0 0.91601563,4.1660156 V 17.5 A 0.750075,0.750075 0 0 0 2.0644531,18.136719 C 3.6834761,17.124845 4.7923183,16.6875 5.8339844,16.6875 c 1.041666,0 2.1505186,0.437345 3.7695312,1.449219 a 0.75,0.75 0 0 0 0.072266,-0.01758 0.75,0.75 0 0 0 0.2421875,0.09766 A 0.75,0.75 0 0 0 10,18.25 a 0.75,0.75 0 0 0 0.191406,-0.08008 0.75,0.75 0 0 0 0.207032,-0.0332 C 12.017499,17.124842 13.1263,16.6875 14.167969,16.6875 c 1.041669,0 2.148517,0.437342 3.767578,1.449219 A 0.750075,0.750075 0 0 0 19.083984,17.5 V 4.1660156 A 0.750075,0.750075 0 0 0 18.75,3.5429688 C 17.035302,2.3998554 15.64019,1.75 14.167969,1.75 12.824381,1.75 11.516774,2.3471169 10,3.3105469 8.4832577,2.3471142 7.1775701,1.75 5.8339844,1.75 Z m 0,1.5 C 6.7798487,3.25 7.8332532,3.7000753 9.25,4.6035156 V 16.263672 C 8.050637,15.627918 6.940191,15.1875 5.8339844,15.1875 c -1.1069228,0 -2.2176535,0.441587 -3.4179688,1.078125 V 4.6054687 C 3.8341118,3.7008683 4.8875515,3.25 5.8339844,3.25 Z m 8.3339846,0 c 0.945925,0 1.999093,0.4499542 3.416015,1.3535156 V 16.265625 C 16.383956,15.629337 15.274666,15.1875 14.167969,15.1875 c -1.106698,0 -2.217941,0.441837 -3.417969,1.078125 V 4.6035156 C 12.166923,3.6999542 13.222044,3.25 14.167969,3.25 Z"
     id="path1" />
</svg>
