<?xml version="1.0" encoding="UTF-8" standalone="no"?>
<svg
   width="24"
   height="24"
   viewBox="0 0 24 24"
   fill="none"
   version="1.1"
   id="svg1"
   sodipodi:docname="comment.svg"
   inkscape:version="1.3.2 (091e20e, 2023-11-25, custom)"
   xmlns:inkscape="http://www.inkscape.org/namespaces/inkscape"
   xmlns:sodipodi="http://sodipodi.sourceforge.net/DTD/sodipodi-0.dtd"
   xmlns="http://www.w3.org/2000/svg"
   xmlns:svg="http://www.w3.org/2000/svg">
  <defs
     id="defs1" />
  <sodipodi:namedview
     id="namedview1"
     pagecolor="#ffffff"
     bordercolor="#cccccc"
     borderopacity="1"
     inkscape:showpageshadow="0"
     inkscape:pageopacity="1"
     inkscape:pagecheckerboard="0"
     inkscape:deskcolor="#d1d1d1"
     inkscape:zoom="49.208333"
     inkscape:cx="11.989839"
     inkscape:cy="12"
     inkscape:window-width="3440"
     inkscape:window-height="1377"
     inkscape:window-x="-8"
     inkscape:window-y="-8"
     inkscape:window-maximized="1"
     inkscape:current-layer="svg1" />
  <path
     style="color:#000000;fill:#9fa1a5;stroke-linecap:round;stroke-linejoin:round;-inkscape-stroke:none"
     d="M 5,2 C 3.3549921,2 2,3.3549921 2,5 v 15.792969 c 0,0.62576 0.4153329,1.173344 0.9257813,1.384765 0.5104483,0.211422 1.1923082,0.118267 1.6347656,-0.324218 L 8.4140625,18 H 19 c 1.645005,0 3,-1.354995 3,-3 V 5 C 22,3.3550102 20.645023,2 19,2 Z m 0,2 h 14 c 0.564175,0 1,0.435852 1,1 v 10 c 0,0.564193 -0.435807,1 -1,1 H 8.4140625 C 7.8839058,16 7.3747479,16.21125 7,16.585937 l -3,3 V 5 C 4,4.4358701 4.4358701,4 5,4 Z M 7,6 A 1,1 0 0 0 6,7 1,1 0 0 0 7,8 H 17 A 1,1 0 0 0 18,7 1,1 0 0 0 17,6 Z m 0,4 a 1,1 0 0 0 -1,1 1,1 0 0 0 1,1 h 4 a 1,1 0 0 0 1,-1 1,1 0 0 0 -1,-1 z"
     id="path1" />
</svg>
