<?xml version="1.0" encoding="UTF-8" standalone="no"?>
<svg
   width="15"
   height="16"
   viewBox="0 0 15 16"
   fill="none"
   version="1.1"
   id="svg1"
   sodipodi:docname="cross-circle.svg"
   inkscape:version="1.4.2 (f4327f4, 2025-05-13)"
   xmlns:inkscape="http://www.inkscape.org/namespaces/inkscape"
   xmlns:sodipodi="http://sodipodi.sourceforge.net/DTD/sodipodi-0.dtd"
   xmlns="http://www.w3.org/2000/svg"
   xmlns:svg="http://www.w3.org/2000/svg">
  <defs
     id="defs1" />
  <sodipodi:namedview
     id="namedview1"
     pagecolor="#ffffff"
     bordercolor="#000000"
     borderopacity="0.25"
     inkscape:showpageshadow="2"
     inkscape:pageopacity="0.0"
     inkscape:pagecheckerboard="0"
     inkscape:deskcolor="#d1d1d1"
     inkscape:zoom="72.9375"
     inkscape:cx="7.5064267"
     inkscape:cy="8"
     inkscape:window-width="3440"
     inkscape:window-height="1369"
     inkscape:window-x="-8"
     inkscape:window-y="-8"
     inkscape:window-maximized="1"
     inkscape:current-layer="svg1" />
  <g
     id="g1">
    <path
       style="baseline-shift:baseline;display:inline;overflow:visible;vector-effect:none;fill:#ffffff;stroke-linecap:round;stroke-linejoin:round;enable-background:accumulate;stop-color:#000000;stop-opacity:1;opacity:1"
       d="M 7.5,1.25 C 3.778,1.25 0.75,4.2779908 0.75,8 c 0,3.721926 3.0279923,6.75 6.75,6.75 3.722026,0 6.75,-3.028076 6.75,-6.75 0,-3.7220073 -3.027982,-6.75 -6.75,-6.75 z m 0,1 c 3.181582,0 5.75,2.5684273 5.75,5.75 0,3.181476 -2.568426,5.75 -5.75,5.75 C 4.3184477,13.75 1.75,11.181474 1.75,8 1.75,4.8184292 4.31844,2.25 7.5,2.25 Z M 5,5 a 0.5,0.5 0 0 0 -0.3535156,0.1464844 0.5,0.5 0 0 0 0,0.7070312 L 6.7929687,8 4.6464844,10.146484 a 0.5,0.5 0 0 0 0,0.707032 0.5,0.5 0 0 0 0.7070312,0 L 7.5,8.7070313 9.6464844,10.853516 a 0.5,0.5 0 0 0 0.7070316,0 0.5,0.5 0 0 0 0,-0.707032 L 8.2070313,8 10.353516,5.8535156 a 0.5,0.5 0 0 0 0,-0.7070312 0.5,0.5 0 0 0 -0.7070316,0 L 7.5,7.2929687 5.3535156,5.1464844 A 0.5,0.5 0 0 0 5,5 Z"
       id="path1" />
  </g>
</svg>
