<?xml version="1.0" encoding="UTF-8" standalone="no"?>
<svg
   width="21"
   height="21"
   viewBox="0 0 21 21"
   fill="none"
   version="1.1"
   id="svg1"
   sodipodi:docname="eye-stroke.svg"
   inkscape:version="1.4.2 (f4327f4, 2025-05-13)"
   xmlns:inkscape="http://www.inkscape.org/namespaces/inkscape"
   xmlns:sodipodi="http://sodipodi.sourceforge.net/DTD/sodipodi-0.dtd"
   xmlns="http://www.w3.org/2000/svg"
   xmlns:svg="http://www.w3.org/2000/svg">
  <defs
     id="defs1" />
  <sodipodi:namedview
     id="namedview1"
     pagecolor="#ffffff"
     bordercolor="#000000"
     borderopacity="0.25"
     inkscape:showpageshadow="2"
     inkscape:pageopacity="0.0"
     inkscape:pagecheckerboard="0"
     inkscape:deskcolor="#d1d1d1"
     inkscape:zoom="55.571429"
     inkscape:cx="10.5"
     inkscape:cy="10.5"
     inkscape:window-width="3440"
     inkscape:window-height="1369"
     inkscape:window-x="-8"
     inkscape:window-y="-8"
     inkscape:window-maximized="1"
     inkscape:current-layer="svg1" />
  <path
     style="baseline-shift:baseline;display:inline;overflow:visible;vector-effect:none;fill:#9335ff;stroke-linecap:round;stroke-linejoin:round;enable-background:accumulate;stop-color:#000000;stop-opacity:1;opacity:1"
     d="m 1.7421875,1.7539062 a 0.75,0.75 0 0 0 0,1.0605469 L 5.1464844,6.2167969 C 2.9298572,8.0254916 1.6074219,10.271484 1.6074219,10.271484 a 0.750075,0.750075 0 0 0 0,0.691407 c 0,0 3.1469368,6.238281 9.0000001,6.238281 1.644022,0 3.044834,-0.5553 4.251953,-1.271484 l 3.550781,3.550781 a 0.75,0.75 0 0 0 1.060547,0 0.75,0.75 0 0 0 0,-1.060547 L 2.8046875,1.7539062 a 0.75,0.75 0 0 0 -1.0625,0 z m 8.8652345,2.2792969 c -0.313901,0 -0.6222831,0.01962 -0.9218751,0.054687 a 0.75,0.75 0 0 0 -0.65625,0.8320313 0.75,0.75 0 0 0 0.8320312,0.65625 c 0.2427279,-0.028412 0.4911949,-0.042969 0.7460939,-0.042969 4.460881,0 7.083573,4.5078759 7.416015,5.0957029 -0.143731,0.259325 -0.450718,0.863652 -1.316406,1.857422 a 0.75,0.75 0 0 0 0.07422,1.056641 0.75,0.75 0 0 0 1.058594,-0.07227 c 1.148428,-1.318343 1.765625,-2.507812 1.765625,-2.507812 a 0.750075,0.750075 0 0 0 0,-0.691407 c 0,0 -3.145046,-6.2382809 -8.998047,-6.2382809 z M 6.1914062,7.2617187 7.8808594,8.953125 c -0.3029132,0.494883 -0.5234375,1.0452562 -0.5234375,1.664063 0,1.78609 1.4639418,3.249999 3.2500001,3.25 0.60568,0 1.096023,-0.314294 1.583984,-0.605469 l 1.560547,1.5625 c -0.937574,0.497887 -1.958863,0.876953 -3.144531,0.876953 -4.4714775,0 -7.1044451,-4.538117 -7.4257814,-5.107422 0.263637,-0.462769 1.2733814,-1.9635077 3.0097656,-3.3320313 z m 2.8671876,2.8671873 2.0468752,2.048828 c -0.171897,0.05663 -0.304934,0.189454 -0.498047,0.189454 -0.9755019,0 -1.7500001,-0.774491 -1.7500001,-1.75 0,-0.192218 0.1450248,-0.316944 0.2011719,-0.488282 z"
     id="path1" />
</svg>
