<?xml version="1.0" encoding="UTF-8" standalone="no"?>
<svg
   width="20"
   height="20"
   viewBox="0 0 20 20"
   fill="none"
   version="1.1"
   id="svg1"
   sodipodi:docname="filter.svg"
   inkscape:version="1.4.2 (f4327f4, 2025-05-13)"
   xmlns:inkscape="http://www.inkscape.org/namespaces/inkscape"
   xmlns:sodipodi="http://sodipodi.sourceforge.net/DTD/sodipodi-0.dtd"
   xmlns="http://www.w3.org/2000/svg"
   xmlns:svg="http://www.w3.org/2000/svg">
  <defs
     id="defs1" />
  <sodipodi:namedview
     id="namedview1"
     pagecolor="#ffffff"
     bordercolor="#000000"
     borderopacity="0.25"
     inkscape:showpageshadow="2"
     inkscape:pageopacity="0.0"
     inkscape:pagecheckerboard="0"
     inkscape:deskcolor="#d1d1d1"
     inkscape:zoom="58.35"
     inkscape:cx="10"
     inkscape:cy="10"
     inkscape:window-width="3440"
     inkscape:window-height="1369"
     inkscape:window-x="-8"
     inkscape:window-y="-8"
     inkscape:window-maximized="1"
     inkscape:current-layer="svg1" />
  <path
     style="baseline-shift:baseline;display:inline;overflow:visible;vector-effect:none;fill:#ffffff;stroke-linecap:round;stroke-linejoin:round;enable-background:accumulate;stop-color:#000000;stop-opacity:1;opacity:1"
     d="m 6.6660156,0.91601563 a 0.75,0.75 0 0 0 -0.75,0.74999997 v 1.9023438 c -1.4177403,0.3489154 -2.5,1.5769699 -2.5,3.0976562 0,1.5205999 1.082371,2.7486586 2.5,3.0976563 v 8.5703121 a 0.75,0.75 0 0 0 0.75,0.75 0.75,0.75 0 0 0 0.75,-0.75 V 9.7636719 c 1.4176262,-0.3489969 2.5,-1.5770533 2.5,-3.0976563 0,-1.5206894 -1.0822625,-2.7487415 -2.5,-3.0976562 V 1.6660156 a 0.75,0.75 0 0 0 -0.75,-0.74999997 z m 6.6660154,0 a 0.75,0.75 0 0 0 -0.75,0.74999997 v 8.5703124 c -1.417086,0.349387 -2.5,1.577419 -2.5,3.097656 0,1.520122 1.082977,2.746247 2.5,3.095703 v 1.904297 a 0.75,0.75 0 0 0 0.75,0.75 0.75,0.75 0 0 0 0.75,-0.75 v -1.902343 c 1.417739,-0.348916 2.5,-1.576973 2.5,-3.097657 0,-1.520663 -1.082388,-2.748673 -2.5,-3.097656 V 1.6660156 a 0.75,0.75 0 0 0 -0.75,-0.74999997 z M 6.6660156,4.9160156 c 0.9753658,0 1.75,0.774625 1.75,1.75 0,0.9753622 -0.7746378,1.75 -1.75,1.75 -0.975375,0 -1.75,-0.7746342 -1.75,-1.75 0,-0.9753787 0.7746213,-1.75 1.75,-1.75 z m 6.6660154,6.6679684 c 0.975399,0 1.75,0.774509 1.75,1.75 0,0.975363 -0.774638,1.75 -1.75,1.75 -0.975491,0 -1.75,-0.774601 -1.75,-1.75 0,-0.975527 0.774473,-1.75 1.75,-1.75 z"
     id="path1" />
</svg>
