<svg width="10" height="14" viewBox="0 0 10 14" fill="none" xmlns="http://www.w3.org/2000/svg">
<path d="M9.5 14L7.25 14L7.25 12L9.5 12L9.5 14Z" fill="white"/>
<path d="M2.75 6L2.75 4L5 4L5 6L2.75 6Z" fill="white"/>
<path d="M7.25 12L5 12L5 10L7.25 10L7.25 12Z" fill="white"/>
<path d="M5 4L5 2L7.25 2L7.25 4L5 4Z" fill="white"/>
<path d="M5 10L2.75 10L2.75 8L5 8L5 10Z" fill="white"/>
<path d="M7.25 2L7.25 -1.96701e-07L9.5 0L9.5 2L7.25 2Z" fill="white"/>
<path d="M2.75 8L0.500001 8L0.500001 6L2.75 6L2.75 8Z" fill="white"/>
</svg>
