<?xml version="1.0" encoding="UTF-8" standalone="no"?>
<svg
   width="13"
   height="13"
   viewBox="0 0 13 13"
   fill="none"
   version="1.1"
   id="svg1"
   sodipodi:docname="search.svg"
   inkscape:version="1.4.2 (f4327f4, 2025-05-13)"
   xmlns:inkscape="http://www.inkscape.org/namespaces/inkscape"
   xmlns:sodipodi="http://sodipodi.sourceforge.net/DTD/sodipodi-0.dtd"
   xmlns="http://www.w3.org/2000/svg"
   xmlns:svg="http://www.w3.org/2000/svg">
  <sodipodi:namedview
     id="namedview1"
     pagecolor="#ffffff"
     bordercolor="#000000"
     borderopacity="0.25"
     inkscape:showpageshadow="2"
     inkscape:pageopacity="0.0"
     inkscape:pagecheckerboard="0"
     inkscape:deskcolor="#d1d1d1"
     inkscape:zoom="89.769231"
     inkscape:cx="6.5"
     inkscape:cy="6.5"
     inkscape:window-width="3440"
     inkscape:window-height="1369"
     inkscape:window-x="-8"
     inkscape:window-y="-8"
     inkscape:window-maximized="1"
     inkscape:current-layer="svg1" />
  <path
     style="baseline-shift:baseline;display:inline;overflow:visible;vector-effect:none;fill:#d7b4ff;stroke-linecap:round;stroke-linejoin:round;enable-background:accumulate;stop-color:#000000;stop-opacity:1;opacity:1"
     d="m 5.8242187,0.33398438 c -3.0229312,0 -5.49023432,2.46535002 -5.49023432,5.48828122 0,3.0229312 2.46730122,5.4902344 5.49023432,5.4902344 1.2371843,0 2.3242593,-0.488228 3.2441407,-1.183594 l 2.3183596,2.31836 a 0.75,0.75 0 0 0 1.060547,0 0.75,0.75 0 0 0 0,-1.060547 L 10.128906,9.0664063 C 10.824047,8.1466179 11.3125,7.0592247 11.3125,5.8222656 11.3125,2.7993268 8.84715,0.33398438 5.8242187,0.33398438 Z m 0,1.50000002 c 2.2122688,0 3.9882813,1.7760201 3.9882813,3.9882812 0,2.2122612 -1.7760144,3.9902344 -3.9882813,3.9902344 -2.2122668,0 -3.9902343,-1.7779656 -3.9902343,-3.9902344 0,-2.2122688 1.7779656,-3.9882812 3.9902343,-3.9882812 z"
     id="path1" />
  <defs
     id="defs1" />
</svg>
