<?xml version="1.0" encoding="UTF-8" standalone="no"?>
<svg
   width="18"
   height="19"
   viewBox="0 0 18 19"
   fill="none"
   version="1.1"
   id="svg1"
   sodipodi:docname="smile.svg"
   inkscape:version="1.4.2 (f4327f4, 2025-05-13)"
   xmlns:inkscape="http://www.inkscape.org/namespaces/inkscape"
   xmlns:sodipodi="http://sodipodi.sourceforge.net/DTD/sodipodi-0.dtd"
   xmlns="http://www.w3.org/2000/svg"
   xmlns:svg="http://www.w3.org/2000/svg">
  <sodipodi:namedview
     id="namedview1"
     pagecolor="#ffffff"
     bordercolor="#000000"
     borderopacity="0.25"
     inkscape:showpageshadow="2"
     inkscape:pageopacity="0.0"
     inkscape:pagecheckerboard="0"
     inkscape:deskcolor="#d1d1d1"
     inkscape:zoom="61.421053"
     inkscape:cx="8.9952871"
     inkscape:cy="9.5"
     inkscape:window-width="3440"
     inkscape:window-height="1369"
     inkscape:window-x="-8"
     inkscape:window-y="-8"
     inkscape:window-maximized="1"
     inkscape:current-layer="svg1" />
  <path
     style="baseline-shift:baseline;display:inline;overflow:visible;vector-effect:none;fill:#9335ff;stroke-linecap:round;stroke-linejoin:round;enable-background:accumulate;stop-color:#000000;stop-opacity:1;opacity:1"
     d="M 8.2832031,2.2734375 C 4.2922833,2.6225991 1.3266198,6.1555554 1.6757812,10.146484 2.0249333,14.137322 5.5579049,17.101115 9.5488281,16.751953 13.539745,16.402899 16.503459,12.86983 16.154297,8.8789063 15.805135,4.8879809 12.274076,1.9242861 8.2832031,2.2734375 Z M 8.3867188,3.46875 c 3.3448062,-0.2926286 6.2796272,2.1707703 6.5722652,5.515625 0.292638,3.344856 -2.168848,6.27972 -5.5136715,6.572266 C 6.1004557,15.849279 3.1656748,13.385778 2.8730469,10.041016 2.5804083,6.6961446 5.0418586,3.7613884 8.3867188,3.46875 Z M 10.710938,7.0800781 C 9.9834042,7.1437274 9.6484375,7.7089844 9.6484375,7.7089844 A 0.60000002,0.60000002 0 0 0 9.7675781,8.5488281 0.60000002,0.60000002 0 0 0 10.607422,8.4277344 c 0,0 0.200964,-0.151813 0.207031,-0.1523438 0.0061,-5.3e-4 0.230469,0.1152344 0.230469,0.1152344 a 0.60000002,0.60000002 0 0 0 0.849609,-0.027344 0.60000002,0.60000002 0 0 0 -0.02734,-0.8496094 c 0,0 -0.428708,-0.4972438 -1.15625,-0.4335938 z M 7.1933594,7.8984375 a 0.60000002,0.60000002 0 0 0 -0.8457032,0.074219 0.60000002,0.60000002 0 0 0 0.074219,0.8457032 l 0.011719,0.00977 A 0.60000002,0.60000002 0 0 0 7.2792969,8.7539063 0.60000002,0.60000002 0 0 0 7.2050781,7.9082031 Z m 4.7734376,2.8164065 a 0.60000002,0.60000002 0 0 0 -0.777344,0.33789 c 0,0 -0.07953,0.212441 -0.380859,0.5 -0.301326,0.28756 -0.790932,0.608064 -1.6542971,0.683594 -0.8633749,0.07553 -1.4033136,-0.153914 -1.75,-0.384765 C 7.0576105,11.620711 6.9453125,11.423828 6.9453125,11.423828 A 0.60000002,0.60000002 0 0 0 6.1191406,11.226563 0.60000002,0.60000002 0 0 0 5.921875,12.050781 c 0,0 0.2767833,0.438204 0.8183594,0.798828 0.5415761,0.360624 1.388563,0.680801 2.5175781,0.582032 1.1290255,-0.09877 1.9101385,-0.56055 2.3808595,-1.009766 0.470721,-0.449216 0.666015,-0.929687 0.666016,-0.929687 a 0.60000002,0.60000002 0 0 0 -0.337891,-0.777344 z"
     id="path1" />
  <defs
     id="defs1" />
</svg>
