<svg width="20" height="20" viewBox="0 0 20 20" fill="none" xmlns="http://www.w3.org/2000/svg">
<g clip-path="url(#clip0_39_278)">
<path d="M10.2084 0.47168C4.84614 0.47168 0.494141 4.82368 0.494141 10.186C0.494141 15.5483 4.84614 19.9003 10.2084 19.9003C15.5707 19.9003 19.9227 15.5483 19.9227 10.186C19.9227 4.82368 15.5707 0.47168 10.2084 0.47168ZM14.7158 7.07741C14.5701 8.61227 13.9387 12.3426 13.6181 14.062C13.4821 14.7906 13.2101 15.0334 12.9576 15.0626C12.3941 15.1111 11.9667 14.6934 11.4227 14.334C10.5678 13.7706 10.0821 13.4208 9.25642 12.8768C8.2947 12.2454 8.91642 11.8957 9.47013 11.3323C9.61585 11.1866 12.1027 8.92312 12.1513 8.71912C12.158 8.68821 12.1571 8.65615 12.1486 8.62564C12.1402 8.59518 12.1244 8.56724 12.1027 8.54427C12.0444 8.4957 11.9667 8.51512 11.8987 8.52484C11.8113 8.54427 10.4513 9.44769 7.79928 11.2351C7.41071 11.4974 7.06099 11.6334 6.75013 11.6237C6.40042 11.614 5.73985 11.4294 5.24443 11.2643C4.63243 11.07 4.15643 10.9631 4.19528 10.6231C4.21471 10.4483 4.45757 10.2734 4.91414 10.0888C7.75071 8.85512 9.63528 8.03912 10.5776 7.65055C13.2781 6.52369 13.8318 6.32941 14.201 6.32941C14.2787 6.32941 14.4633 6.34884 14.5798 6.44598C14.677 6.52369 14.7061 6.63055 14.7158 6.70827C14.7061 6.76655 14.7256 6.94141 14.7158 7.07741Z" fill="#732AC7"/>
</g>
<defs>
<clipPath id="clip0_39_278">
<rect width="20" height="20" fill="white"/>
</clipPath>
</defs>
</svg>
