<svg width="22" height="22" viewBox="0 0 22 22" fill="none" xmlns="http://www.w3.org/2000/svg">
<path fill-rule="evenodd" clip-rule="evenodd" d="M16.3839 19.1804C16.6554 19.366 17.0054 19.4123 17.3174 19.2983C17.6294 19.1836 17.8588 18.9264 17.928 18.6146C18.6608 15.2902 20.4385 6.87591 21.1055 3.85184C21.1561 3.62392 21.0718 3.3871 20.8863 3.23482C20.7007 3.08266 20.4436 3.0387 20.2142 3.12086C16.6781 4.38419 5.78844 8.32809 1.33743 9.91778C1.05486 10.0187 0.871011 10.2808 0.880344 10.5682C0.890464 10.8564 1.09118 11.1062 1.38039 11.1901C3.37662 11.7664 5.9968 12.5682 5.9968 12.5682C5.9968 12.5682 7.22121 16.1376 7.85967 17.9528C7.93973 18.1808 8.12448 18.3598 8.36815 18.4217C8.61103 18.4827 8.87077 18.4185 9.05203 18.2532C10.0775 17.3187 11.663 15.8739 11.663 15.8739C11.663 15.8739 14.6753 18.0057 16.3839 19.1804ZM7.09898 12.1172L8.51489 16.6252L8.82951 13.7705C8.82951 13.7705 14.3001 9.00772 17.4186 6.29308C17.5097 6.21331 17.5224 6.07981 17.4465 5.98615C17.3714 5.89259 17.2331 5.87056 17.1294 5.93405C13.5149 8.16203 7.09898 12.1172 7.09898 12.1172Z" fill="white"/>
</svg>
