<svg width="20" height="20" viewBox="0 0 20 20" fill="none" xmlns="http://www.w3.org/2000/svg">
<g clip-path="url(#clip0_39_280)">
<path fill-rule="evenodd" clip-rule="evenodd" d="M16.5047 2.82121C15.6136 1.92411 14.5532 1.21281 13.3851 0.728535C12.2171 0.244259 10.9645 -0.0033583 9.7 3.43967e-05C4.39765 3.43967e-05 0.0823529 4.31533 0.0811765 9.61886C0.0811765 11.313 0.523529 12.9683 1.36471 14.4271L0 19.4118L5.09882 18.0742C6.5091 18.8423 8.08939 19.2447 9.69529 19.2447H9.7C15.0012 19.2447 19.3165 14.9294 19.3188 9.62592C19.323 8.36195 19.0764 7.1097 18.5934 5.94167C18.1104 4.77364 17.4004 3.71302 16.5047 2.82121ZM14.0859 11.633C13.8447 11.5118 12.6635 10.9306 12.4424 10.8506C12.2224 10.7706 12.0624 10.7306 11.9012 10.9706C11.7424 11.2118 11.2812 11.753 11.1412 11.913C11 12.0742 10.8612 12.0942 10.62 11.973C10.5812 11.9542 10.5271 11.9306 10.4612 11.9024C10.1235 11.7553 9.45529 11.4659 8.68823 10.78C7.97294 10.1424 7.49059 9.3565 7.35059 9.11533C7.20941 8.87533 7.33529 8.74474 7.45647 8.62474C7.52706 8.55415 7.61059 8.4518 7.69412 8.3518L7.81647 8.20356C7.91765 8.08592 7.96235 7.99415 8.02235 7.8718L8.05765 7.80356C8.13647 7.64239 8.09647 7.50239 8.03647 7.38239C7.99647 7.30121 7.76941 6.74709 7.56235 6.24474L7.29529 5.59768C7.12353 5.18356 6.94823 5.18474 6.80823 5.18592H6.75529C6.60167 5.17905 6.4479 5.17592 6.29412 5.1765C6.17223 5.17968 6.05233 5.20809 5.94198 5.25992C5.83162 5.31176 5.73321 5.3859 5.65294 5.47768L5.60588 5.52827C5.35529 5.79533 4.81176 6.37533 4.81176 7.48239C4.81176 8.66239 5.66941 9.80239 5.79294 9.96709L5.83529 10.0271C6.12235 10.4389 7.6447 12.6247 9.89882 13.5977C10.4729 13.8447 10.92 13.993 11.2694 14.1036C11.7598 14.2527 12.2783 14.2853 12.7835 14.1989C13.2459 14.1306 14.2059 13.6177 14.4059 13.0577C14.6059 12.4953 14.6059 12.0142 14.5471 11.9142C14.4976 11.8318 14.3835 11.7777 14.2153 11.6965C14.172 11.6757 14.1289 11.6545 14.0859 11.633Z" fill="#732AC7"/>
</g>
<defs>
<clipPath id="clip0_39_280">
<rect width="20" height="20" fill="white"/>
</clipPath>
</defs>
</svg>
