<svg width="244" height="238" viewBox="0 0 244 238" fill="none" xmlns="http://www.w3.org/2000/svg">
<g clip-path="url(#clip0_45_276)">
<path d="M244 0H0V238H244V0Z" fill="white"/>
<path d="M16.5568 46.8275C16.2105 46.8275 15.8992 46.7611 15.6229 46.6283C15.3485 46.4936 15.1293 46.3092 14.9655 46.0749C14.8015 45.8406 14.714 45.5731 14.703 45.2725H15.5318C15.5521 45.516 15.6598 45.7161 15.855 45.8729C16.0502 46.0297 16.2841 46.1081 16.5568 46.1081C16.774 46.1081 16.9665 46.0583 17.1342 45.9587C17.3035 45.8572 17.4362 45.718 17.532 45.5409C17.6296 45.3638 17.6784 45.1618 17.6784 44.9349C17.6784 44.7044 17.6287 44.4987 17.5292 44.3179C17.4297 44.1371 17.2925 43.9951 17.1175 43.8918C16.9444 43.7885 16.7455 43.7359 16.5208 43.7341C16.3495 43.7341 16.1773 43.7636 16.0042 43.8226C15.8311 43.8816 15.6911 43.9591 15.5843 44.055L14.8024 43.9388L15.1201 41.0834H18.2309V41.8166H15.8301L15.6506 43.402H15.6837C15.7942 43.2951 15.9407 43.2056 16.123 43.1336C16.3072 43.0617 16.5042 43.0257 16.7142 43.0257C17.0586 43.0257 17.3653 43.1078 17.6342 43.272C17.9049 43.4362 18.1177 43.6603 18.2723 43.9444C18.4289 44.2266 18.5063 44.5512 18.5045 44.9183C18.5063 45.2854 18.4234 45.6128 18.2558 45.9006C18.09 46.1883 17.8598 46.4152 17.5651 46.5812C17.2723 46.7454 16.9361 46.8275 16.5568 46.8275ZM21.4833 46.8441C21.0468 46.8422 20.6738 46.7269 20.3644 46.4982C20.0549 46.2695 19.8183 45.9366 19.6544 45.4994C19.4905 45.0622 19.4085 44.5356 19.4085 43.9194C19.4085 43.3052 19.4905 42.7804 19.6544 42.345C19.8201 41.9098 20.0578 41.5777 20.3672 41.349C20.6785 41.1203 21.0505 41.0059 21.4833 41.0059C21.9161 41.0059 22.2872 41.1212 22.5966 41.3517C22.9061 41.5805 23.1427 41.9125 23.3067 42.3479C23.4724 42.7813 23.5553 43.3052 23.5553 43.9194C23.5553 44.5374 23.4734 45.065 23.3094 45.5021C23.1455 45.9375 22.9088 46.2704 22.5994 46.501C22.29 46.7298 21.918 46.8441 21.4833 46.8441ZM21.4833 46.1053C21.8663 46.1053 22.1657 45.9181 22.3812 45.5437C22.5985 45.1692 22.7071 44.6278 22.7071 43.9194C22.7071 43.449 22.6574 43.0515 22.558 42.7269C22.4604 42.4004 22.3195 42.1532 22.1353 41.9853C21.9529 41.8157 21.7356 41.7308 21.4833 41.7308C21.102 41.7308 20.8027 41.919 20.5854 42.2952C20.3681 42.6716 20.2585 43.213 20.2567 43.9194C20.2567 44.3917 20.3055 44.7911 20.4031 45.1175C20.5026 45.4422 20.6434 45.6884 20.8258 45.8563C21.0081 46.0223 21.2273 46.1053 21.4833 46.1053ZM26.5052 46.8441C26.0687 46.8422 25.6957 46.7269 25.3862 46.4982C25.0768 46.2695 24.8402 45.9366 24.6762 45.4994C24.5124 45.0622 24.4304 44.5356 24.4304 43.9194C24.4304 43.3052 24.5124 42.7804 24.6762 42.345C24.842 41.9098 25.0796 41.5777 25.389 41.349C25.7003 41.1203 26.0723 41.0059 26.5052 41.0059C26.9379 41.0059 27.3091 41.1212 27.6185 41.3517C27.9279 41.5805 28.1646 41.9125 28.3285 42.3479C28.4943 42.7813 28.5771 43.3052 28.5771 43.9194C28.5771 44.5374 28.4952 45.065 28.3313 45.5021C28.1673 45.9375 27.9307 46.2704 27.6213 46.501C27.3119 46.7298 26.9398 46.8441 26.5052 46.8441ZM26.5052 46.1053C26.8882 46.1053 27.1875 45.9181 27.403 45.5437C27.6204 45.1692 27.729 44.6278 27.729 43.9194C27.729 43.449 27.6793 43.0515 27.5798 42.7269C27.4822 42.4004 27.3414 42.1532 27.1571 41.9853C26.9748 41.8157 26.7575 41.7308 26.5052 41.7308C26.1239 41.7308 25.8246 41.919 25.6073 42.2952C25.3899 42.6716 25.2804 43.213 25.2785 43.9194C25.2785 44.3917 25.3273 44.7911 25.4249 45.1175C25.5244 45.4422 25.6653 45.6884 25.8477 45.8563C26.03 46.0223 26.2492 46.1053 26.5052 46.1053ZM31.2127 47.9758V46.0334H31.5581C31.6465 45.9522 31.7211 45.8554 31.7819 45.7428C31.8445 45.6304 31.897 45.4966 31.9394 45.3416C31.9836 45.1867 32.0204 45.006 32.0498 44.7993C32.0793 44.5909 32.1051 44.3529 32.1272 44.0855L32.2598 42.5H35.144V46.0334H35.7961V47.9758H34.9894V46.75H32.0305V47.9758H31.2127ZM32.4422 46.0334H34.3374V43.2084H33.0002L32.9118 44.0855C32.8695 44.5319 32.816 44.9193 32.7516 45.2476C32.6871 45.574 32.584 45.836 32.4422 46.0334ZM38.3909 46.8358C37.993 46.8358 37.6459 46.7445 37.3494 46.5619C37.0528 46.3793 36.8226 46.1238 36.6587 45.7954C36.4947 45.4671 36.4128 45.0834 36.4128 44.6444C36.4128 44.2035 36.4947 43.818 36.6587 43.4878C36.8226 43.1576 37.0528 42.9012 37.3494 42.7186C37.6459 42.536 37.993 42.4447 38.3909 42.4447C38.7887 42.4447 39.1359 42.536 39.4324 42.7186C39.729 42.9012 39.9592 43.1576 40.1231 43.4878C40.287 43.818 40.369 44.2035 40.369 44.6444C40.369 45.0834 40.287 45.4671 40.1231 45.7954C39.9592 46.1238 39.729 46.3793 39.4324 46.5619C39.1359 46.7445 38.7887 46.8358 38.3909 46.8358ZM38.3936 46.1413C38.6515 46.1413 38.8652 46.0731 39.0346 45.9366C39.2041 45.8001 39.3292 45.6183 39.4103 45.3914C39.4932 45.1646 39.5346 44.9147 39.5346 44.6416C39.5346 44.3704 39.4932 44.1215 39.4103 43.8945C39.3292 43.6658 39.2041 43.4823 39.0346 43.3439C38.8652 43.2056 38.6515 43.1364 38.3936 43.1364C38.1339 43.1364 37.9185 43.2056 37.7472 43.3439C37.5778 43.4823 37.4516 43.6658 37.3687 43.8945C37.2876 44.1215 37.2471 44.3704 37.2471 44.6416C37.2471 44.9147 37.2876 45.1646 37.3687 45.3914C37.4516 45.6183 37.5778 45.8001 37.7472 45.9366C37.9185 46.0731 38.1339 46.1413 38.3936 46.1413ZM41.291 46.75V42.5H44.7526V46.75H43.9432V43.2139H42.0949V46.75H41.291ZM47.6445 46.8358C47.2467 46.8358 46.8995 46.7445 46.603 46.5619C46.3064 46.3793 46.0762 46.1238 45.9123 45.7954C45.7484 45.4671 45.6664 45.0834 45.6664 44.6444C45.6664 44.2035 45.7484 43.818 45.9123 43.4878C46.0762 43.1576 46.3064 42.9012 46.603 42.7186C46.8995 42.536 47.2467 42.4447 47.6445 42.4447C48.0423 42.4447 48.3895 42.536 48.686 42.7186C48.9825 42.9012 49.2128 43.1576 49.3767 43.4878C49.5406 43.818 49.6226 44.2035 49.6226 44.6444C49.6226 45.0834 49.5406 45.4671 49.3767 45.7954C49.2128 46.1238 48.9825 46.3793 48.686 46.5619C48.3895 46.7445 48.0423 46.8358 47.6445 46.8358ZM47.6472 46.1413C47.9051 46.1413 48.1188 46.0731 48.2882 45.9366C48.4577 45.8001 48.5829 45.6183 48.6639 45.3914C48.7468 45.1646 48.7882 44.9147 48.7882 44.6416C48.7882 44.3704 48.7468 44.1215 48.6639 43.8945C48.5829 43.6658 48.4577 43.4823 48.2882 43.3439C48.1188 43.2056 47.9051 43.1364 47.6472 43.1364C47.3875 43.1364 47.172 43.2056 47.0008 43.3439C46.8314 43.4823 46.7052 43.6658 46.6223 43.8945C46.5413 44.1215 46.5007 44.3704 46.5007 44.6416C46.5007 44.9147 46.5413 45.1646 46.6223 45.3914C46.7052 45.6183 46.8314 45.8001 47.0008 45.9366C47.172 46.0731 47.3875 46.1413 47.6472 46.1413ZM50.2103 46.75L50.2075 46.0334H50.3595C50.4774 46.0334 50.576 46.0085 50.6551 45.9587C50.7361 45.907 50.8025 45.8203 50.854 45.6986C50.9056 45.5768 50.9452 45.409 50.9729 45.195C51.0004 44.9792 51.0207 44.708 51.0336 44.3815L51.1082 42.5H54.0698V46.75H53.2603V43.2139H51.8735L51.8072 44.6582C51.7906 45.0087 51.7547 45.3149 51.6994 45.5768C51.646 45.8387 51.5677 46.0573 51.4646 46.2326C51.3614 46.406 51.2288 46.536 51.0668 46.6227C50.9047 46.7076 50.7076 46.75 50.4755 46.75H50.2103ZM58.0474 44.2681V44.9847H55.7488V44.2681H58.0474ZM55.9809 42.5V46.75H55.1714V42.5H55.9809ZM58.6248 42.5V46.75H57.8181V42.5H58.6248ZM60.5393 45.5907L62.4097 42.5H63.2992V46.75H62.4897V43.6566L60.6277 46.75H59.7298V42.5H60.5393V45.5907ZM63.8835 43.2139V42.5H67.4639V43.2139H66.0799V46.75H65.2732V43.2139H63.8835ZM69.969 46.8358C69.5509 46.8358 69.1909 46.7463 68.8888 46.5674C68.5886 46.3866 68.3565 46.133 68.1926 45.8065C68.0306 45.4781 67.9495 45.0936 67.9495 44.6527C67.9495 44.2174 68.0306 43.8337 68.1926 43.5017C68.3565 43.1696 68.5849 42.9104 68.8778 42.7241C69.1724 42.5378 69.5169 42.4447 69.911 42.4447C70.1505 42.4447 70.3825 42.4844 70.6072 42.5636C70.8321 42.643 71.0337 42.7675 71.2119 42.9372C71.3909 43.1069 71.5316 43.3274 71.6348 43.5985C71.7381 43.8678 71.7897 44.1952 71.7897 44.5807V44.8741H68.4164V44.2543H70.9799C70.9799 44.0366 70.9361 43.8438 70.8477 43.676C70.7593 43.5063 70.6348 43.3725 70.4746 43.2747C70.3162 43.177 70.1302 43.1281 69.9165 43.1281C69.6845 43.1281 69.4818 43.1853 69.3087 43.2997C69.1375 43.4122 69.0049 43.5598 68.9109 43.7424C68.8188 43.9231 68.7728 44.1196 68.7728 44.3317V44.8159C68.7728 45.1 68.8225 45.3416 68.922 45.5409C69.0233 45.7401 69.1642 45.8923 69.3446 45.9974C69.5251 46.1007 69.736 46.1523 69.9773 46.1523C70.1339 46.1523 70.2766 46.1302 70.4055 46.086C70.5344 46.0398 70.6459 45.9716 70.7395 45.8812C70.8335 45.7908 70.9057 45.6792 70.9552 45.5464L71.7374 45.6875C71.6745 45.9181 71.562 46.1201 71.4 46.2935C71.2402 46.4651 71.0379 46.5988 70.7953 46.6947C70.5538 46.7888 70.2784 46.8358 69.969 46.8358ZM72.3718 46.75L72.369 46.0334H72.521C72.6391 46.0334 72.7374 46.0085 72.8167 45.9587C72.898 45.907 72.9638 45.8203 73.0154 45.6986C73.067 45.5768 73.1066 45.409 73.1342 45.195C73.1618 44.9792 73.1823 44.708 73.195 44.3815L73.27 42.5H76.2312V46.75H75.4222V43.2139H74.0352L73.9688 44.6582C73.9518 45.0087 73.9164 45.3149 73.8613 45.5768C73.8075 45.8387 73.729 46.0573 73.6265 46.2326C73.5232 46.406 73.3902 46.536 73.2283 46.6227C73.0663 46.7076 72.869 46.75 72.637 46.75H72.3718ZM77.9548 43.961H79.1868C79.7059 43.961 80.1055 44.0901 80.3856 44.3483C80.6657 44.6066 80.8057 44.9395 80.8057 45.3472C80.8057 45.6128 80.7428 45.8517 80.6176 46.0638C80.4924 46.2759 80.3092 46.4438 80.0681 46.5674C79.8269 46.6892 79.5327 46.75 79.1868 46.75H77.3331V42.5H78.1422V46.0362H79.1868C79.4245 46.0362 79.6197 45.9743 79.7724 45.8508C79.9252 45.7253 80.0016 45.5658 80.0016 45.3721C80.0016 45.1673 79.9252 45.0004 79.7724 44.8713C79.6197 44.7403 79.4245 44.6748 79.1868 44.6748H77.9548V43.961ZM84.6079 44.2681V44.9847H82.3093V44.2681H84.6079ZM82.5413 42.5V46.75H81.7315V42.5H82.5413ZM85.185 42.5V46.75H84.3787V42.5H85.185ZM86.9121 43.961H88.1441C88.6632 43.961 89.0628 44.0901 89.3429 44.3483C89.6229 44.6066 89.763 44.9395 89.763 45.3472C89.763 45.6128 89.7 45.8517 89.5749 46.0638C89.4497 46.2759 89.2665 46.4438 89.0253 46.5674C88.7842 46.6892 88.4899 46.75 88.1441 46.75H86.2904V42.5H87.0995V46.0362H88.1441C88.3817 46.0362 88.5769 45.9743 88.7297 45.8508C88.8825 45.7253 88.9588 45.5658 88.9588 45.3721C88.9588 45.1673 88.8825 45.0004 88.7297 44.8713C88.5769 44.7403 88.3817 44.6748 88.1441 44.6748H86.9121V43.961ZM90.3656 46.75V42.5H91.1909V46.75H90.3656ZM92.952 42.5L93.8884 44.1546L94.8332 42.5H95.7364L94.4131 44.625L95.7477 46.75H94.8446L93.8884 45.1618L92.935 46.75H92.029L93.3494 44.625L92.0453 42.5H92.952ZM98.6439 46.75V42.5H99.4699V44.2819H99.8674L101.268 42.5H102.29L100.647 44.5669L102.31 46.75H101.285L100.005 45.0512H99.4699V46.75H98.6439ZM104.564 46.8358C104.166 46.8358 103.819 46.7445 103.522 46.5619C103.226 46.3793 102.996 46.1238 102.831 45.7954C102.668 45.4671 102.586 45.0834 102.586 44.6444C102.586 44.2035 102.668 43.818 102.831 43.4878C102.996 43.1576 103.226 42.9012 103.522 42.7186C103.819 42.536 104.166 42.4447 104.564 42.4447C104.962 42.4447 105.309 42.536 105.605 42.7186C105.902 42.9012 106.132 43.1576 106.296 43.4878C106.46 43.818 106.542 44.2035 106.542 44.6444C106.542 45.0834 106.46 45.4671 106.296 45.7954C106.132 46.1238 105.902 46.3793 105.605 46.5619C105.309 46.7445 104.962 46.8358 104.564 46.8358ZM104.567 46.1413C104.825 46.1413 105.038 46.0731 105.208 45.9366C105.377 45.8001 105.503 45.6183 105.583 45.3914C105.666 45.1646 105.708 44.9147 105.708 44.6416C105.708 44.3704 105.666 44.1215 105.583 43.8945C105.503 43.6658 105.377 43.4823 105.208 43.3439C105.038 43.2056 104.825 43.1364 104.567 43.1364C104.307 43.1364 104.092 43.2056 103.921 43.3439C103.751 43.4823 103.625 43.6658 103.542 43.8945C103.461 44.1215 103.42 44.3704 103.42 44.6416C103.42 44.9147 103.461 45.1646 103.542 45.3914C103.625 45.6183 103.751 45.8001 103.921 45.9366C104.092 46.0731 104.307 46.1413 104.567 46.1413ZM110.34 44.2681V44.9847H108.042V44.2681H110.34ZM108.274 42.5V46.75H107.464V42.5H108.274ZM110.917 42.5V46.75H110.11V42.5H110.917ZM112.023 46.75V42.5H113.782C114.261 42.5 114.64 42.6024 114.92 42.8072C115.201 43.0101 115.341 43.2858 115.341 43.6345C115.341 43.8835 115.261 44.0809 115.103 44.2266C114.944 44.3723 114.734 44.4701 114.473 44.5199C114.663 44.542 114.837 44.5992 114.995 44.6914C115.154 44.7818 115.28 44.9035 115.377 45.0567C115.474 45.2097 115.523 45.3924 115.523 45.6045C115.523 45.8295 115.465 46.0288 115.349 46.2022C115.233 46.3737 115.064 46.5084 114.843 46.6062C114.624 46.7021 114.36 46.75 114.051 46.75H112.023ZM112.799 46.0583H114.051C114.255 46.0583 114.415 46.0094 114.531 45.9116C114.647 45.8139 114.705 45.6811 114.705 45.5132C114.705 45.3159 114.647 45.1609 114.531 45.0484C114.415 44.934 114.255 44.8768 114.051 44.8768H112.799V46.0583ZM112.799 44.2709H113.791C113.945 44.2709 114.078 44.2487 114.188 44.2044C114.301 44.1601 114.386 44.0975 114.445 44.0163C114.506 43.9333 114.536 43.8355 114.536 43.723C114.536 43.5588 114.469 43.4306 114.335 43.3384C114.2 43.2462 114.017 43.2001 113.782 43.2001H112.799V44.2709ZM118.258 46.8358C117.84 46.8358 117.48 46.7463 117.178 46.5674C116.877 46.3866 116.645 46.133 116.481 45.8065C116.319 45.4781 116.239 45.0936 116.239 44.6527C116.239 44.2174 116.319 43.8337 116.481 43.5017C116.645 43.1696 116.874 42.9104 117.167 42.7241C117.462 42.5378 117.806 42.4447 118.2 42.4447C118.439 42.4447 118.672 42.4844 118.896 42.5636C119.121 42.643 119.322 42.7675 119.501 42.9372C119.68 43.1069 119.821 43.3274 119.924 43.5985C120.027 43.8678 120.078 44.1952 120.078 44.5807V44.8741H116.706V44.2543H119.269C119.269 44.0366 119.225 43.8438 119.136 43.676C119.048 43.5063 118.923 43.3725 118.764 43.2747C118.605 43.177 118.419 43.1281 118.206 43.1281C117.974 43.1281 117.771 43.1853 117.597 43.2997C117.426 43.4122 117.294 43.5598 117.2 43.7424C117.108 43.9231 117.062 44.1196 117.062 44.3317V44.8159C117.062 45.1 117.112 45.3416 117.211 45.5409C117.312 45.7401 117.453 45.8923 117.633 45.9974C117.814 46.1007 118.025 46.1523 118.266 46.1523C118.423 46.1523 118.566 46.1302 118.694 46.086C118.823 46.0398 118.935 45.9716 119.029 45.8812C119.123 45.7908 119.194 45.6792 119.245 45.5464L120.026 45.6875C119.963 45.9181 119.851 46.1201 119.689 46.2935C119.529 46.4651 119.327 46.5988 119.084 46.6947C118.843 46.7888 118.567 46.8358 118.258 46.8358ZM120.995 48.3438V42.5H121.802V43.189H121.871C121.919 43.1005 121.988 42.998 122.078 42.8819C122.168 42.7656 122.293 42.6642 122.454 42.5775C122.614 42.489 122.826 42.4447 123.089 42.4447C123.431 42.4447 123.738 42.5314 124.006 42.7048C124.275 42.8782 124.486 43.1281 124.639 43.4546C124.794 43.7811 124.871 44.174 124.871 44.6333C124.871 45.0927 124.794 45.4864 124.642 45.8148C124.489 46.1413 124.279 46.3931 124.012 46.5702C123.745 46.7454 123.44 46.833 123.098 46.833C122.839 46.833 122.629 46.7897 122.465 46.703C122.303 46.6163 122.175 46.5149 122.083 46.3986C121.991 46.2824 121.921 46.1791 121.871 46.0887H121.821V48.3438H120.995ZM121.805 44.625C121.805 44.9239 121.848 45.1858 121.934 45.4108C122.021 45.6359 122.146 45.812 122.31 45.9393C122.474 46.0648 122.675 46.1275 122.912 46.1275C123.159 46.1275 123.366 46.0619 123.531 45.931C123.697 45.7982 123.822 45.6183 123.907 45.3914C123.994 45.1646 124.037 44.9091 124.037 44.625C124.037 44.3447 123.994 44.0928 123.91 43.8697C123.827 43.6465 123.702 43.4703 123.534 43.3412C123.369 43.212 123.161 43.1475 122.912 43.1475C122.673 43.1475 122.47 43.2093 122.305 43.3329C122.141 43.4565 122.016 43.6289 121.931 43.8502C121.847 44.0716 121.805 44.3299 121.805 44.625ZM127.584 46.8358C127.173 46.8358 126.82 46.7427 126.524 46.5564C126.229 46.3682 126.002 46.109 125.844 45.7788C125.685 45.4487 125.606 45.0705 125.606 44.6444C125.606 44.2128 125.687 43.8318 125.849 43.5017C126.011 43.1696 126.239 42.9104 126.534 42.7241C126.829 42.5378 127.176 42.4447 127.576 42.4447C127.898 42.4447 128.186 42.5046 128.438 42.6245C128.69 42.7426 128.894 42.9086 129.048 43.1226C129.205 43.3366 129.298 43.5865 129.327 43.8724H128.524C128.479 43.6732 128.378 43.5017 128.22 43.3577C128.063 43.2139 127.853 43.1419 127.589 43.1419C127.359 43.1419 127.158 43.2028 126.985 43.3246C126.814 43.4444 126.68 43.616 126.584 43.8392C126.488 44.0605 126.44 44.3225 126.44 44.625C126.44 44.9349 126.487 45.2024 126.582 45.4274C126.675 45.6525 126.808 45.8268 126.979 45.9504C127.152 46.074 127.356 46.1358 127.589 46.1358C127.746 46.1358 127.888 46.1071 128.015 46.05C128.144 45.991 128.252 45.907 128.338 45.7982C128.427 45.6894 128.488 45.5584 128.524 45.4053H129.327C129.298 45.6802 129.208 45.9254 129.059 46.1413C128.91 46.3571 128.71 46.5268 128.46 46.6504C128.211 46.774 127.919 46.8358 127.584 46.8358ZM131.02 45.5907L132.89 42.5H133.78V46.75H132.971V43.6566L131.109 46.75H130.21V42.5H131.02V45.5907ZM135.7 45.5907L137.571 42.5H138.46V46.75H137.651V43.6566L135.788 46.75H134.891V42.5H135.7V45.5907ZM137.217 41.0612H137.897C137.897 41.373 137.786 41.6266 137.565 41.8221C137.346 42.0158 137.049 42.1126 136.675 42.1126C136.303 42.1126 136.008 42.0158 135.788 41.8221C135.569 41.6266 135.46 41.373 135.46 41.0612H136.136C136.136 41.1996 136.177 41.3222 136.258 41.4292C136.339 41.5343 136.478 41.5869 136.675 41.5869C136.868 41.5869 137.007 41.5343 137.09 41.4292C137.175 41.324 137.217 41.2014 137.217 41.0612Z" fill="#0F141E" fill-opacity="0.5"/>
<path d="M15.0581 29.0418V19.769H18.6024C19.2715 19.769 19.8275 19.8747 20.2705 20.086C20.7166 20.2943 21.0496 20.5795 21.2696 20.9417C21.4926 21.3039 21.6042 21.7144 21.6042 22.1733C21.6042 22.5505 21.5318 22.8735 21.3872 23.1422C21.2425 23.4078 21.0481 23.6237 20.804 23.7896C20.5598 23.9556 20.2871 24.0749 19.9857 24.1473V24.2378C20.3142 24.256 20.6292 24.3571 20.9306 24.5412C21.235 24.7223 21.4836 24.9789 21.6764 25.311C21.8694 25.643 21.9658 26.0445 21.9658 26.5153C21.9658 26.9952 21.8498 27.4269 21.6177 27.8103C21.3856 28.1906 21.036 28.4909 20.5689 28.7113C20.1018 28.9316 19.514 29.0418 18.8058 29.0418H15.0581ZM16.7353 27.6382H18.5391C19.1479 27.6382 19.5864 27.522 19.8547 27.2896C20.1259 27.0541 20.2615 26.7523 20.2615 26.384C20.2615 26.1093 20.1937 25.8618 20.0581 25.6415C19.9224 25.4181 19.7295 25.243 19.4794 25.1163C19.2292 24.9865 18.9308 24.9215 18.5843 24.9215H16.7353V27.6382ZM16.7353 23.7127H18.3944C18.6837 23.7127 18.9444 23.6598 19.1765 23.5542C19.4086 23.4455 19.5909 23.2931 19.7235 23.0969C19.8591 22.8977 19.9269 22.6622 19.9269 22.3906C19.9269 22.0314 19.8003 21.7356 19.5472 21.5031C19.2971 21.2707 18.9248 21.1545 18.4306 21.1545H16.7353V23.7127ZM25.3507 29.1822C24.9107 29.1822 24.5144 29.1037 24.1618 28.9467C23.8122 28.7867 23.5349 28.5512 23.3299 28.2404C23.128 27.9295 23.0271 27.5461 23.0271 27.0903C23.0271 26.698 23.0994 26.3735 23.2441 26.1168C23.3887 25.8603 23.5862 25.6551 23.8362 25.5011C24.0864 25.3472 24.3682 25.2309 24.6817 25.1524C24.9981 25.071 25.3251 25.0121 25.6626 24.9759C26.0695 24.9336 26.3995 24.8959 26.6527 24.8627C26.9058 24.8265 27.0897 24.7721 27.2042 24.6997C27.3218 24.6242 27.3805 24.508 27.3805 24.351V24.3239C27.3805 23.9828 27.2796 23.7187 27.0776 23.5316C26.8757 23.3444 26.5849 23.2509 26.2052 23.2509C25.8043 23.2509 25.4863 23.3384 25.2513 23.5134C25.0192 23.6885 24.8624 23.8953 24.7811 24.1337L23.2531 23.9164C23.3736 23.4938 23.5726 23.1406 23.8498 22.857C24.1271 22.5701 24.4662 22.3559 24.867 22.214C25.2678 22.0691 25.7109 21.9967 26.1961 21.9967C26.5306 21.9967 26.8637 22.0359 27.1952 22.1144C27.5267 22.1929 27.8296 22.3227 28.1038 22.5038C28.3781 22.6819 28.5981 22.9248 28.7639 23.2327C28.9327 23.5406 29.017 23.9255 29.017 24.3873V29.0418H27.4438V28.0864H27.3896C27.2901 28.2796 27.15 28.4607 26.9691 28.6297C26.7913 28.7958 26.5668 28.9301 26.2955 29.0327C26.0274 29.1323 25.7123 29.1822 25.3507 29.1822ZM25.7756 27.9778C26.1042 27.9778 26.389 27.9128 26.6301 27.7831C26.8712 27.6502 27.0565 27.4752 27.1862 27.2578C27.3188 27.0405 27.3851 26.8036 27.3851 26.547V25.7275C27.3338 25.7698 27.2464 25.809 27.1229 25.8452C27.0023 25.8815 26.8666 25.9131 26.716 25.9403C26.5653 25.9675 26.4161 25.9916 26.2685 26.0127C26.1208 26.0339 25.9927 26.052 25.8841 26.067C25.6401 26.1003 25.4215 26.1546 25.2287 26.23C25.0358 26.3055 24.8836 26.4112 24.7721 26.547C24.6605 26.6798 24.6048 26.8519 24.6048 27.0632C24.6048 27.365 24.7148 27.5929 24.9348 27.7469C25.1548 27.9008 25.4351 27.9778 25.7756 27.9778ZM30.6626 22.0872H32.2404V27.6925H34.4239V22.0872H36.0016V27.6925H38.1851V22.0872H39.7629V29.0418H30.6626V22.0872ZM42.9941 26.8232L45.7743 22.0872H47.4561V29.0418H45.8738V24.3012L43.1025 29.0418H41.4163V22.0872H42.9941V26.8232ZM51.8152 29.0418L51.8061 27.6925H52.0457C52.2266 27.6925 52.3788 27.6517 52.5023 27.5703C52.6259 27.4887 52.7284 27.353 52.8098 27.1628C52.8911 26.9696 52.9544 26.71 52.9996 26.384C53.0449 26.058 53.0765 25.652 53.0946 25.166L53.2167 22.0872H58.2798V29.0418H56.6976V23.432H54.7039L54.5954 25.6731C54.5684 26.2527 54.5036 26.7553 54.4011 27.1809C54.3016 27.6035 54.16 27.9521 53.9761 28.2268C53.7953 28.5014 53.5677 28.7067 53.2935 28.8426C53.0192 28.9753 52.6952 29.0418 52.3215 29.0418H51.8152ZM61.5055 26.8232L64.2857 22.0872H65.9674V29.0418H64.3851V24.3012L61.6139 29.0418H59.9277V22.0872H61.5055V26.8232ZM67.0331 31.0612V27.6925H67.5847C67.7324 27.5778 67.856 27.4224 67.9554 27.2262C68.0548 27.0269 68.1362 26.793 68.1995 26.5243C68.2658 26.2527 68.32 25.9493 68.3623 25.6143C68.4045 25.2762 68.4421 24.9125 68.4753 24.5231L68.6742 22.0872H73.6922V27.6925H74.7679V31.0612H73.1858V29.0418H68.6426V31.0612H67.0331ZM69.2664 27.6925H72.1278V23.4093H70.0938L69.9852 24.5231C69.9249 25.2596 69.8451 25.8905 69.7456 26.4157C69.6461 26.9409 69.4864 27.3665 69.2664 27.6925ZM77.0976 24.351H79.1451C80.0313 24.351 80.7173 24.5669 81.2025 24.9985C81.6876 25.4302 81.9316 25.9961 81.9345 26.6964C81.9316 27.1522 81.8199 27.5567 81.5999 27.9098C81.3828 28.263 81.0667 28.5407 80.6508 28.7429C80.2378 28.9422 79.7364 29.0418 79.1451 29.0418H75.9901V22.0872H77.5679V27.6971H79.1451C79.5008 27.6971 79.7936 27.6065 80.0221 27.4253C80.2512 27.2413 80.3658 27.0058 80.3658 26.7191C80.3658 26.4172 80.2512 26.1712 80.0221 25.9811C79.7936 25.7909 79.5008 25.6958 79.1451 25.6958H77.0976V24.351ZM82.798 29.0418V22.0872H84.4346V29.0418H82.798Z" fill="#222E45"/>
<path d="M44.5565 81.8125H229.855" stroke="#F4F4F4"/>
<path d="M44.5565 145.562H229.855" stroke="#F4F4F4"/>
<path d="M44.5565 113.688H229.855" stroke="#F4F4F4"/>
<path d="M44.5565 177.438H229.855" stroke="#F4F4F4"/>
<path d="M44.5565 209.312H229.855" stroke="#F4F4F4"/>
<path d="M50.9218 138.125C50.9218 133.039 55.0381 128.917 60.116 128.917C65.1938 128.917 69.3102 133.039 69.3102 138.125V209.667H50.9218V138.125Z" fill="url(#paint0_linear_45_276)"/>
<path d="M76.3826 80.7501C76.3826 75.6642 80.4987 71.5417 85.5768 71.5417C90.6548 71.5417 94.771 75.6642 94.771 80.7501V209.667H76.3826V80.7501Z" fill="url(#paint1_linear_45_276)"/>
<path d="M115.988 112.625C115.988 107.539 120.105 103.417 125.183 103.417C130.261 103.417 134.377 107.539 134.377 112.625V209.667H115.988V112.625Z" fill="url(#paint2_linear_45_276)"/>
<path d="M140.742 94.2083C140.742 89.1225 144.858 85 149.936 85C155.014 85 159.13 89.1225 159.13 94.2083V209.667H140.742V94.2083Z" fill="url(#paint3_linear_45_276)"/>
<path d="M180.348 80.7501C180.348 75.6642 184.464 71.5417 189.542 71.5417C194.62 71.5417 198.736 75.6642 198.736 80.7501V209.667H180.348V80.7501Z" fill="url(#paint4_linear_45_276)"/>
<path d="M205.101 53.1251C205.101 48.0395 209.218 43.9167 214.296 43.9167C219.374 43.9167 223.49 48.0395 223.49 53.1251V209.667H205.101V53.1251Z" fill="url(#paint5_linear_45_276)"/>
<g filter="url(#filter0_d_45_276)">
<path d="M103.258 164.333H24.7536C18.8946 164.333 14.1449 169.09 14.1449 174.958V213.208C14.1449 219.076 18.8946 223.833 24.7536 223.833H103.258C109.117 223.833 113.867 219.076 113.867 213.208V174.958C113.867 169.09 109.117 164.333 103.258 164.333Z" fill="white"/>
<path d="M30.4115 180.979C30.4115 179.414 29.1449 178.146 27.5825 178.146C26.0201 178.146 24.7535 179.414 24.7535 180.979C24.7535 182.544 26.0201 183.812 27.5825 183.812C29.1449 183.812 30.4115 182.544 30.4115 180.979Z" fill="#D3ADFF"/>
<path d="M36.4619 184.244C36.0824 184.244 35.7436 184.179 35.4452 184.047C35.1487 183.916 34.9139 183.735 34.7407 183.502C34.5694 183.268 34.4773 182.997 34.4645 182.689H35.3319C35.343 182.857 35.3992 183.003 35.5005 183.126C35.6036 183.248 35.7381 183.342 35.9038 183.409C36.0696 183.474 36.2537 183.508 36.4564 183.508C36.6792 183.508 36.8763 183.469 37.0476 183.392C37.2207 183.314 37.3561 183.207 37.4537 183.068C37.5513 182.928 37.6001 182.766 37.6001 182.584C37.6001 182.394 37.5513 182.227 37.4537 182.083C37.3579 181.937 37.217 181.823 37.031 181.74C36.8468 181.657 36.624 181.615 36.3624 181.615H35.8845V180.918H36.3624C36.5724 180.918 36.7566 180.881 36.9149 180.805C37.0752 180.729 37.2005 180.624 37.2907 180.49C37.381 180.353 37.4261 180.193 37.4261 180.011C37.4261 179.835 37.3865 179.683 37.3073 179.554C37.2299 179.423 37.1194 179.321 36.9758 179.247C36.8339 179.173 36.6663 179.136 36.4729 179.136C36.2888 179.136 36.1165 179.171 35.9563 179.239C35.7979 179.305 35.669 179.401 35.5696 179.526C35.47 179.65 35.4166 179.798 35.4093 179.972H34.5832C34.5925 179.666 34.6827 179.397 34.854 179.164C35.0271 178.931 35.2555 178.75 35.5391 178.619C35.8227 178.488 36.1378 178.423 36.4839 178.423C36.8468 178.423 37.1599 178.493 37.4233 178.635C37.6885 178.775 37.8929 178.963 38.0366 179.197C38.1821 179.431 38.2539 179.688 38.2521 179.966C38.2539 180.283 38.1655 180.553 37.9868 180.774C37.81 180.995 37.5743 181.144 37.2796 181.22V181.264C37.6554 181.321 37.9463 181.471 38.1526 181.712C38.3608 181.954 38.4639 182.253 38.462 182.612C38.4639 182.923 38.3773 183.202 38.2023 183.45C38.0292 183.697 37.7926 183.892 37.4923 184.033C37.1921 184.174 36.8487 184.244 36.4619 184.244ZM40.7523 184.261C40.4834 184.261 40.2403 184.211 40.0229 184.111C39.8057 184.01 39.6335 183.863 39.5064 183.671C39.3811 183.479 39.3185 183.244 39.3185 182.966C39.3185 182.726 39.3646 182.528 39.4566 182.374C39.5487 182.219 39.6731 182.096 39.8296 182.005C39.9862 181.915 40.1611 181.847 40.3545 181.801C40.5479 181.755 40.745 181.72 40.9457 181.696C41.1999 181.666 41.4062 181.642 41.5645 181.624C41.7229 181.604 41.8381 181.571 41.9099 181.527C41.9817 181.483 42.0177 181.41 42.0177 181.311V181.291C42.0177 181.05 41.9495 180.863 41.8132 180.73C41.6787 180.597 41.478 180.531 41.2109 180.531C40.9328 180.531 40.7136 180.592 40.5534 180.716C40.395 180.838 40.2854 180.973 40.2246 181.123L39.4483 180.946C39.5405 180.688 39.6749 180.479 39.8517 180.32C40.0304 180.16 40.2357 180.044 40.4678 179.972C40.6998 179.898 40.9438 179.861 41.1999 179.861C41.3693 179.861 41.5489 179.882 41.7386 179.922C41.9302 179.96 42.1088 180.033 42.2745 180.137C42.4421 180.243 42.5794 180.393 42.6862 180.589C42.793 180.783 42.8464 181.034 42.8464 181.344V184.166H42.0397V183.586H42.0066C41.9532 183.693 41.873 183.797 41.7662 183.901C41.6594 184.004 41.5222 184.09 41.3546 184.158C41.187 184.227 40.9862 184.261 40.7523 184.261ZM40.9319 183.596C41.1603 183.596 41.3555 183.552 41.5176 183.461C41.6815 183.37 41.8058 183.253 41.8906 183.107C41.9771 182.959 42.0204 182.802 42.0204 182.634V182.085C41.9909 182.115 41.9338 182.143 41.8491 182.169C41.7662 182.193 41.6714 182.214 41.5645 182.233C41.4577 182.249 41.3537 182.265 41.2523 182.279C41.1511 182.292 41.0663 182.304 40.9982 182.313C40.838 182.333 40.6916 182.367 40.559 182.415C40.4282 182.463 40.3232 182.532 40.244 182.622C40.1667 182.711 40.128 182.829 40.128 182.976C40.128 183.181 40.2035 183.336 40.3545 183.442C40.5055 183.545 40.698 183.596 40.9319 183.596ZM43.9467 184.166V179.916H44.7727V181.699H45.1706L46.5712 179.916H47.5934L45.9496 181.983L47.6128 184.166H46.5878L45.3087 182.468H44.7727V184.166H43.9467ZM48.2544 185.76V179.916H49.0611V180.606H49.1301C49.178 180.517 49.2471 180.414 49.3374 180.298C49.4276 180.182 49.5529 180.081 49.7131 179.994C49.8733 179.905 50.0851 179.861 50.3485 179.861C50.691 179.861 50.9968 179.948 51.2657 180.121C51.5346 180.295 51.7455 180.545 51.8984 180.871C52.0531 181.198 52.1304 181.59 52.1304 182.05C52.1304 182.509 52.054 182.903 51.9011 183.231C51.7482 183.558 51.5383 183.809 51.2712 183.987C51.0041 184.162 50.6993 184.249 50.3568 184.249C50.0989 184.249 49.888 184.206 49.7241 184.12C49.5621 184.033 49.435 183.931 49.3429 183.815C49.2508 183.699 49.1799 183.596 49.1301 183.505H49.0804V185.76H48.2544ZM49.0638 182.041C49.0638 182.34 49.1071 182.602 49.1937 182.827C49.2802 183.052 49.4055 183.229 49.5694 183.355C49.7334 183.482 49.9341 183.544 50.1717 183.544C50.4185 183.544 50.6248 183.479 50.7906 183.348C50.9563 183.214 51.0815 183.035 51.1662 182.808C51.2528 182.581 51.2961 182.326 51.2961 182.041C51.2961 181.761 51.2537 181.51 51.169 181.286C51.0861 181.063 50.9609 180.887 50.7933 180.758C50.6275 180.628 50.4203 180.564 50.1717 180.564C49.9322 180.564 49.7297 180.626 49.5639 180.749C49.4 180.873 49.2756 181.046 49.1909 181.267C49.1062 181.488 49.0638 181.746 49.0638 182.041ZM53.6775 181.377H54.9097C55.429 181.377 55.8288 181.507 56.1087 181.765C56.3886 182.023 56.5286 182.356 56.5286 182.764C56.5286 183.03 56.466 183.268 56.3407 183.48C56.2155 183.693 56.0322 183.86 55.791 183.984C55.5497 184.106 55.256 184.166 54.9097 184.166H53.0559V179.916H53.8654V183.452H54.9097C55.1473 183.452 55.3425 183.391 55.4954 183.267C55.6482 183.142 55.7247 182.982 55.7247 182.789C55.7247 182.584 55.6482 182.417 55.4954 182.288C55.3425 182.157 55.1473 182.091 54.9097 182.091H53.6775V181.377ZM57.1309 184.166V179.916H57.9569V184.166H57.1309ZM58.8278 180.63V179.916H62.4083V180.63H61.0242V184.166H60.2175V180.63H58.8278ZM63.9036 181.377H65.1358C65.6551 181.377 66.0548 181.507 66.3348 181.765C66.6147 182.023 66.7547 182.356 66.7547 182.764C66.7547 183.03 66.6921 183.268 66.5668 183.48C66.4416 183.693 66.2583 183.86 66.0171 183.984C65.7758 184.106 65.482 184.166 65.1358 184.166H63.282V179.916H64.0915V183.452H65.1358C65.3733 183.452 65.5685 183.391 65.7214 183.267C65.8743 183.142 65.9507 182.982 65.9507 182.789C65.9507 182.584 65.8743 182.417 65.7214 182.288C65.5685 182.157 65.3733 182.091 65.1358 182.091H63.9036V181.377ZM67.3569 184.166V179.916H68.183V184.166H67.3569ZM71.1207 184.252C70.7023 184.252 70.3422 184.163 70.0402 183.984C69.7399 183.803 69.5079 183.55 69.344 183.223C69.1819 182.894 69.1009 182.51 69.1009 182.069C69.1009 181.633 69.1819 181.25 69.344 180.918C69.5079 180.586 69.7363 180.327 70.0291 180.14C70.3238 179.954 70.6682 179.861 71.0627 179.861C71.3018 179.861 71.5337 179.901 71.7586 179.98C71.9835 180.06 72.1851 180.184 72.3633 180.354C72.5423 180.524 72.683 180.744 72.7863 181.015C72.8895 181.284 72.9412 181.612 72.9412 181.997V182.291H69.5678V181.671H72.1314C72.1314 181.453 72.0875 181.26 71.9991 181.092C71.9107 180.923 71.7862 180.789 71.6257 180.691C71.4673 180.594 71.2812 180.545 71.0677 180.545C70.8357 180.545 70.6333 180.601 70.4601 180.716C70.2888 180.829 70.1562 180.976 70.0623 181.159C69.9702 181.34 69.9242 181.536 69.9242 181.748V182.233C69.9242 182.517 69.9739 182.758 70.0733 182.957C70.1746 183.156 70.3155 183.309 70.4961 183.414C70.6766 183.517 70.8873 183.569 71.1285 183.569C71.2855 183.569 71.4277 183.547 71.5571 183.502C71.6858 183.456 71.7975 183.388 71.8909 183.297C71.985 183.207 72.0571 183.095 72.1066 182.963L72.8888 183.104C72.8259 183.335 72.7134 183.537 72.5515 183.71C72.3909 183.882 72.1894 184.015 71.9468 184.111C71.7049 184.205 71.4298 184.252 71.1207 184.252ZM77.7038 184.252C77.2928 184.252 76.9392 184.159 76.6429 183.973C76.348 183.785 76.1216 183.525 75.9632 183.195C75.8048 182.865 75.7256 182.487 75.7256 182.061C75.7256 181.629 75.8069 181.248 75.9689 180.918C76.1308 180.586 76.3593 180.327 76.6542 180.14C76.9484 179.954 77.2957 179.861 77.6953 179.861C78.0178 179.861 78.3049 179.921 78.5574 180.041C78.8099 180.159 79.0136 180.325 79.1678 180.539C79.3248 180.753 79.4174 181.003 79.4471 181.289H78.643C78.5991 181.089 78.498 180.918 78.3396 180.774C78.1826 180.63 77.9725 180.558 77.7094 180.558C77.4788 180.558 77.2773 180.619 77.1047 180.741C76.9329 180.861 76.7999 181.033 76.7037 181.256C76.6082 181.477 76.5601 181.739 76.5601 182.041C76.5601 182.351 76.6068 182.619 76.7009 182.844C76.7949 183.069 76.9279 183.244 77.0991 183.367C77.2716 183.491 77.4753 183.552 77.7094 183.552C77.8657 183.552 78.0079 183.523 78.1352 183.467C78.2639 183.407 78.3714 183.324 78.4584 183.214C78.5468 183.106 78.6083 182.975 78.643 182.822H79.4471C79.4174 183.097 79.3283 183.342 79.1791 183.558C79.0298 183.773 78.8304 183.943 78.5793 184.067C78.3311 184.191 78.039 184.252 77.7038 184.252ZM79.916 185.392V183.45H80.2612C80.3496 183.369 80.4245 183.272 80.4854 183.159C80.5476 183.047 80.6006 182.913 80.6424 182.758C80.6869 182.603 80.7237 182.423 80.7534 182.216C80.7824 182.007 80.8086 181.769 80.8305 181.502L80.9634 179.916H83.8476V183.45H84.4997V185.392H83.6927V184.166H80.7336V185.392H79.916ZM81.1452 183.45H83.0406V180.625H81.7032L81.6148 181.502C81.5731 181.948 81.5193 182.335 81.455 182.664C81.3906 182.991 81.2874 183.253 81.1452 183.45ZM87.1356 184.252C86.7176 184.252 86.3576 184.163 86.0556 183.984C85.755 183.803 85.5231 183.55 85.359 183.223C85.197 182.894 85.1164 182.51 85.1164 182.069C85.1164 181.633 85.197 181.25 85.359 180.918C85.5231 180.586 85.7515 180.327 86.0443 180.14C86.3392 179.954 86.6837 179.861 87.0776 179.861C87.3174 179.861 87.5493 179.901 87.7735 179.98C87.9984 180.06 88.2 180.184 88.3789 180.354C88.5579 180.524 88.6986 180.744 88.8019 181.015C88.9044 181.284 88.956 181.612 88.956 181.997V182.291H85.5832V181.671H88.147C88.147 181.453 88.1024 181.26 88.014 181.092C87.9256 180.923 87.8018 180.789 87.6413 180.691C87.4828 180.594 87.2968 180.545 87.0833 180.545C86.8513 180.545 86.6483 180.601 86.4757 180.716C86.3039 180.829 86.1716 180.976 86.0775 181.159C85.9856 181.34 85.9396 181.536 85.9396 181.748V182.233C85.9396 182.517 85.9891 182.758 86.0889 182.957C86.19 183.156 86.3307 183.309 86.5111 183.414C86.6914 183.517 86.9029 183.569 87.1441 183.569C87.3004 183.569 87.4432 183.547 87.572 183.502C87.7014 183.456 87.8124 183.388 87.9065 183.297C88.0006 183.207 88.072 183.095 88.1222 182.963L88.9037 183.104C88.8415 183.335 88.729 183.537 88.5671 183.71C88.4065 183.882 88.2049 184.015 87.9617 184.111C87.7205 184.205 87.4454 184.252 87.1356 184.252ZM89.5388 184.166L89.536 183.45H89.688C89.8054 183.45 89.9038 183.425 89.983 183.375C90.0643 183.324 90.1308 183.236 90.1824 183.115C90.234 182.993 90.2736 182.826 90.3012 182.612C90.3288 182.396 90.3486 182.124 90.362 181.798L90.4363 179.916H93.3983V184.166H92.5885V180.63H91.2016L91.1351 182.075C91.1188 182.425 91.0827 182.731 91.0276 182.993C90.9745 183.256 90.896 183.474 90.7928 183.649C90.6895 183.822 90.5573 183.953 90.3953 184.039C90.2326 184.124 90.036 184.166 89.804 184.166H89.5388ZM94.4994 184.166V179.916H95.3255V181.699H95.7237L97.124 179.916H98.146L96.5024 181.983L98.1658 184.166H97.141L95.8616 182.468H95.3255V184.166H94.4994ZM99.6171 183.007L101.487 179.916H102.377V184.166H101.567V181.073L99.7055 184.166H98.8073V179.916H99.6171V183.007Z" fill="#0F141E" fill-opacity="0.5"/>
<path d="M30.4115 207.187C30.4115 205.623 29.1449 204.354 27.5825 204.354C26.0201 204.354 24.7535 205.623 24.7535 207.187C24.7535 208.752 26.0201 210.021 27.5825 210.021C29.1449 210.021 30.4115 208.752 30.4115 207.187Z" fill="#9335FF"/>
<path d="M37.926 210.375L36.0253 207.835H35.423V210.375H34.5693V204.708H35.423V207.102H35.7021L37.8404 204.708H38.8819L36.6192 207.246L38.9676 210.375H37.926ZM41.168 210.461C40.7702 210.461 40.423 210.369 40.1265 210.187C39.83 210.004 39.5997 209.749 39.4358 209.42C39.2719 209.092 39.1899 208.708 39.1899 208.269C39.1899 207.828 39.2719 207.443 39.4358 207.113C39.5997 206.782 39.83 206.526 40.1265 206.344C40.423 206.161 40.7702 206.07 41.168 206.07C41.5658 206.07 41.913 206.161 42.2095 206.344C42.5061 206.526 42.7363 206.782 42.9002 207.113C43.0641 207.443 43.1461 207.828 43.1461 208.269C43.1461 208.708 43.0641 209.092 42.9002 209.42C42.7363 209.749 42.5061 210.004 42.2095 210.187C41.913 210.369 41.5658 210.461 41.168 210.461ZM41.1708 209.766C41.4286 209.766 41.6423 209.698 41.8117 209.562C41.9811 209.425 42.1064 209.243 42.1874 209.016C42.2703 208.79 42.3118 208.54 42.3118 208.266C42.3118 207.996 42.2703 207.746 42.1874 207.52C42.1064 207.291 41.9811 207.107 41.8117 206.969C41.6423 206.83 41.4286 206.761 41.1708 206.761C40.9111 206.761 40.6956 206.83 40.5243 206.969C40.3548 207.107 40.2287 207.291 40.1458 207.52C40.0648 207.746 40.0243 207.996 40.0243 208.266C40.0243 208.54 40.0648 208.79 40.1458 209.016C40.2287 209.243 40.3548 209.425 40.5243 209.562C40.6956 209.698 40.9111 209.766 41.1708 209.766ZM46.9441 207.893V208.61H44.6455V207.893H46.9441ZM44.8776 206.125V210.375H44.0682V206.125H44.8776ZM47.5215 206.125V210.375H46.7148V206.125H47.5215ZM48.6266 210.375V206.125H50.3864C50.8652 206.125 51.2447 206.228 51.5246 206.432C51.8046 206.635 51.9445 206.91 51.9445 207.26C51.9445 207.508 51.8653 207.706 51.707 207.851C51.5486 207.997 51.3386 208.095 51.077 208.145C51.2668 208.167 51.4408 208.224 51.5992 208.316C51.7576 208.406 51.8847 208.528 51.9805 208.681C52.0781 208.835 52.1269 209.017 52.1269 209.23C52.1269 209.455 52.0689 209.654 51.9528 209.827C51.8368 209.999 51.6683 210.133 51.4473 210.231C51.2281 210.327 50.9638 210.375 50.6544 210.375H48.6266ZM49.4028 209.683H50.6544C50.8588 209.683 51.019 209.634 51.1351 209.536C51.2511 209.439 51.3091 209.306 51.3091 209.138C51.3091 208.941 51.2511 208.786 51.1351 208.673C51.019 208.559 50.8588 208.501 50.6544 208.501H49.4028V209.683ZM49.4028 207.896H50.3947C50.5494 207.896 50.682 207.874 50.7925 207.829C50.9048 207.785 50.9905 207.722 51.0495 207.641C51.1102 207.558 51.1406 207.46 51.1406 207.348C51.1406 207.184 51.0734 207.056 50.9389 206.964C50.8045 206.871 50.6203 206.825 50.3864 206.825H49.4028V207.896ZM54.8619 210.461C54.4438 210.461 54.0837 210.371 53.7817 210.192C53.4815 210.012 53.2494 209.758 53.0855 209.431C52.9234 209.103 52.8424 208.718 52.8424 208.278C52.8424 207.842 52.9234 207.459 53.0855 207.127C53.2494 206.794 53.4778 206.535 53.7706 206.349C54.0654 206.162 54.4098 206.07 54.8039 206.07C55.0433 206.07 55.2754 206.109 55.5001 206.189C55.7248 206.268 55.9265 206.393 56.1051 206.562C56.2838 206.732 56.4247 206.952 56.5279 207.224C56.631 207.493 56.6825 207.82 56.6825 208.205V208.499H53.3093V207.879H55.8731C55.8731 207.661 55.8289 207.469 55.7405 207.301C55.6521 207.131 55.5277 206.998 55.3675 206.9C55.2091 206.802 55.0231 206.753 54.8095 206.753C54.5773 206.753 54.3748 206.81 54.2016 206.925C54.0304 207.037 53.8977 207.185 53.8038 207.367C53.7117 207.548 53.6657 207.744 53.6657 207.957V208.441C53.6657 208.725 53.7154 208.967 53.8149 209.166C53.9161 209.365 54.0571 209.517 54.2376 209.622C54.4181 209.725 54.629 209.777 54.8702 209.777C55.0268 209.777 55.1695 209.755 55.2984 209.711C55.4274 209.664 55.5388 209.596 55.6327 209.506C55.7266 209.416 55.7985 209.304 55.8482 209.171L56.63 209.312C56.5674 209.543 56.4551 209.745 56.293 209.918C56.1328 210.09 55.9311 210.223 55.688 210.32C55.4467 210.414 55.1714 210.461 54.8619 210.461ZM57.599 211.969V206.125H58.4057V206.814H58.4748C58.5227 206.726 58.5918 206.623 58.6821 206.507C58.7723 206.391 58.8975 206.289 59.0577 206.202C59.218 206.114 59.4298 206.07 59.6931 206.07C60.0357 206.07 60.3415 206.156 60.6104 206.33C60.8793 206.503 61.0902 206.753 61.2431 207.08C61.3977 207.406 61.4751 207.799 61.4751 208.258C61.4751 208.717 61.3987 209.111 61.2458 209.44C61.0929 209.766 60.8829 210.018 60.6159 210.195C60.3488 210.37 60.044 210.458 59.7015 210.458C59.4436 210.458 59.2327 210.415 59.0688 210.328C58.9067 210.241 58.7797 210.14 58.6876 210.024C58.5955 209.907 58.5246 209.804 58.4748 209.713H58.4251V211.969H57.599ZM58.4085 208.25C58.4085 208.549 58.4518 208.811 58.5383 209.035C58.6249 209.261 58.7502 209.437 58.9141 209.564C59.078 209.69 59.2788 209.752 59.5163 209.752C59.7631 209.752 59.9695 209.687 60.1352 209.556C60.3009 209.423 60.4262 209.243 60.5109 209.016C60.5975 208.79 60.6408 208.534 60.6408 208.25C60.6408 207.969 60.5984 207.718 60.5137 207.495C60.4308 207.271 60.3055 207.095 60.138 206.966C59.9722 206.837 59.765 206.772 59.5163 206.772C59.2769 206.772 59.0743 206.834 58.9086 206.958C58.7446 207.081 58.6203 207.254 58.5356 207.475C58.4509 207.697 58.4085 207.955 58.4085 208.25ZM64.188 210.461C63.7773 210.461 63.4237 210.368 63.1272 210.182C62.8325 209.993 62.6059 209.734 62.4476 209.404C62.2892 209.074 62.2099 208.695 62.2099 208.269C62.2099 207.838 62.291 207.457 62.4531 207.127C62.6152 206.794 62.8436 206.535 63.1382 206.349C63.4329 206.162 63.7801 206.07 64.1798 206.07C64.5021 206.07 64.7894 206.13 65.0417 206.25C65.294 206.367 65.4976 206.534 65.6523 206.748C65.8088 206.961 65.9018 207.212 65.9313 207.497H65.1273C65.0831 207.298 64.9818 207.127 64.8234 206.983C64.6669 206.839 64.4569 206.767 64.1936 206.767C63.9633 206.767 63.7616 206.828 63.5886 206.949C63.4173 207.069 63.2838 207.241 63.188 207.464C63.0922 207.685 63.0443 207.947 63.0443 208.25C63.0443 208.559 63.0912 208.827 63.1852 209.052C63.2792 209.278 63.4118 209.452 63.583 209.575C63.7561 209.699 63.9597 209.761 64.1936 209.761C64.3501 209.761 64.4919 209.732 64.619 209.675C64.748 209.616 64.8557 209.532 64.9422 209.423C65.0307 209.315 65.0924 209.183 65.1273 209.03H65.9313C65.9018 209.305 65.8125 209.55 65.6634 209.766C65.5141 209.982 65.3143 210.152 65.0638 210.275C64.8152 210.399 64.5233 210.461 64.188 210.461ZM67.6241 209.215L69.4944 206.125H70.3841V210.375H69.5746V207.282L67.7125 210.375H66.8147V206.125H67.6241V209.215ZM72.3038 209.215L74.1745 206.125H75.0642V210.375H74.2544V207.282L72.3922 210.375H71.4947V206.125H72.3038V209.215Z" fill="#0F141E" fill-opacity="0.5"/>
</g>
</g>
<defs>
<filter id="filter0_d_45_276" x="10.1449" y="160.333" width="115.722" height="75.5" filterUnits="userSpaceOnUse" color-interpolation-filters="sRGB">
<feFlood flood-opacity="0" result="BackgroundImageFix"/>
<feColorMatrix in="SourceAlpha" type="matrix" values="0 0 0 0 0 0 0 0 0 0 0 0 0 0 0 0 0 0 127 0" result="hardAlpha"/>
<feOffset dx="4" dy="4"/>
<feGaussianBlur stdDeviation="4"/>
<feComposite in2="hardAlpha" operator="out"/>
<feColorMatrix type="matrix" values="0 0 0 0 0.0588235 0 0 0 0 0.0784314 0 0 0 0 0.117647 0 0 0 0.1 0"/>
<feBlend mode="normal" in2="BackgroundImageFix" result="effect1_dropShadow_45_276"/>
<feBlend mode="normal" in="SourceGraphic" in2="effect1_dropShadow_45_276" result="shape"/>
</filter>
<linearGradient id="paint0_linear_45_276" x1="60.116" y1="128.917" x2="60.116" y2="209.667" gradientUnits="userSpaceOnUse">
<stop stop-color="#D3ADFF"/>
<stop offset="1" stop-color="#D3ADFF" stop-opacity="0"/>
</linearGradient>
<linearGradient id="paint1_linear_45_276" x1="85.5768" y1="71.5417" x2="85.5768" y2="209.667" gradientUnits="userSpaceOnUse">
<stop stop-color="#9335FF"/>
<stop offset="1" stop-color="#9335FF" stop-opacity="0"/>
</linearGradient>
<linearGradient id="paint2_linear_45_276" x1="125.183" y1="103.417" x2="125.183" y2="209.667" gradientUnits="userSpaceOnUse">
<stop stop-color="#D3ADFF"/>
<stop offset="1" stop-color="#D3ADFF" stop-opacity="0"/>
</linearGradient>
<linearGradient id="paint3_linear_45_276" x1="149.936" y1="85" x2="149.936" y2="209.667" gradientUnits="userSpaceOnUse">
<stop stop-color="#9335FF"/>
<stop offset="1" stop-color="#9335FF" stop-opacity="0"/>
</linearGradient>
<linearGradient id="paint4_linear_45_276" x1="189.542" y1="71.5417" x2="189.542" y2="209.667" gradientUnits="userSpaceOnUse">
<stop stop-color="#D3ADFF"/>
<stop offset="1" stop-color="#D3ADFF" stop-opacity="0"/>
</linearGradient>
<linearGradient id="paint5_linear_45_276" x1="214.296" y1="43.9167" x2="214.296" y2="209.667" gradientUnits="userSpaceOnUse">
<stop stop-color="#9335FF"/>
<stop offset="1" stop-color="#9335FF" stop-opacity="0"/>
</linearGradient>
<clipPath id="clip0_45_276">
<rect width="244" height="238" rx="15" fill="white"/>
</clipPath>
</defs>
</svg>
