<svg width="92" height="22" viewBox="0 0 92 22" fill="none" xmlns="http://www.w3.org/2000/svg">
<g clip-path="url(#clip0_45_165)">
<path d="M63.8633 17.5215C62.79 17.5215 61.9467 18.3858 61.9467 19.4858C61.9467 20.5858 62.79 21.4501 63.8633 21.4501C64.9367 21.4501 65.78 20.5858 65.78 19.4858C65.78 18.3858 64.86 17.5215 63.8633 17.5215Z" fill="#E53842"/>
<path d="M27.7533 2.67143C27.7533 3.77143 26.91 4.63571 25.8367 4.63571C24.7633 4.63571 23.92 3.77143 23.92 2.67143C23.92 1.57143 24.7633 0.707143 25.8367 0.707143C26.91 0.707143 27.7533 1.57143 27.7533 2.67143ZM24.38 21.2143H27.37V6.67857H24.38V21.2143ZM16.8667 21.2143H19.8567V0H16.8667V21.2143ZM47.4567 0V21.2143H50.4467V0H47.4567ZM7.05333 9.27143C8.97 9.27143 10.0433 10.2929 10.6567 11.8643H13.7233C13.1867 8.72143 10.8867 6.44286 7.05333 6.44286C2.83667 6.44286 0 9.82143 0 13.9857C0 18.15 2.83667 21.45 7.05333 21.45C10.8867 21.45 13.1867 19.1714 13.7233 16.0286H10.6567C10.0433 17.6 8.97 18.6214 7.05333 18.6214C4.67667 18.6214 2.91333 16.5786 2.91333 13.9071C2.99 11.3143 4.67667 9.27143 7.05333 9.27143ZM37.8733 9.27143C39.79 9.27143 40.8633 10.2929 41.4767 11.8643H44.5433C44.0067 8.72143 41.7067 6.44286 37.8733 6.44286C33.58 6.44286 30.82 9.74286 30.82 13.9071C30.82 18.0714 33.6567 21.3714 37.8733 21.3714C41.7067 21.3714 44.0067 19.0929 44.5433 15.95H41.4767C40.8633 17.5214 39.79 18.5429 37.8733 18.5429C35.4967 18.5429 33.7333 16.5 33.7333 13.8286C33.7333 11.3143 35.42 9.27143 37.8733 9.27143ZM75.44 6.44286C74.3667 6.44286 73.5233 7.30714 73.5233 8.40714C73.5233 9.50714 74.3667 10.3714 75.44 10.3714C76.5133 10.3714 77.3567 9.50714 77.3567 8.40714C77.4333 7.38571 76.5133 6.44286 75.44 6.44286ZM89.01 6.67857V15.3214C89.01 17.2857 87.7067 18.6214 85.8667 18.6214C84.1033 18.6214 82.7233 17.2857 82.7233 15.3214V6.67857H79.7333V15.3214C79.7333 18.9357 82.4167 21.45 85.79 21.45C89.24 21.45 91.9233 18.9357 91.9233 15.3214V6.67857H89.01ZM69.1533 21.2143H72.1433V6.67857H69.1533V21.2143ZM59.9533 6.67857H56.35L50.4467 13.6714L56.5033 21.1357H60.26L54.1267 13.5143L59.9533 6.67857Z" fill="white"/>
</g>
<defs>
<clipPath id="clip0_45_165">
<rect width="92" height="22" fill="white"/>
</clipPath>
</defs>
</svg>
