<svg width="114" height="22" viewBox="0 0 114 22" fill="none" xmlns="http://www.w3.org/2000/svg">
<g clip-path="url(#clip0_56_836)">
<mask id="mask0_56_836" style="mask-type:luminance" maskUnits="userSpaceOnUse" x="0" y="0" width="114" height="22">
<path d="M113.766 0H0V22H113.766V0Z" fill="white"/>
</mask>
<g mask="url(#mask0_56_836)">
<path fill-rule="evenodd" clip-rule="evenodd" d="M32.2035 8.98723L37.9223 8.98338C41.5278 8.98338 43.3924 10.5718 43.3937 13.3826C43.3937 15.3384 42.412 17.7831 37.9289 17.7831H27.9756V4.2168H42.3976V7.27205H32.2022L32.2035 8.98723ZM37.4249 14.7265C38.5447 14.7265 39.1658 14.2376 39.1658 13.3826C39.1658 12.5276 38.5434 12.0386 37.4249 12.0386H32.2022V14.7265H37.4249ZM95.4054 14.6044H99.5919C99.5919 15.4607 98.8317 18.027 93.2562 18.0257H92.7498C87.5548 18.0257 86.2875 15.2757 86.2875 12.8374V12.5813C86.2875 10.0822 87.4058 7.39305 92.7526 7.39305H93.1261C98.7212 7.39305 99.5912 10.2038 99.5912 13.1311V13.5036L90.381 13.5022C90.509 14.7246 91.3867 15.4594 93.2051 15.4594C94.9942 15.4594 95.2508 14.9247 95.3802 14.6557L95.3851 14.6452L95.3921 14.6297C95.397 14.6209 95.4012 14.6124 95.4054 14.6044ZM95.3655 11.5478C95.3655 10.6928 94.8683 9.83774 92.8785 9.83774C91.1377 9.83774 90.5153 10.5712 90.3915 11.5491L95.3655 11.5478ZM109.648 13.7499H113.766C113.766 15.2167 112.772 18.0275 107.426 18.0262H107.177C101.831 18.0262 100.712 14.8493 100.712 12.8936V12.5275C100.712 10.573 101.768 7.3936 107.177 7.39484H107.426C112.708 7.3936 113.766 10.0841 113.766 11.5509H109.664C109.557 10.9391 109.041 10.0841 107.426 10.0841H107.177C105.561 10.0841 104.815 11.3064 104.815 12.6504V12.772C104.815 14.1172 105.684 15.2167 107.177 15.2167H107.426C109.167 15.2167 109.54 14.2388 109.648 13.7499ZM81.0659 17.7833H85.0447V7.63966H81.0659V11.3054H76.3415V7.63966H72.3627V17.7833H76.3415V14.1163H81.0659V17.7833ZM71.1185 14.7273V14.8489C71.1185 16.8047 69.005 18.0271 65.0271 18.0271H64.5297C60.3018 18.0271 58.4372 16.4373 58.4372 14.3845V14.2397L62.54 14.2384C62.6638 15.3379 63.6586 15.5823 64.9021 15.5823C66.2969 15.5823 67.0153 15.3379 67.0153 14.6044C67.0153 13.8594 66.5127 13.6279 65.4521 13.6279L63.2861 13.6265V11.4263H65.3995C66.2706 11.4263 66.6429 11.1818 66.6429 10.5713C66.6429 9.95942 66.0219 9.5934 64.7784 9.5934C63.5348 9.5934 62.9151 9.95942 62.7887 10.6928H58.5609V10.5687C58.5609 8.49264 61.0479 7.39312 64.6534 7.39312H64.9021C68.5076 7.39312 70.7457 8.37102 70.7457 10.0823V10.3268C70.7457 11.7937 69.3273 12.346 68.4576 12.5283C69.5168 12.7289 71.1185 13.1389 71.1185 14.7273ZM53.3391 17.7833H57.3183V7.63966H53.2153L48.615 13.5057V7.63966H44.6359V17.7833H48.7388L53.3391 11.9173V17.7833Z" fill="white"/>
<path fill-rule="evenodd" clip-rule="evenodd" d="M22.3804 11C22.3804 17.0752 17.3704 22 11.1902 22C5.01001 22 0 17.0752 0 11C0 4.92486 5.01001 0 11.1902 0C17.3704 0 22.3804 4.92486 22.3804 11ZM14.7999 17.2706V4.71582H11.5853C8.47586 4.71582 6.62046 6.2344 6.62046 8.77745C6.62046 10.7772 7.66129 11.9194 9.22456 13.0202L9.25086 13.0382L9.23246 13.0641L6.35202 17.2822H8.69953L11.9195 12.5519L10.8168 11.8211C9.4285 10.8949 8.76793 10.1848 8.76793 8.64806C8.76793 7.2149 9.82589 6.35858 11.5971 6.35858H12.5958H12.6288V6.39091V17.2706H14.7999Z" fill="white"/>
</g>
</g>
<defs>
<clipPath id="clip0_56_836">
<rect width="114" height="22" fill="white"/>
</clipPath>
</defs>
</svg>
