<svg width="94" height="22" viewBox="0 0 94 22" fill="none" xmlns="http://www.w3.org/2000/svg">
<g clip-path="url(#clip0_56_802)">
<mask id="mask0_56_802" style="mask-type:luminance" maskUnits="userSpaceOnUse" x="0" y="0" width="94" height="22">
<path d="M94 0.312988H0V21.4632H94V0.312988Z" fill="white"/>
</mask>
<g mask="url(#mask0_56_802)">
<mask id="mask1_56_802" style="mask-type:luminance" maskUnits="userSpaceOnUse" x="0" y="0" width="94" height="22">
<path d="M93.9923 0.312988H0.00854492V21.4632H93.9923V0.312988Z" fill="white"/>
</mask>
<g mask="url(#mask1_56_802)">
<path d="M30.2804 11.4019L27.6802 6.05908H25.2657L29.0731 13.847L26.2873 19.1899H28.7946L35.4806 6.05908H32.9734L30.2804 11.4019Z" fill="white"/>
<path d="M49.504 0.988281H47.3682V15.3869H49.504V0.988281Z" fill="white"/>
<path d="M40.4972 7.78016C41.0554 7.79098 41.6004 7.94736 42.0758 8.23287C42.5385 8.53274 42.9206 8.9365 43.1902 9.41012H45.326C45.0506 8.24864 44.3165 7.23988 43.283 6.60285C42.2589 5.9746 41.0528 5.68851 39.8472 5.78785C38.6524 5.93785 37.5589 6.5195 36.7827 7.41789C35.9823 8.28659 35.5507 9.41977 35.5755 10.5874C35.558 11.231 35.6815 11.8709 35.9377 12.4643C36.1939 13.0577 36.577 13.5909 37.0613 14.0285C37.525 14.4703 38.0578 14.8371 38.6399 15.1152C39.2549 15.3739 39.9207 15.4976 40.5901 15.4775C41.6956 15.4801 42.7717 15.1303 43.6545 14.4814C44.5308 13.7877 45.1504 12.8337 45.4188 11.7646H43.283C43.0783 12.2522 42.7208 12.6643 42.2616 12.9418C41.8073 13.2155 41.3026 13.4001 40.7757 13.4852C40.2375 13.4831 39.7036 13.3913 39.1971 13.2135C38.7332 12.9596 38.3235 12.6215 37.9899 12.2174C37.6971 11.7873 37.536 11.2846 37.5256 10.7685C37.5046 10.2608 37.6335 9.7579 37.897 9.31961C38.1699 8.87252 38.553 8.49895 39.0114 8.23287C39.4765 8.00053 39.9791 7.84738 40.4972 7.78016Z" fill="white"/>
<path d="M53.9614 6.05908H51.8256V15.3865H53.9614V6.05908Z" fill="white"/>
<path d="M52.8477 2.34644C52.6868 2.32282 52.5226 2.35486 52.3834 2.437C52.1976 2.52755 52.1048 2.61811 51.9191 2.70867C51.806 2.84681 51.7123 2.99909 51.6405 3.16145C51.5732 3.3031 51.5415 3.45827 51.5477 3.61424C51.533 3.80002 51.5648 3.98648 51.6405 4.15758C51.7334 4.3387 51.8262 4.42925 51.9191 4.61036C52.0607 4.7207 52.2169 4.81206 52.3834 4.88204C52.7445 5.00277 53.1366 5.00277 53.4977 4.88204C53.6835 4.79148 53.7763 4.70092 53.962 4.61036C54.0751 4.47223 54.1689 4.31994 54.2406 4.15758C54.3163 3.98648 54.3482 3.80002 54.3335 3.61424C54.3577 3.45737 54.3249 3.29717 54.2406 3.16145C54.1275 3.02331 54.0338 2.87103 53.962 2.70867C53.8204 2.59833 53.6642 2.50697 53.4977 2.437C53.2883 2.3694 53.0682 2.33873 52.8477 2.34644Z" fill="white"/>
<path d="M80.4264 3.07129H78.3835V13.3948C78.3785 13.6697 78.4305 13.9427 78.5358 14.1977C78.6417 14.4525 78.7984 14.6841 78.9976 14.8786C79.1975 15.0729 79.4344 15.2261 79.6964 15.329C79.9571 15.432 80.2378 15.4825 80.5192 15.4776H83.4908V13.4853H80.7981C80.7047 13.4853 80.7047 13.3948 80.6126 13.3948C80.5192 13.3948 80.5192 13.3043 80.5192 13.2136V8.23303H83.5836V6.2408H80.5192V3.07129H80.4264Z" fill="white"/>
<path d="M58.0465 9.68165C58.251 9.12187 58.629 8.63793 59.1282 8.29717C59.6274 7.95642 60.2231 7.77565 60.8325 7.77999C61.4216 7.77816 62.0001 7.93479 62.5039 8.2327C62.9731 8.60059 63.3535 9.06424 63.6186 9.59114H58.0465V9.68165ZM60.9253 5.87826C60.2596 5.86072 59.5969 5.97171 58.9754 6.20485C58.3539 6.43793 57.7857 6.78859 57.3036 7.23659C56.4567 8.19194 55.9947 9.41496 56.0036 10.6778C55.9856 11.3269 56.0994 11.9732 56.3384 12.5793C56.5775 13.1854 56.9371 13.7394 57.3965 14.2095C58.3334 15.1237 59.6001 15.6437 60.9253 15.6584C62.2816 15.6617 63.5841 15.1407 64.5466 14.2095C64.9396 13.8164 65.2542 13.3558 65.4754 12.8511L63.0608 12.9417C62.7907 13.2032 62.4769 13.4176 62.1325 13.5756C61.7815 13.7231 61.3992 13.7853 61.0181 13.7567C60.6243 13.7672 60.2324 13.7004 59.8655 13.5604C59.4986 13.4204 59.1643 13.2101 58.8823 12.9417C58.5147 12.5977 58.2567 12.1574 58.1394 11.6739H65.9397V11.4928C65.9397 11.3117 66.0325 11.04 66.0325 10.7683C66.0181 9.46012 65.4722 8.21095 64.5147 7.2944C63.5578 6.3778 62.2668 5.8686 60.9253 5.87826Z" fill="white"/>
<path d="M72.256 5.8782C71.4018 5.84073 70.5677 6.13367 69.9342 6.69321V6.05931H67.8912V15.3867H69.9342V10.0438C69.9191 9.46979 70.1335 8.91246 70.532 8.48987C70.9306 8.06729 71.482 7.81264 72.0698 7.77988C72.3713 7.7783 72.6689 7.83653 72.9466 7.951C73.2235 8.06533 73.4748 8.23357 73.6829 8.44532C73.8916 8.65713 74.0539 8.908 74.1592 9.18281C74.2657 9.45763 74.3127 9.75059 74.2989 10.0438V15.3867H76.3418V9.86267C76.3531 9.33638 76.2547 8.81327 76.0542 8.32481C75.853 7.83641 75.5522 7.39275 75.1706 7.02052C74.789 6.64829 74.3334 6.35514 73.8333 6.15885C73.332 5.96256 72.7955 5.86709 72.256 5.8782Z" fill="white"/>
<path d="M91.1079 9.6814H88.1356C88.0272 9.68433 87.9194 9.66111 87.8217 9.61375C87.7252 9.56633 87.6412 9.49623 87.5792 9.40964C87.4971 9.34193 87.4306 9.25894 87.383 9.16562C87.3348 9.07224 87.3072 8.9705 87.2997 8.8663C87.2972 8.76046 87.321 8.65541 87.3692 8.56056C87.4175 8.46578 87.4902 8.3842 87.5792 8.32302C87.6481 8.24364 87.7327 8.17868 87.8292 8.13199C87.9245 8.0853 88.0291 8.05786 88.1356 8.05132H93.5218V6.05908H88.1356C87.3799 6.09736 86.6592 6.3847 86.0927 6.87408C85.6873 7.26672 85.4109 7.76826 85.2981 8.31471C85.1859 8.86117 85.243 9.42785 85.4623 9.94265C85.681 10.4574 86.0526 10.8969 86.5282 11.2051C87.0051 11.5134 87.5647 11.6765 88.1356 11.6736H91.1079C91.1574 11.6678 91.2088 11.6727 91.2571 11.6884C91.3053 11.7041 91.3492 11.73 91.3862 11.7642C91.4783 11.7642 91.5717 11.8548 91.6644 11.9453C91.7578 12.0358 91.7578 12.1264 91.8499 12.2169C91.9433 12.3075 91.9433 12.398 91.9433 12.4887C91.9464 12.5946 91.9226 12.6996 91.8737 12.7944C91.8248 12.8892 91.7534 12.9708 91.6644 13.032C91.5948 13.1114 91.5096 13.1763 91.4144 13.223C91.3185 13.2697 91.2138 13.297 91.1079 13.3036H85.5356V15.2959H91.1079C91.4852 15.28 91.8593 15.2192 92.2215 15.1148C92.9171 14.7988 93.4761 14.2537 93.8007 13.5753C93.9517 13.2331 94.0157 12.8602 93.9856 12.4887C93.9699 12.1204 93.9079 11.7555 93.8007 11.4019C93.6378 11.0661 93.4184 10.7598 93.1502 10.4964C92.8638 10.2552 92.5524 10.0428 92.2215 9.86247C91.8593 9.75809 91.4852 9.69729 91.1079 9.6814Z" fill="white"/>
<path d="M17.0952 0.716797H3.81593C3.3079 0.719125 2.80452 0.811165 2.33013 0.988472C1.86023 1.14998 1.44335 1.43143 1.12293 1.80349C0.76299 2.13459 0.478273 2.53564 0.287168 2.98073C0.0971267 3.44103 0.00244365 3.93347 0.00858115 4.42964L0.00858128 17.4699C0.0109634 17.9653 0.105349 18.4561 0.287168 18.9188C0.452792 19.377 0.741401 19.7835 1.12293 20.096C1.46246 20.447 1.87372 20.7246 2.33013 20.911C2.80216 21.0963 3.30713 21.1887 3.81593 21.1827H17.1881C17.6961 21.1804 18.1995 21.0883 18.6739 20.911C19.1437 20.7495 19.5607 20.468 19.8811 20.096C20.241 19.765 20.5257 19.3639 20.7168 18.9188C20.9069 18.4585 21.0016 17.966 20.9954 17.4699V4.42964C20.993 3.93422 20.8986 3.44333 20.7168 2.98073C20.5512 2.52249 20.2626 2.11596 19.8811 1.80349C19.5416 1.45248 19.1303 1.17483 18.6739 0.988472C18.1674 0.810749 17.6335 0.718869 17.0952 0.716797Z" fill="#FFCB00"/>
<path d="M16.7222 6.06002H12.1719C12.1215 6.0541 12.0704 6.05916 12.0222 6.07481C11.9741 6.09047 11.93 6.11632 11.8933 6.1506C11.8005 6.24111 11.7077 6.24111 11.6147 6.33167L6.6002 13.9385C6.53991 14.0168 6.50732 14.1122 6.50732 14.2101C6.50732 14.3081 6.53991 14.4035 6.6002 14.4819L8.82894 17.923C8.82894 17.947 8.83865 17.97 8.85607 17.987C8.87349 18.004 8.89718 18.0136 8.92175 18.0136H9.10749L9.20036 17.923L16.8151 6.33167C17.0008 6.24111 16.9079 6.06002 16.7222 6.06002Z" fill="black"/>
<path d="M7.34394 10.4971L10.0369 6.42203C10.1298 6.24096 10.0369 6.15039 9.85117 6.15039H4.4652C4.27947 6.15039 4.18661 6.24096 4.27947 6.42203L6.97245 10.4971C6.97245 10.5211 6.98223 10.5442 6.99965 10.5611C7.01707 10.5781 7.0407 10.5877 7.06533 10.5877H7.1582C7.22951 10.5811 7.29569 10.5487 7.34394 10.4971Z" fill="black"/>
</g>
</g>
</g>
<defs>
<clipPath id="clip0_56_802">
<rect width="94" height="22" fill="white"/>
</clipPath>
</defs>
</svg>
