<svg width="1200" height="627" viewBox="0 0 1200 627" fill="none" xmlns="http://www.w3.org/2000/svg">
<g clip-path="url(#clip0_2199_2)">
<mask id="mask0_2199_2" style="mask-type:luminance" maskUnits="userSpaceOnUse" x="0" y="0" width="1200" height="627">
<path d="M1200 0H0V627H1200V0Z" fill="white"/>
</mask>
<g mask="url(#mask0_2199_2)">
<path d="M1200 0H0V627H1200V0Z" fill="#0F141E"/>
<path opacity="0.55" d="M483.244 386.168L424.498 439.401C404.074 457.908 370.675 457.908 350.252 439.401L317.394 409.629C314.63 403.64 312.047 397.435 309.705 391.122C333.852 401.681 361.665 407.723 391.339 407.723C425.278 407.669 456.874 399.777 483.244 386.168Z" fill="white"/>
<path opacity="0.57" d="M257.924 355.742L272.341 368.806C267.175 364.669 262.37 360.314 257.924 355.742Z" fill="white"/>
<path opacity="0.57" d="M483.244 386.168L424.498 439.401C404.074 457.908 370.675 457.908 350.252 439.401L317.394 409.629C314.63 403.64 312.047 397.435 309.705 391.122C333.852 401.681 361.665 407.723 391.339 407.723C425.278 407.669 456.874 399.777 483.244 386.168Z" fill="white"/>
<path d="M483.244 386.168L424.498 439.401C404.074 457.908 370.675 457.908 350.252 439.401L317.394 409.629C314.63 403.64 312.047 397.435 309.705 391.122C333.852 401.681 361.665 407.723 391.339 407.723C425.278 407.669 456.874 399.777 483.244 386.168Z" fill="white"/>
<path d="M534.183 337.834C505.05 296.25 446.483 267.837 379.025 267.837C347.788 267.837 318.474 273.933 293.065 284.601C270.059 294.236 250.296 307.625 235.337 323.682C234.918 322.812 234.497 321.941 234.137 321.07C231.674 306.591 236.6 291.242 248.853 280.193L303.937 230.28L350.311 188.26C370.734 169.753 404.133 169.753 424.557 188.26L526.074 280.193C543.194 295.706 545.897 319.601 534.183 337.834Z" fill="white"/>
<path d="M317.394 409.573L272.34 368.75L263.571 360.804C255.041 353.075 247.592 344.421 241.585 334.949C239.243 331.302 237.2 327.547 235.339 323.682C250.355 307.625 270.118 294.236 293.065 284.547C291.323 311.925 294.506 341.59 303.277 371.581C305.2 378.222 307.361 384.699 309.705 391.068C312.047 397.435 314.629 403.586 317.394 409.573Z" fill="white"/>
<path opacity="0.38" d="M257.924 355.742L272.341 368.806C267.175 364.669 262.37 360.314 257.924 355.742Z" fill="white"/>
<path d="M441.437 374.739H355.117V321.288H441.437C455.252 321.288 466.486 333.262 466.486 348.013C466.486 362.764 455.252 374.739 441.437 374.739ZM362.505 368.044H441.437C451.167 368.044 459.097 359.062 459.097 348.013C459.097 336.963 451.167 327.982 441.437 327.982H362.505V368.044Z" fill="white"/>
<path d="M335.834 375.337C333.792 375.337 332.17 373.813 332.17 372.017V324.173C332.17 322.321 333.851 320.852 335.834 320.852C337.877 320.852 339.499 322.377 339.499 324.173V372.017C339.558 373.813 337.877 375.337 335.834 375.337Z" fill="white"/>
<path d="M335.834 315.627C338.489 315.627 340.64 313.677 340.64 311.272C340.64 308.867 338.489 306.918 335.834 306.918C333.18 306.918 331.029 308.867 331.029 311.272C331.029 313.677 333.18 315.627 335.834 315.627Z" fill="white"/>
<path d="M532.382 350.898C531.421 350.898 530.52 351.116 529.678 351.497C528.837 351.933 528.176 352.477 527.576 353.184H527.515L513.52 367.717C513.339 367.88 513.04 368.098 512.739 368.316C512.438 368.534 512.138 368.642 511.778 368.642C511.418 368.642 511.117 368.534 510.816 368.316C510.517 368.098 510.275 367.934 510.035 367.717L495.92 353.13C495.259 352.477 494.538 351.987 493.757 351.497C492.976 351.06 492.075 350.844 491.114 350.844C489.492 350.844 488.17 351.388 487.269 352.421C486.308 353.456 485.887 354.707 485.887 356.178V372.397C485.887 373.16 486.188 373.758 486.729 374.303C487.329 374.847 487.991 375.065 488.831 375.065C489.672 375.065 490.333 374.793 490.933 374.303C491.535 373.758 491.775 373.16 491.775 372.397V360.26C491.775 358.736 491.895 357.974 492.075 357.974C492.255 357.974 492.856 358.464 493.818 359.497L507.333 373.378C507.874 373.922 508.535 374.357 509.315 374.629C510.096 374.901 510.936 375.065 511.838 375.065C512.739 375.065 513.579 374.901 514.361 374.629C515.142 374.357 515.803 373.922 516.344 373.378L529.859 359.497C530.819 358.518 531.421 357.974 531.601 357.974C531.781 357.974 531.901 358.736 531.901 360.26V372.397C531.901 373.16 532.201 373.758 532.742 374.303C533.342 374.847 534.003 375.065 534.844 375.065C535.686 375.065 536.346 374.793 536.946 374.303C537.548 373.758 537.788 373.16 537.788 372.397V356.178C537.788 354.707 537.308 353.456 536.406 352.421C535.324 351.388 534.064 350.898 532.382 350.898Z" fill="white"/>
<path d="M586.865 370.547L571.967 352.477C571.246 351.605 570.345 350.952 569.263 350.462C568.183 349.973 566.982 349.755 565.78 349.755C564.459 349.755 563.257 350.027 562.115 350.571C560.975 351.116 560.074 351.823 559.352 352.639L544.456 370.82C544.035 371.254 543.854 371.745 543.854 372.451C543.854 373.214 544.155 373.812 544.696 374.357C545.296 374.901 545.957 375.119 546.798 375.119C547.699 375.119 548.48 374.793 549.081 374.139L552.625 369.785H578.935L582.48 374.085C583.08 374.793 583.801 375.119 584.822 375.119C585.663 375.119 586.324 374.847 586.924 374.357C587.526 373.812 587.766 373.214 587.766 372.451C587.766 372.071 587.705 371.745 587.526 371.418C587.345 371.092 587.105 370.82 586.865 370.547ZM557.069 364.451L563.437 356.776C563.678 356.504 564.038 356.178 564.459 355.796C564.878 355.47 565.299 355.252 565.78 355.252C566.2 355.252 566.681 355.415 567.102 355.796C567.523 356.122 567.883 356.45 568.183 356.776L574.49 364.451H557.069Z" fill="white"/>
<path d="M639.425 353.076C638.644 352.421 637.803 351.877 636.782 351.497C635.761 351.116 634.68 350.898 633.539 350.898H596.776C595.935 350.898 595.274 351.17 594.674 351.66C594.073 352.205 593.833 352.803 593.833 353.564V372.453C593.833 373.214 594.133 373.813 594.674 374.357C595.274 374.901 595.935 375.119 596.776 375.119C597.557 375.119 598.218 374.847 598.819 374.357C599.419 373.813 599.72 373.214 599.72 372.453V365.648H633.539C634.68 365.648 635.761 365.431 636.782 365.049C637.803 364.669 638.644 364.125 639.425 363.472C640.206 362.818 640.747 362.001 641.228 361.13C641.708 360.26 641.889 359.281 641.889 358.246C641.889 357.211 641.647 356.232 641.228 355.361C640.807 354.491 640.147 353.728 639.425 353.076ZM635.401 359.769C634.92 360.151 634.379 360.369 633.779 360.369H599.72V356.232H633.779C634.379 356.232 634.92 356.45 635.401 356.831C635.881 357.267 636.121 357.702 636.121 358.3C636.121 358.844 635.881 359.335 635.401 359.769Z" fill="white"/>
<path d="M688.262 359.825C689.223 359.281 690.244 358.682 691.206 358.028C692.166 357.375 693.188 356.667 694.269 355.96C694.689 355.688 695.109 355.307 695.41 354.925C695.711 354.545 695.89 354.109 695.89 353.564C695.89 352.803 695.591 352.205 695.05 351.66C694.449 351.116 693.788 350.898 692.948 350.898C692.226 350.898 691.566 351.17 690.844 351.66C689.223 352.748 687.481 353.782 685.739 354.817C683.936 355.852 682.075 356.777 680.152 357.593C678.231 358.41 676.188 359.062 674.145 359.553C672.103 360.042 670.001 360.314 667.897 360.314H653.721V353.564C653.721 352.803 653.422 352.205 652.881 351.66C652.28 351.116 651.619 350.898 650.779 350.898C649.997 350.898 649.336 351.17 648.736 351.66C648.136 352.205 647.895 352.803 647.895 353.564V372.453C647.895 373.214 648.195 373.813 648.736 374.357C649.336 374.901 649.997 375.119 650.838 375.119C651.619 375.119 652.28 374.847 652.881 374.357C653.481 373.813 653.721 373.214 653.721 372.453V365.648H667.897C670.001 365.648 672.103 365.866 674.145 366.356C676.188 366.847 678.17 367.499 680.092 368.316C682.015 369.132 683.877 370.057 685.619 371.092C687.42 372.125 689.103 373.214 690.785 374.303C691.505 374.847 692.166 375.065 692.887 375.065C693.729 375.065 694.389 374.793 694.989 374.303C695.591 373.758 695.831 373.16 695.831 372.397C695.831 371.853 695.65 371.418 695.349 371.036C695.05 370.656 694.629 370.33 694.209 370.003C693.127 369.241 692.106 368.588 691.145 367.934C690.183 367.281 689.163 366.683 688.201 366.138C687.241 365.594 686.219 365.049 685.137 364.505C684.117 363.961 682.976 363.472 681.775 362.927C682.976 362.383 684.057 361.893 685.137 361.348C686.28 360.912 687.3 360.369 688.262 359.825Z" fill="white"/>
<path d="M708.505 356.831C708.865 356.559 709.286 356.395 709.887 356.395H748.511C749.352 356.395 750.013 356.122 750.613 355.634C751.214 355.089 751.454 354.491 751.454 353.728C751.454 352.966 751.154 352.367 750.613 351.823C750.013 351.278 749.352 351.062 748.511 351.062H709.586C708.686 351.062 707.785 351.224 706.883 351.605C705.982 351.933 705.201 352.421 704.48 353.075C703.76 353.728 703.219 354.491 702.739 355.361C702.257 356.232 702.078 357.267 702.078 358.354V362.818V363.362V367.826C702.078 368.914 702.318 369.949 702.739 370.82C703.158 371.69 703.76 372.453 704.48 373.106C705.201 373.758 705.982 374.249 706.883 374.575C707.785 374.901 708.686 375.119 709.586 375.119H748.511C749.352 375.119 750.013 374.847 750.613 374.357C751.214 373.813 751.454 373.214 751.454 372.453C751.454 371.69 751.154 371.092 750.613 370.548C750.013 370.003 749.352 369.785 748.511 369.785H709.887C709.286 369.785 708.865 369.621 708.505 369.349C708.145 369.078 707.964 368.75 707.964 368.37V365.866H747.13C747.97 365.866 748.631 365.594 749.232 365.104C749.832 364.559 750.074 363.961 750.074 363.2C750.074 363.144 750.074 363.144 750.074 363.09C750.074 363.036 750.074 363.036 750.074 362.982C750.074 362.219 749.773 361.621 749.232 361.076C748.631 360.532 747.97 360.314 747.13 360.314H707.964V357.81C707.964 357.429 708.145 357.103 708.505 356.831Z" fill="white"/>
<path d="M802.695 350.898H760.526C759.684 350.898 759.024 351.17 758.424 351.66C757.822 352.205 757.582 352.803 757.582 353.564C757.582 354.327 757.883 354.925 758.424 355.47C759.024 356.014 759.684 356.232 760.526 356.232H780.649C779.988 357.267 779.508 358.354 779.146 359.553C778.847 360.696 778.666 361.893 778.666 363.036V372.507C778.666 373.268 778.967 373.868 779.508 374.411C780.108 374.956 780.769 375.174 781.61 375.174C782.45 375.174 783.111 374.901 783.712 374.411C784.312 373.868 784.552 373.268 784.552 372.507V363.036C784.552 362.383 784.613 361.675 784.794 360.912C784.973 360.151 785.274 359.389 785.695 358.736C786.115 358.082 786.776 357.483 787.557 357.049C788.338 356.559 789.358 356.341 790.621 356.232H802.935C803.655 356.178 804.315 355.852 804.856 355.361C805.397 354.871 805.637 354.273 805.637 353.564C805.637 352.803 805.338 352.205 804.797 351.66C804.256 351.116 803.535 350.898 802.695 350.898Z" fill="white"/>
<path d="M853.573 350.898C852.972 350.898 852.431 350.952 851.89 351.116C851.351 351.278 850.81 351.442 850.39 351.715L822.277 367.281C821.496 367.717 820.836 367.989 820.354 368.262C819.813 368.478 819.453 368.642 819.093 368.642C818.492 368.642 818.073 368.316 817.951 367.608C817.772 366.901 817.711 365.866 817.711 364.559V353.564C817.711 352.803 817.412 352.205 816.871 351.66C816.27 351.116 815.609 350.898 814.767 350.898C813.927 350.898 813.267 351.17 812.665 351.66C812.065 352.205 811.825 352.803 811.825 353.564V369.731C811.825 371.254 812.366 372.507 813.507 373.54C814.647 374.575 816.03 375.119 817.711 375.119C818.313 375.119 818.853 375.065 819.394 374.901C819.935 374.739 820.474 374.575 820.895 374.303L849.007 358.736C849.788 358.354 850.449 358.028 850.93 357.756C851.41 357.539 851.831 357.375 852.191 357.375C852.793 357.375 853.212 357.702 853.333 358.41C853.513 359.117 853.573 360.151 853.573 361.457V372.397C853.573 373.16 853.874 373.758 854.413 374.303C855.015 374.847 855.676 375.065 856.517 375.065C857.357 375.065 858.018 374.793 858.619 374.303C859.219 373.758 859.459 373.16 859.459 372.397V356.286C859.459 354.763 858.919 353.51 857.778 352.477C856.637 351.388 855.255 350.898 853.573 350.898Z" fill="white"/>
<path d="M910.699 350.898C909.858 350.898 909.197 351.17 908.597 351.66C907.996 352.205 907.756 352.803 907.756 353.564V360.369H871.533V353.564C871.533 352.803 871.234 352.205 870.693 351.66C870.092 351.116 869.431 350.898 868.591 350.898C867.75 350.898 867.089 351.17 866.487 351.66C865.887 352.205 865.647 352.803 865.647 353.564V372.453C865.647 373.214 865.948 373.813 866.487 374.357C867.089 374.901 867.75 375.119 868.591 375.119C869.431 375.119 870.092 374.847 870.693 374.357C871.293 373.813 871.533 373.214 871.533 372.453V365.648H907.756V372.453C907.756 373.214 908.056 373.813 908.597 374.357C909.197 374.901 909.858 375.119 910.699 375.119C911.541 375.119 912.202 374.847 912.802 374.357C913.403 373.813 913.643 373.214 913.643 372.453V353.564C913.643 352.803 913.342 352.205 912.802 351.66C912.202 351.116 911.48 350.898 910.699 350.898Z" fill="white"/>
<path d="M966.863 351.66C966.263 351.116 965.603 350.898 964.761 350.898H928.12C926.977 350.898 925.896 351.116 924.875 351.497C923.855 351.877 922.952 352.421 922.232 353.076C921.452 353.728 920.85 354.545 920.429 355.416C919.949 356.286 919.769 357.267 919.769 358.3V372.453C919.769 373.214 920.069 373.813 920.61 374.357C921.212 374.901 921.872 375.119 922.712 375.119C923.493 375.119 924.154 374.847 924.755 374.357C925.355 373.813 925.656 373.214 925.656 372.453V358.3C925.656 357.756 925.896 357.267 926.377 356.831C926.857 356.45 927.398 356.232 927.998 356.232H964.822C965.662 356.232 966.323 355.96 966.924 355.47C967.524 354.925 967.764 354.327 967.764 353.564C967.705 352.803 967.404 352.205 966.863 351.66Z" fill="white"/>
<path d="M70.2603 255.173H150.508V320.561H70.2603V255.173Z" fill="#9335FF"/>
<path d="M68.8887 -6.38416H149.136V59.0049H68.8887V-6.38416Z" fill="#9335FF"/>
<path d="M-10.6724 189.783H69.5746V255.173H-10.6724V189.783Z" fill="#9335FF"/>
<path d="M229.382 59.0049V124.394H149.136V59.0049H229.382Z" fill="white"/>
<path d="M229.382 -6.38416H309.629V59.0049H229.382V-6.38416Z" fill="white"/>
<path d="M150.508 124.394V189.783H70.2603V124.394H150.508Z" fill="white"/>
<path d="M1132.48 554.454H1212.73V619.842H1132.48V554.454Z" fill="#9335FF"/>
<path d="M1050.86 227.508H1131.11V292.897H1050.86V227.508Z" fill="#9335FF"/>
<path d="M1131.11 292.897H1211.36V358.285H1131.11V292.897Z" fill="#9335FF"/>
<path d="M1050.86 554.454H970.618V619.842H1050.86V554.454Z" fill="#9335FF"/>
<path d="M970.618 619.842H890.37V685.231H970.618V619.842Z" fill="#9335FF"/>
<path d="M1051.55 489.064H1131.8V554.453H1051.55V489.064Z" fill="#9335FF"/>
<path d="M1212.73 423.675V489.064H1132.48V423.675H1212.73Z" fill="white"/>
</g>
</g>
<defs>
<clipPath id="clip0_2199_2">
<rect width="1200" height="627" fill="white"/>
</clipPath>
</defs>
</svg>
