<svg width="127" height="22" viewBox="0 0 127 22" fill="none" xmlns="http://www.w3.org/2000/svg">
<g clip-path="url(#clip0_56_777)">
<path d="M3.09685 13.9352V8.91233H4.34796C5.46816 8.91233 6.39038 9.03804 7.04817 9.42147C7.70597 9.80176 8.10325 10.4398 8.10325 11.4549C8.10325 13.1709 7.04817 13.9352 4.5466 13.9352H3.09685ZM0.0651282 16.349H4.47822C9.41949 16.349 11.2001 14.2495 11.2001 11.326C11.2001 9.35484 10.3437 8.01976 8.82943 7.25542C7.6441 6.62056 6.12922 6.42885 4.28283 6.42885H3.0975V2.61342H9.75099L10.5423 0.258789H0V16.3464H0.0651282V16.349ZM13.2425 16.349H16.1407L19.896 11.1343C20.6222 10.1814 21.1471 9.22662 21.4786 8.71747H21.5438C21.4786 9.41833 21.4135 10.3078 21.4135 11.1972V16.2836H24.3775V4.8417H21.4793L17.724 10.0563C17.0662 11.0092 16.4729 11.964 16.1414 12.4732H16.0762C16.1414 11.773 16.2065 10.8829 16.2065 9.99347V4.90707H13.2425V16.3552V16.3502V16.349ZM29.4516 16.349H32.4833V7.25605H36.04L36.8313 4.83982H25.8272V7.25667H29.4516V16.3502V16.349ZM40.8504 22.1356V16.349C41.443 16.5407 42.0357 16.6035 42.6935 16.6035C46.4494 16.6035 48.8885 14.1238 48.8885 10.5623C48.8885 7.00085 46.6481 4.52113 42.3652 4.52113C40.7175 4.52113 39.1375 4.83856 37.8186 5.22136L37.8838 22.1362L40.8504 22.1356ZM40.8504 13.8692V7.13033C41.3128 7.00462 41.7068 6.93862 42.2343 6.93862C44.4096 6.93862 45.791 8.08262 45.791 10.563C45.791 12.7881 44.6708 14.1873 42.4304 14.1873C41.8377 14.1873 41.3753 14.0616 40.8478 13.8692H40.8504ZM50.6665 16.349H53.5653L57.3206 11.1343C58.0468 10.1814 58.5711 9.22662 58.9032 8.71747H58.9684C58.9032 9.41833 58.8381 10.3078 58.8381 11.1972V16.2836H61.8015V4.8417H58.9032L55.148 10.0563C54.4902 11.0092 53.8975 11.964 53.5653 12.4732H53.5002C53.5653 11.773 53.6305 10.8829 53.6305 9.99347V4.90707H50.6671V16.3552V16.3502L50.6665 16.349ZM64.1754 16.349H67.2077V11.5806H68.9857C69.3153 11.5806 69.6442 11.898 70.0408 12.6618L71.5557 16.349H74.7835L72.6082 11.9615C72.2135 11.1972 71.8169 10.754 71.2235 10.5623V10.4995C72.2109 9.92747 72.3444 8.27433 72.9371 7.44713C73.1357 7.19256 73.3995 7.06622 73.7935 7.06622C73.9921 7.06622 74.2559 7.06622 74.4513 7.19193V4.71347C74.1224 4.58776 73.5297 4.52239 73.2008 4.52239C72.1458 4.52239 71.4873 4.90267 71.0256 5.54067C70.0382 6.93925 70.0382 9.3561 68.5865 9.3561H67.2019V4.8417H64.1702V16.3521L64.1754 16.349ZM81.5027 16.6035C83.1505 16.6035 84.6647 16.0944 85.5869 15.4595L84.7298 13.4883C83.8734 13.9346 83.0821 14.252 81.9619 14.252C79.9201 14.252 78.6013 12.9792 78.6013 10.6277C78.6013 8.52827 79.9201 6.87513 82.1579 6.87513C83.3433 6.87513 84.1997 7.19256 85.0561 7.76456V5.2861C84.3983 4.90519 83.3433 4.52239 81.829 4.52239C78.2717 4.52239 75.5038 7.06496 75.5038 10.6893C75.5038 13.9956 77.6113 16.6023 81.4995 16.6023L81.5027 16.6048V16.6035Z" fill="#0BBBEF"/>
<path d="M120.542 12.4634C116.985 12.4634 114.151 9.72847 114.084 6.23047C114.084 2.79722 116.983 -0.00244141 120.542 -0.00244141C124.101 -0.00244141 127 2.7947 127 6.23047C127 9.66562 124.101 12.4634 120.542 12.4634ZM120.542 1.51996C117.858 1.51996 115.661 3.64013 115.661 6.23047C115.721 8.88053 117.858 10.941 120.542 10.941C123.226 10.941 125.423 8.82019 125.423 6.23047C125.423 3.64013 123.226 1.51996 120.542 1.51996Z" fill="#005893"/>
<path d="M119.723 3.0415H120.982V7.14042H119.723V3.0415Z" fill="#005893"/>
<path d="M123.974 5.9255V7.14053H119.727V5.9255H123.974ZM87.3024 16.3497H98.8998V13.87H91.2564C92.3114 9.79939 98.7669 8.90996 98.7669 4.39556C98.7669 1.9787 97.0534 0.199219 93.429 0.199219C91.188 0.199219 89.2113 0.834076 87.8951 1.47208L88.6864 3.76008C89.8724 3.18808 91.2564 2.67893 92.9692 2.67893C94.2881 2.67893 95.5392 3.25093 95.5392 4.71299C95.5392 8.0199 87.9602 8.27448 87.3024 16.3497ZM106.672 12.408V16.3497H109.636V12.408H112.14V9.9911H109.636V0.199219H107.46L99.2235 10.5002V12.408H106.672ZM102.587 10.12L106.804 4.65013C106.804 5.09642 106.674 6.49499 106.674 7.76533V10.0533H104.697C104.104 10.0533 102.984 10.1168 102.59 10.1168L102.587 10.12Z" fill="#005893"/>
</g>
<defs>
<clipPath id="clip0_56_777">
<rect width="127" height="22" fill="white"/>
</clipPath>
</defs>
</svg>
