<svg width="128" height="22" viewBox="0 0 128 22" fill="none" xmlns="http://www.w3.org/2000/svg">
<path fill-rule="evenodd" clip-rule="evenodd" d="M29.7794 5.42773H31.9421L35.2857 14.6492H35.6232L39.0793 5.42773H41.2113L36.8962 16.6162H33.9616L29.7794 5.42773ZM49.6472 16.6162L45.2145 11.8218H44.7033V16.6162H42.7144V5.42773H44.7084V9.98044H45.2196L49.412 5.42773H51.8968L46.8607 10.8214L52.3006 16.6211L49.6472 16.6162ZM59.0237 16.6162V12.9818H61.2273C63.6813 12.9818 65.5065 11.4207 65.5065 9.20238C65.5065 6.98398 63.6813 5.42773 61.2273 5.42773H57.0297V16.6162H59.0237ZM63.2739 8.38011C63.3831 8.63481 63.4349 8.9083 63.4257 9.18303C63.4356 9.45813 63.3845 9.73212 63.2755 9.98741C63.1666 10.2427 63.0023 10.4736 62.7933 10.6653C62.5844 10.857 62.3352 11.0051 62.0619 11.1002C61.7887 11.1954 61.4974 11.2355 61.2068 11.2178H59.0237V7.15313H61.2068C61.4969 7.13548 61.7878 7.17537 62.0607 7.27023C62.3336 7.36507 62.5824 7.51281 62.7914 7.70395C63.0004 7.89508 63.1646 8.12539 63.2739 8.38011ZM75.3126 12.9818H68.2777C68.3413 13.5899 68.6515 14.1511 69.1434 14.5476C69.6352 14.944 70.2705 15.145 70.9157 15.1083C71.3486 15.1279 71.78 15.047 72.1721 14.8726C72.5643 14.6982 72.9052 14.4356 73.1653 14.1079L74.9752 14.393C74.3207 15.9638 72.608 16.7757 70.7981 16.7757C70.1962 16.7982 69.596 16.7026 69.035 16.4951C68.474 16.2877 67.9646 15.9727 67.5386 15.57C67.1128 15.1674 66.7796 14.6858 66.56 14.1555C66.3406 13.6253 66.2394 13.0578 66.2632 12.4888C66.2881 11.3757 66.7701 10.3154 67.6072 9.53228C68.4442 8.74913 69.5708 8.30456 70.7485 8.29263C71.9262 8.28069 73.0626 8.70234 73.9173 9.46839C74.7719 10.2344 75.2778 11.2847 75.3279 12.397C75.343 12.6095 75.3286 12.7852 75.3137 12.969L75.3126 12.9818ZM68.4105 11.556H73.2471C73.108 11.0511 72.7956 10.604 72.3589 10.2848C71.9223 9.9655 71.3859 9.79225 70.834 9.79198C70.2779 9.78153 69.7348 9.95056 69.2942 10.2713C68.8537 10.592 68.5419 11.0452 68.4105 11.556ZM78.7687 13.3298H79.2391L82.2402 16.6162H84.7965L80.7832 12.3293L84.4591 8.3614H82.1584L79.2391 11.5705H78.7687V8.3614H76.8362V16.6162H78.7687V13.3298ZM94.0248 8.36139V16.6162H92.0922V10.0288H89.4235L89.2394 13.5037C89.1219 15.5385 88.0635 16.6936 86.3201 16.6936C86.0622 16.6915 85.8045 16.6769 85.5481 16.65L85.359 14.9005H86.085C86.9388 14.9005 87.2557 14.5187 87.3273 13.5182L87.6443 8.34206L94.0248 8.36139ZM103.299 16.6162V11.9813C103.299 9.58417 101.919 8.2164 99.6897 8.17773C97.9918 8.17773 96.4993 8.98002 96.0597 10.43L97.8386 10.7151C98.0063 10.4164 98.2594 10.1679 98.5678 9.99713C98.8771 9.82644 99.2301 9.74037 99.5869 9.74843C100.646 9.74843 101.265 10.4638 101.351 11.5464H99.4696C96.9033 11.5464 95.6251 12.5951 95.6251 14.132C95.6251 15.6689 96.8828 16.7661 98.6618 16.7661C99.2223 16.7754 99.776 16.6466 100.269 16.3924C100.76 16.1382 101.174 15.7673 101.469 15.3162L101.873 16.6162H103.299ZM99.5365 12.9818H101.366C101.366 14.3302 100.487 15.234 99.1069 15.234C98.176 15.234 97.5729 14.7749 97.5729 14.0595C97.5729 13.4264 98.0587 12.9818 99.5365 12.9818ZM105.344 8.3614H108.35L110.365 14.0161H110.636L112.757 8.3614H115.697V16.6162H113.851V10.4928H113.581L111.275 16.6162H109.644L107.461 10.4928H107.195V16.6162H105.344V8.3614ZM124.946 16.6162V11.9813C124.946 9.58417 123.566 8.2164 121.321 8.17773C119.624 8.17773 118.131 8.98002 117.691 10.43L119.471 10.7151C119.638 10.4164 119.89 10.1679 120.2 9.99713C120.508 9.82644 120.861 9.74037 121.219 9.74843C122.277 9.74843 122.896 10.4638 122.983 11.5464H121.097C118.53 11.5464 117.252 12.5951 117.252 14.132C117.252 15.6689 118.51 16.7661 120.288 16.7661C120.849 16.7754 121.403 16.6466 121.895 16.3924C122.387 16.1382 122.801 15.7673 123.095 15.3162L123.494 16.6162H124.946ZM121.183 12.9818H123.014C123.014 14.3302 122.108 15.234 120.753 15.234C119.824 15.234 119.22 14.7749 119.22 14.0595C119.22 13.4264 119.705 12.9818 121.183 12.9818Z" fill="white"/>
<path d="M0 10.4587C0 5.52899 0 3.05931 1.62222 1.53207C3.23931 0 5.8543 0 11.074 0H12.2203C17.4401 0 20.0499 0 21.6721 1.53207C23.2943 3.06415 23.2943 5.52899 23.2943 10.4587V11.5413C23.2943 16.471 23.2943 18.9359 21.6721 20.4679C20.0499 22 17.4401 22 12.2203 22H11.074C5.8543 22 3.24443 22 1.62222 20.4679C0 18.9359 0 16.471 0 11.5413V10.4587Z" fill="#0077FF"/>
<path d="M11.6024 18.1349C15.7993 18.1349 19.2017 14.9216 19.2017 10.9578C19.2017 6.99404 15.7993 3.78076 11.6024 3.78076C7.4054 3.78076 4.00305 6.99404 4.00305 10.9578C4.00305 14.9216 7.4054 18.1349 11.6024 18.1349Z" fill="#00D9ED"/>
<path fill-rule="evenodd" clip-rule="evenodd" d="M18.6776 2.90649V4.2839H20.1156C20.9344 4.2839 21.354 5.21185 20.7859 5.76765L18.8158 7.71053C18.6417 7.88451 18.3961 7.98118 18.1454 7.98118H16.2826L14.3534 9.94337C14.4915 10.2575 14.5735 10.6056 14.5735 10.968C14.5735 12.4228 13.3248 13.602 11.7844 13.602C10.2442 13.602 8.99548 12.4228 8.99548 10.968C8.99548 9.51327 10.2442 8.33399 11.7844 8.33399C12.0455 8.33399 12.3014 8.36783 12.5418 8.43066L14.7577 6.17846V4.73338C14.7577 4.49173 14.8651 4.25974 15.0494 4.09542L17.1066 2.2637C17.7002 1.7369 18.6725 2.1332 18.6725 2.90166L18.6776 2.90649Z" fill="white"/>
</svg>
