<svg width="311" height="159" viewBox="0 0 311 159" fill="none" xmlns="http://www.w3.org/2000/svg">
    <path
        d="M310.5 0.5V158.5H0.5V0.5H310.5ZM3.41797 157.5H307.582L155.5 91.7852L3.41797 157.5ZM1.5 157.239L154.239 91.2412L1.5 25.2422V157.239ZM156.76 91.2412L309.5 157.239V25.2422L156.76 91.2412ZM155.5 90.6963L307.582 24.9824H3.41797L155.5 90.6963ZM1.5 23.9824H309.5V1.5H1.5V23.9824ZM12.084 8.55176C14.3998 8.55191 16.2782 10.4267 16.2783 12.7412C16.2783 15.0558 14.3999 16.9315 12.084 16.9316C9.76795 16.9316 7.88867 15.0559 7.88867 12.7412C7.8888 10.4266 9.76803 8.55176 12.084 8.55176ZM23.5029 8.55176C25.8189 8.55176 27.6981 10.4266 27.6982 12.7412C27.6982 15.0559 25.819 16.9316 23.5029 16.9316C21.187 16.9315 19.3086 15.0558 19.3086 12.7412C19.3087 10.4267 21.1871 8.55194 23.5029 8.55176ZM34.9229 8.55176C37.2388 8.55177 39.1171 10.4266 39.1172 12.7412C39.1172 15.0559 37.2389 16.9316 34.9229 16.9316C32.6068 16.9316 30.7285 15.0559 30.7285 12.7412C30.7286 10.4266 32.6069 8.55176 34.9229 8.55176Z"
        fill="#FFFFFF" stroke="#FFFFFF" />
</svg>
    