<svg width="200" height="200" viewBox="0 0 200 200" fill="none" xmlns="http://www.w3.org/2000/svg">
<path d="M142.702 111.791C148.542 125.207 152.677 137.848 154.919 148.805C156.815 158.072 157.353 166.105 156.446 172.371C155.537 178.643 153.196 183.056 149.42 185.236C145.643 187.417 140.651 187.238 134.765 184.888C128.885 182.542 122.196 178.059 115.119 171.784C106.751 164.363 97.8702 154.462 89.1715 142.696C98.1295 138.745 107.413 134.049 116.753 128.656C126.093 123.264 134.801 117.573 142.702 111.791ZM57.9227 153.82C67.2377 151.397 77.495 147.796 88.2334 143.111C97.0103 155.004 105.986 165.021 114.456 172.532C121.579 178.848 128.366 183.411 134.394 185.817C138.004 187.258 141.373 187.936 144.387 187.731C129.631 193.922 111.989 191.984 94.6995 183.435C81.7525 177.034 69.0297 166.936 57.9227 153.82ZM167.959 90.29C173.765 106.467 176.149 122.534 175.22 136.947C173.978 156.194 166.835 172.443 154.095 182.126C155.78 179.618 156.878 176.362 157.435 172.514C158.365 166.091 157.807 157.932 155.899 148.605C153.629 137.515 149.441 124.733 143.53 111.185C152.957 104.228 161.204 97.1458 167.959 90.29ZM16.8556 153.369C19.4177 155.228 22.8295 156.425 26.905 157.016C33.3283 157.946 41.4874 157.388 50.8146 155.479C52.7742 155.078 54.7861 154.614 56.8462 154.094C68.1075 167.486 81.0532 177.803 94.2563 184.332C109.166 191.704 124.439 194.256 137.98 190.903C94.2582 209.173 42.9917 193.744 16.8556 153.369ZM188.103 54.4996C210 97.3218 197.73 149.434 160.046 178.163C169.721 168.113 175.147 153.61 176.218 137.011C177.165 122.313 174.702 105.943 168.735 89.4949C170.216 87.9704 171.624 86.4601 172.951 84.9633C179.268 77.8401 183.831 71.0532 186.237 65.0254C187.763 61.2009 188.432 57.6479 188.103 54.4996ZM42.0404 132.916C46.293 140.282 51.0362 147.08 56.1357 153.242C54.2525 153.711 52.4111 154.132 50.6145 154.5C41.3474 156.396 33.3141 156.933 27.0486 156.026C20.776 155.118 16.3633 152.776 14.183 149C12.0028 145.224 12.1815 140.231 14.5311 134.345C16.8779 128.465 21.3602 121.777 27.636 114.7C28.8527 113.327 30.1374 111.943 31.4849 110.546C34.2718 118.044 37.7877 125.551 42.0404 132.916ZM39.7919 20.8364C30.1172 30.8864 24.6921 45.3901 23.6216 61.9886C22.6736 76.6867 25.1355 93.0564 31.1026 109.505C29.6224 111.029 28.215 112.54 26.8878 114.037C20.5713 121.16 16.0082 127.947 13.6023 133.975C12.0759 137.799 11.4062 141.352 11.7349 144.5C-10.162 101.678 2.10856 49.5651 39.7919 20.8364ZM61.8578 8.09663C105.579 -10.1743 156.846 5.25589 182.982 45.6304C180.42 43.7718 177.009 42.5746 172.934 41.9843C166.511 41.054 158.352 41.6123 149.024 43.521C147.065 43.9221 145.052 44.3858 142.992 44.9056C131.73 31.5139 118.786 21.1964 105.583 14.6683C90.6723 7.29603 75.399 4.74279 61.8578 8.09663ZM45.7428 16.874C44.0579 19.382 42.9611 22.6384 42.4039 26.4855C41.4736 32.9087 42.0319 41.0678 43.9405 50.395C46.2099 61.485 50.3967 74.2669 56.3081 87.8143C46.881 94.7712 38.6337 101.854 31.8782 108.71C26.0731 92.5328 23.6899 76.466 24.6195 62.053C25.8609 42.806 33.0034 26.557 45.7428 16.874ZM55.4509 11.2691C70.2064 5.07748 87.8501 7.01611 105.14 15.5647C118.086 21.9662 130.808 32.0641 141.915 45.1798C132.6 47.6023 122.343 51.2034 111.604 55.889C102.828 43.996 93.8524 33.9786 85.3829 26.4683C78.2596 20.1517 71.4728 15.5887 65.4449 13.1827C61.8343 11.7416 58.4655 11.0637 55.4509 11.2691ZM50.4195 13.7635C54.1958 11.5832 59.188 11.762 65.0745 14.1115C70.9543 16.4584 77.6426 20.9406 84.7199 27.2164C93.0876 34.6365 101.968 44.5378 110.666 56.3032C101.709 60.2543 92.4259 64.9512 83.086 70.3435C73.7459 75.736 65.0367 81.4268 57.1359 87.209C51.2959 73.7931 47.1621 61.1517 44.9199 50.1949C43.0236 40.9279 42.486 32.8945 43.3934 26.6291C44.3019 20.3565 46.6432 15.9437 50.4195 13.7635ZM42.9065 132.416C38.5962 124.951 35.0504 117.343 32.258 109.752C38.9908 102.876 47.2515 95.7544 56.7223 88.7524C60.6735 97.7104 65.3705 106.993 70.7631 116.333C76.1554 125.673 81.846 134.382 87.6281 142.283C76.8287 146.984 66.5307 150.577 57.2097 152.97C52.0322 146.756 47.2166 139.882 42.9065 132.416ZM71.6291 115.833C66.2114 106.45 61.5006 97.1298 57.5474 88.1464C65.4626 82.3432 74.2024 76.6272 83.586 71.2095C92.9694 65.792 102.289 61.0814 111.272 57.1283C117.076 65.0436 122.792 73.7828 128.21 83.1665C133.627 92.5499 138.337 101.87 142.29 110.853C134.375 116.656 125.636 122.373 116.253 127.79C106.869 133.208 97.5489 137.918 88.5655 141.871C82.7624 133.956 77.0466 125.217 71.6291 115.833ZM129.076 82.6665C123.683 73.3263 117.992 64.6176 112.21 56.7168C123.009 52.0158 133.307 48.4229 142.628 46.0299C147.806 52.2436 152.622 59.1177 156.933 66.5835C161.243 74.0489 164.787 81.6569 167.58 89.2475C160.847 96.1233 152.586 103.245 143.115 110.247C139.164 101.289 134.468 92.0063 129.076 82.6665ZM157.799 66.0835C153.546 58.7175 148.802 51.9197 143.702 45.7572C145.586 45.2886 147.428 44.8681 149.225 44.5004C158.492 42.604 166.525 42.0665 172.79 42.9739C179.063 43.8824 183.476 46.2237 185.656 50C187.836 53.7763 187.658 58.7685 185.308 64.655C182.961 70.5347 178.479 77.223 172.203 84.3003C170.986 85.6727 169.7 87.0569 168.353 88.4538C165.566 80.9563 162.051 73.4492 157.799 66.0835Z" stroke="#9335FF"/>
</svg>
