<svg xmlns="http://www.w3.org/2000/svg" version="1.1" xmlns:xlink="http://www.w3.org/1999/xlink" xmlns:svgjs="http://svgjs.dev/svgjs" width="1000" height="1000"><style>
    #light-icon {
      display: inline;
    }
    #dark-icon {
      display: none;
    }

    @media (prefers-color-scheme: dark) {
      #light-icon {
        display: none;
      }
      #dark-icon {
        display: inline;
      }
    }
  </style><g id="light-icon"><svg xmlns="http://www.w3.org/2000/svg" version="1.1" xmlns:xlink="http://www.w3.org/1999/xlink" xmlns:svgjs="http://svgjs.dev/svgjs" width="1000" height="1000"><g clip-path="url(#SvgjsClipPath1129)"><rect width="1000" height="1000" fill="#0f141e"></rect><g transform="matrix(10.76923076923077,0,0,10.76923076923077,150,150)"><svg xmlns="http://www.w3.org/2000/svg" version="1.1" xmlns:xlink="http://www.w3.org/1999/xlink" xmlns:svgjs="http://svgjs.dev/svgjs" width="65" height="65"><svg width="65" height="65" viewBox="0 0 65 65" fill="none" xmlns="http://www.w3.org/2000/svg">
<path opacity="0.55" d="M52.5501 49.0307L40.3251 61.1402C36.0751 65.35 29.1251 65.35 24.8751 61.1402L18.0376 54.3673C17.4626 53.0053 16.9251 51.5938 16.4376 50.1575C21.4626 52.5595 27.2501 53.9339 33.4251 53.9339C40.4876 53.9215 47.0626 52.1262 52.5501 49.0307Z" fill="white"></path>
<path opacity="0.57" d="M5.66257 42.1093L8.66257 45.0809C7.58757 44.1399 6.58757 43.1493 5.66257 42.1093Z" fill="white"></path>
<path opacity="0.57" d="M52.5501 49.0307L40.3251 61.1402C36.0751 65.35 29.1251 65.35 24.8751 61.1402L18.0376 54.3673C17.4626 53.0053 16.9251 51.5938 16.4376 50.1575C21.4626 52.5595 27.2501 53.9339 33.4251 53.9339C40.4876 53.9215 47.0626 52.1262 52.5501 49.0307Z" fill="white"></path>
<path d="M52.5501 49.0307L40.3251 61.1402C36.0751 65.35 29.1251 65.35 24.8751 61.1402L18.0376 54.3673C17.4626 53.0053 16.9251 51.5938 16.4376 50.1575C21.4626 52.5595 27.2501 53.9339 33.4251 53.9339C40.4876 53.9215 47.0626 52.1262 52.5501 49.0307Z" fill="white"></path>
<path d="M63.1501 38.0356C57.0876 28.5759 44.9001 22.1126 30.8626 22.1126C24.3626 22.1126 18.2626 23.4993 12.9751 25.9262C8.18756 28.1178 4.07506 31.1637 0.962564 34.8163C0.875064 34.6182 0.787564 34.4201 0.712564 34.222C0.200064 30.9284 1.22506 27.4368 3.77506 24.9233L15.2376 13.5691L24.8876 4.01031C29.1376 -0.199517 36.0876 -0.199517 40.3376 4.01031L61.4626 24.9233C65.0251 28.4521 65.5876 33.8877 63.1501 38.0356Z" fill="white"></path>
<path d="M18.0376 54.3549L8.66257 45.0685L6.83757 43.2608C5.06257 41.5025 3.51257 39.5338 2.26257 37.3794C1.77507 36.5498 1.35007 35.6955 0.96257 34.8163C4.08757 31.1637 8.20007 28.1178 12.9751 25.9138C12.6126 32.1419 13.2751 38.89 15.1001 45.7124C15.5001 47.223 15.9501 48.6964 16.4376 50.1451C16.9251 51.5938 17.4626 52.9929 18.0376 54.3549Z" fill="white"></path>
<path opacity="0.38" d="M5.66257 42.1093L8.66257 45.0809C7.58757 44.1399 6.58757 43.1493 5.66257 42.1093Z" fill="white"></path>
<path d="M43.8501 46.4305H25.8876V34.2715H43.8501C46.7251 34.2715 49.0626 36.9955 49.0626 40.351C49.0626 43.7065 46.7251 46.4305 43.8501 46.4305ZM27.4251 44.9075H43.8501C45.8751 44.9075 47.5251 42.8645 47.5251 40.351C47.5251 37.8375 45.8751 35.7945 43.8501 35.7945H27.4251V44.9075Z" fill="white"></path>
<path d="M21.8751 46.5667C21.4501 46.5667 21.1126 46.22 21.1126 45.8114V34.9278C21.1126 34.5068 21.4626 34.1725 21.8751 34.1725C22.3001 34.1725 22.6376 34.5192 22.6376 34.9278V45.8114C22.6501 46.22 22.3001 46.5667 21.8751 46.5667Z" fill="white"></path>
<path d="M21.8751 32.9838C22.4273 32.9838 22.8751 32.5404 22.8751 31.9933C22.8751 31.4462 22.4273 31.0027 21.8751 31.0027C21.3228 31.0027 20.8751 31.4462 20.8751 31.9933C20.8751 32.5404 21.3228 32.9838 21.8751 32.9838Z" fill="white"></path>
</svg></svg></g></g><defs><clipPath id="SvgjsClipPath1129"><rect width="1000" height="1000" x="0" y="0" rx="350" ry="350"></rect></clipPath></defs></svg></g><g id="dark-icon"><svg xmlns="http://www.w3.org/2000/svg" version="1.1" xmlns:xlink="http://www.w3.org/1999/xlink" xmlns:svgjs="http://svgjs.dev/svgjs" width="1000" height="1000"><g clip-path="url(#SvgjsClipPath1130)"><rect width="1000" height="1000" fill="#0f141e"></rect><g transform="matrix(10.76923076923077,0,0,10.76923076923077,150,150)"><svg xmlns="http://www.w3.org/2000/svg" version="1.1" xmlns:xlink="http://www.w3.org/1999/xlink" xmlns:svgjs="http://svgjs.dev/svgjs" width="65" height="65"><svg width="65" height="65" viewBox="0 0 65 65" fill="none" xmlns="http://www.w3.org/2000/svg">
<path opacity="0.55" d="M52.5501 49.0307L40.3251 61.1402C36.0751 65.35 29.1251 65.35 24.8751 61.1402L18.0376 54.3673C17.4626 53.0053 16.9251 51.5938 16.4376 50.1575C21.4626 52.5595 27.2501 53.9339 33.4251 53.9339C40.4876 53.9215 47.0626 52.1262 52.5501 49.0307Z" fill="white"></path>
<path opacity="0.57" d="M5.66257 42.1093L8.66257 45.0809C7.58757 44.1399 6.58757 43.1493 5.66257 42.1093Z" fill="white"></path>
<path opacity="0.57" d="M52.5501 49.0307L40.3251 61.1402C36.0751 65.35 29.1251 65.35 24.8751 61.1402L18.0376 54.3673C17.4626 53.0053 16.9251 51.5938 16.4376 50.1575C21.4626 52.5595 27.2501 53.9339 33.4251 53.9339C40.4876 53.9215 47.0626 52.1262 52.5501 49.0307Z" fill="white"></path>
<path d="M52.5501 49.0307L40.3251 61.1402C36.0751 65.35 29.1251 65.35 24.8751 61.1402L18.0376 54.3673C17.4626 53.0053 16.9251 51.5938 16.4376 50.1575C21.4626 52.5595 27.2501 53.9339 33.4251 53.9339C40.4876 53.9215 47.0626 52.1262 52.5501 49.0307Z" fill="white"></path>
<path d="M63.1501 38.0356C57.0876 28.5759 44.9001 22.1126 30.8626 22.1126C24.3626 22.1126 18.2626 23.4993 12.9751 25.9262C8.18756 28.1178 4.07506 31.1637 0.962564 34.8163C0.875064 34.6182 0.787564 34.4201 0.712564 34.222C0.200064 30.9284 1.22506 27.4368 3.77506 24.9233L15.2376 13.5691L24.8876 4.01031C29.1376 -0.199517 36.0876 -0.199517 40.3376 4.01031L61.4626 24.9233C65.0251 28.4521 65.5876 33.8877 63.1501 38.0356Z" fill="white"></path>
<path d="M18.0376 54.3549L8.66257 45.0685L6.83757 43.2608C5.06257 41.5025 3.51257 39.5338 2.26257 37.3794C1.77507 36.5498 1.35007 35.6955 0.96257 34.8163C4.08757 31.1637 8.20007 28.1178 12.9751 25.9138C12.6126 32.1419 13.2751 38.89 15.1001 45.7124C15.5001 47.223 15.9501 48.6964 16.4376 50.1451C16.9251 51.5938 17.4626 52.9929 18.0376 54.3549Z" fill="white"></path>
<path opacity="0.38" d="M5.66257 42.1093L8.66257 45.0809C7.58757 44.1399 6.58757 43.1493 5.66257 42.1093Z" fill="white"></path>
<path d="M43.8501 46.4305H25.8876V34.2715H43.8501C46.7251 34.2715 49.0626 36.9955 49.0626 40.351C49.0626 43.7065 46.7251 46.4305 43.8501 46.4305ZM27.4251 44.9075H43.8501C45.8751 44.9075 47.5251 42.8645 47.5251 40.351C47.5251 37.8375 45.8751 35.7945 43.8501 35.7945H27.4251V44.9075Z" fill="white"></path>
<path d="M21.8751 46.5667C21.4501 46.5667 21.1126 46.22 21.1126 45.8114V34.9278C21.1126 34.5068 21.4626 34.1725 21.8751 34.1725C22.3001 34.1725 22.6376 34.5192 22.6376 34.9278V45.8114C22.6501 46.22 22.3001 46.5667 21.8751 46.5667Z" fill="white"></path>
<path d="M21.8751 32.9838C22.4273 32.9838 22.8751 32.5404 22.8751 31.9933C22.8751 31.4462 22.4273 31.0027 21.8751 31.0027C21.3228 31.0027 20.8751 31.4462 20.8751 31.9933C20.8751 32.5404 21.3228 32.9838 21.8751 32.9838Z" fill="white"></path>
</svg></svg></g></g><defs><clipPath id="SvgjsClipPath1130"><rect width="1000" height="1000" x="0" y="0" rx="350" ry="350"></rect></clipPath></defs></svg></g></svg>