<svg width="32" height="32" viewBox="0 0 32 32" fill="none" xmlns="http://www.w3.org/2000/svg">
<path d="M5.87245 18.1465C4.68689 17.5264 4 16.7899 4 16C4 13.7908 9.37259 12 16 12C22.6275 12 28 13.7908 28 16C28 16.9525 27.0011 17.8273 25.3333 18.5144" stroke="white" stroke-width="1.5" stroke-linecap="round" stroke-linejoin="round"/>
<path d="M16 14.6798L16.0133 14.665" stroke="white" stroke-width="1.5" stroke-linecap="round" stroke-linejoin="round"/>
<path d="M22.5102 7.9999C22.504 6.63592 22.1598 5.67068 21.4474 5.30768C19.479 4.30475 15.4442 8.27872 12.4355 14.1838C9.42671 20.0888 8.58327 25.689 10.5516 26.6919C11.2549 27.0502 12.2219 26.7732 13.3116 25.9999" stroke="white" stroke-width="1.5" stroke-linecap="round" stroke-linejoin="round"/>
<path d="M12.8012 5.66872C11.9207 5.15425 11.1429 5.00639 10.5516 5.30768C8.58321 6.31061 9.42664 11.9107 12.4354 17.8157C15.4443 23.7208 19.4789 27.6948 21.4473 26.6919C23.1969 25.8004 22.7251 21.2768 20.4855 16.1353" stroke="white" stroke-width="1.5" stroke-linecap="round" stroke-linejoin="round"/>
</svg>
