<svg width="32" height="32" viewBox="0 0 32 32" fill="none" xmlns="http://www.w3.org/2000/svg">
<path d="M7.66675 23C11.3487 23 14.3335 20.0151 14.3335 16.3333C14.3335 12.6513 11.3487 9.6665 7.66675 9.6665C3.9848 9.6665 1 12.6513 1 16.3333C1 20.0151 3.9848 23 7.66675 23Z" fill="#C491FF"/>
<path d="M20.9994 23C22.8404 23 24.3328 20.0151 24.3328 16.3333C24.3328 12.6513 22.8404 9.6665 20.9994 9.6665C19.1584 9.6665 17.666 12.6513 17.666 16.3333C17.666 20.0151 19.1584 23 20.9994 23Z" fill="#C491FF"/>
<path d="M29.3327 23C30.2532 23 30.9994 20.0151 30.9994 16.3333C30.9994 12.6513 30.2532 9.6665 29.3327 9.6665C28.4122 9.6665 27.666 12.6513 27.666 16.3333C27.666 20.0151 28.4122 23 29.3327 23Z" fill="#C491FF"/>
</svg>
