<svg width="32" height="32" viewBox="0 0 32 32" fill="none" xmlns="http://www.w3.org/2000/svg">
<path fill-rule="evenodd" clip-rule="evenodd" d="M5 16.8545V21.216C5 22.6317 5.81508 23.921 7.09403 24.5282L13.7607 27.6936C14.7559 28.166 15.9108 28.166 16.906 27.6936L23.5727 24.5282C24.8516 23.921 25.6667 22.6317 25.6667 21.216V16.8546L17.0328 21.1716C15.9631 21.7064 14.7039 21.7064 13.634 21.1716L5 16.8545Z" fill="#C491FF"/>
<path fill-rule="evenodd" clip-rule="evenodd" d="M14.5284 4.61825C15.0352 4.36488 15.6316 4.36488 16.1384 4.61825L27.6829 10.3905C29.0096 11.0538 29.0096 12.9471 27.6829 13.6104L16.1384 19.3826C15.6316 19.6361 15.0352 19.6361 14.5284 19.3826L2.98395 13.6104C1.65727 12.9471 1.65726 11.0538 2.98395 10.3905L14.5284 4.61825Z" fill="#C491FF"/>
<path fill-rule="evenodd" clip-rule="evenodd" d="M26.4389 10.8865C26.686 10.3925 27.2867 10.1923 27.7807 10.4393L30.4473 11.7726C30.786 11.942 31 12.2883 31 12.667V17.3338C31 17.886 30.5524 18.3338 30 18.3338C29.4477 18.3338 29 17.886 29 17.3338V13.2851L26.8861 12.2281C26.3921 11.9812 26.192 11.3805 26.4389 10.8865Z" fill="#C491FF"/>
</svg>
