<svg width="32" height="32" viewBox="0 0 32 32" fill="none" xmlns="http://www.w3.org/2000/svg">
<path d="M16.0003 16.0002C18.9458 16.0002 21.3337 13.6123 21.3337 10.6668C21.3337 7.72131 18.9458 5.3335 16.0003 5.3335C13.0548 5.3335 10.667 7.72131 10.667 10.6668C10.667 13.6123 13.0548 16.0002 16.0003 16.0002Z" fill="#C491FF"/>
<path d="M6.66699 26.6667V25.3333C6.66699 20.1787 10.8457 16 16.0003 16C17.4318 16 18.7879 16.3223 20.0003 16.8981" stroke="#C491FF" stroke-width="1.5" stroke-linecap="round" stroke-linejoin="round"/>
<path d="M22.1802 21.8866L23.5656 18.9493C23.7434 18.5722 24.2572 18.5722 24.435 18.9493L25.8204 21.8866L28.9184 22.3606C29.3159 22.4214 29.4743 22.9328 29.1866 23.2262L26.9452 25.511L27.4742 28.7389C27.5422 29.1534 27.1264 29.4694 26.7707 29.2737L24.0003 27.7489L21.2299 29.2737C20.8742 29.4694 20.4584 29.1534 20.5264 28.7389L21.0554 25.511L18.814 23.2262C18.5263 22.9328 18.6847 22.4214 19.0822 22.3606L22.1802 21.8866Z" fill="#C491FF"/>
</svg>
