<svg width="32" height="32" viewBox="0 0 32 32" fill="none" xmlns="http://www.w3.org/2000/svg">
<path d="M16.1666 7.63157L11.4234 11.4732C10.6345 12.1102 10.4826 13.2568 11.0804 14.0751C11.7125 14.9473 12.9424 15.1188 13.7901 14.4573L18.6558 10.6745C18.9988 10.4099 19.4888 10.4687 19.7583 10.8117C20.0278 11.1547 19.9641 11.6447 19.6211 11.9142L18.597 12.708L25.408 18.98V9.72877H25.3737L25.1826 9.60627L21.6252 7.32777C20.8755 6.84757 19.9984 6.59277 19.1066 6.59277C18.0384 6.59277 16.9996 6.96027 16.1666 7.63157ZM17.2838 13.7272L14.7505 15.697C13.207 16.9024 10.9677 16.5888 9.81131 15.0012C8.72351 13.5067 8.99791 11.4193 10.4336 10.258L14.5104 6.96027C13.942 6.72017 13.3295 6.59767 12.7072 6.59767C11.786 6.59277 10.8893 6.86717 10.12 7.37677L6.59201 9.72877V20.7048H7.97381L12.4524 24.7914C13.4128 25.6685 14.8975 25.5999 15.7746 24.6395C16.0441 24.3406 16.2254 23.9927 16.3185 23.6301L17.1515 24.3945C18.107 25.2716 19.5966 25.2079 20.4737 24.2524C20.6942 24.0123 20.8559 23.733 20.9588 23.4439C21.9094 24.0809 23.203 23.9486 24.0017 23.0764C24.8788 22.1209 24.8151 20.6313 23.8596 19.7542L17.2838 13.7272ZM1.10401 9.72877C0.672807 9.72877 0.320007 10.0816 0.320007 10.5128V20.7048C0.320007 21.5721 1.02071 22.2728 1.88801 22.2728H3.45601C4.32331 22.2728 5.02401 21.5721 5.02401 20.7048V9.72877H1.10401ZM2.67201 19.1368C3.27553 19.1368 3.65273 19.7901 3.35097 20.3128C3.21092 20.5553 2.9521 20.7048 2.67201 20.7048C2.06848 20.7048 1.69128 20.0514 1.99304 19.5288C2.13309 19.2862 2.39191 19.1368 2.67201 19.1368ZM26.976 9.72877V20.7048C26.976 21.5721 27.6767 22.2728 28.544 22.2728H30.112C30.9793 22.2728 31.68 21.5721 31.68 20.7048V10.5128C31.68 10.0816 31.3272 9.72877 30.896 9.72877H26.976ZM28.544 19.9208C28.544 19.3172 29.1973 18.94 29.72 19.2418C29.9626 19.3819 30.112 19.6407 30.112 19.9208C30.112 20.5243 29.4587 20.9015 28.936 20.5997C28.6934 20.4597 28.544 20.2009 28.544 19.9208Z" fill="#C491FF"/>
</svg>
