<svg width="32" height="32" viewBox="0 0 32 32" fill="none" xmlns="http://www.w3.org/2000/svg">
<path d="M23.6898 16.0703C22.3906 17.1359 21.117 18.1919 19.6834 19.3727C18.6178 17.8367 17.661 16.4575 16.541 14.8319C15.2578 17.0879 14.1314 19.0655 12.8866 21.2767C11.597 19.2735 10.4578 17.4943 9.31217 15.7183C8.18257 16.1887 7.19057 16.8095 6.00977 17.0271C5.33137 17.1519 4.60177 17.1519 3.83377 17.1359C4.53777 18.3263 5.39537 19.4271 6.35217 20.4671C9.08817 23.4335 12.3458 25.7279 15.8306 27.7119C15.9298 27.7663 16.1186 27.7567 16.2178 27.6927C16.9026 27.2959 17.5906 26.8991 18.2658 26.4639C21.2994 24.5407 24.1058 22.3583 26.4162 19.5871C27.0754 18.7935 27.6898 17.9711 28.2018 17.0975C25.9938 17.2607 24.8642 16.9727 23.6898 16.0703ZM27.869 6.41269C25.2706 3.75989 20.8098 3.5231 17.9234 5.87189C17.1458 6.51189 16.5154 7.26069 16.0098 8.17269C15.965 8.10869 15.9362 8.09269 15.9298 8.06389C14.1698 5.16789 11.5778 3.90389 8.24977 4.36469C5.59377 4.73269 3.68017 6.23989 2.58897 8.68469C1.75057 10.5727 1.87537 12.4927 2.54417 14.4063C2.68817 14.8127 2.85137 15.2095 3.03057 15.5903C6.04497 15.9167 7.84977 14.5791 9.70897 13.1999C10.7906 14.6335 11.7666 15.9071 12.8866 17.3887C14.1154 15.0783 15.2514 12.9663 16.5346 10.5567C17.8082 12.6783 18.925 14.5375 20.173 16.6143C21.437 15.5935 22.5826 14.6751 23.9714 13.5551C24.8482 15.3151 26.7074 15.7119 28.9986 15.5871C29.2514 15.0271 29.469 14.4511 29.6386 13.8463C30.4418 11.0335 29.9266 8.52469 27.869 6.41269Z" fill="#C491FF"/>
</svg>
