<svg width="32" height="32" viewBox="0 0 32 32" fill="none" xmlns="http://www.w3.org/2000/svg">
<path d="M9.33334 18.6665C7.12421 18.6665 5.33334 20.4573 5.33334 22.6665C5.33334 24.8757 7.12421 26.6665 9.33334 26.6665C9.80086 26.6665 10.2496 26.5862 10.6667 26.4389" stroke="#C491FF" stroke-width="2" stroke-linecap="round" stroke-linejoin="round"/>
<path d="M5.68522 20.806C3.89906 19.9441 2.66672 18.1159 2.66672 15.9999C2.66672 14.3843 3.38502 12.9365 4.5197 11.9585" stroke="#C491FF" stroke-width="2" stroke-linecap="round" stroke-linejoin="round"/>
<path d="M4.56071 11.8508C4.20653 11.3213 4 10.6847 4 9.99984C4 8.15889 5.49239 6.6665 7.33333 6.6665C8.08388 6.6665 8.77649 6.91456 9.33365 7.33317" stroke="#C491FF" stroke-width="2" stroke-linecap="round" stroke-linejoin="round"/>
<path d="M9.65026 7.42028C9.447 6.98937 9.33334 6.50788 9.33334 5.99984C9.33334 4.15889 10.8257 2.6665 12.6667 2.6665C14.5076 2.6665 16 4.15889 16 5.99984V26.6665" stroke="#C491FF" stroke-width="2" stroke-linecap="round" stroke-linejoin="round"/>
<path d="M10.6667 26.6665C10.6667 28.1393 11.8606 29.3332 13.3333 29.3332C14.8061 29.3332 16 28.1393 16 26.6665" stroke="#C491FF" stroke-width="2" stroke-linecap="round" stroke-linejoin="round"/>
<path d="M16 9.3335C16 11.5426 17.7908 13.3335 20 13.3335" stroke="#C491FF" stroke-width="2" stroke-linecap="round" stroke-linejoin="round"/>
<path d="M27.4803 11.9585C28.615 12.9365 29.3334 14.3843 29.3334 15.9999C29.3334 16.9373 29.0915 17.8183 28.6667 18.5837" stroke="#C491FF" stroke-width="2" stroke-linecap="round" stroke-linejoin="round"/>
<path d="M27.4393 11.8508C27.7934 11.3213 28 10.6847 28 9.99984C28 8.15889 26.5076 6.6665 24.6666 6.6665C23.9161 6.6665 23.2234 6.91456 22.6664 7.33317" stroke="#C491FF" stroke-width="2" stroke-linecap="round" stroke-linejoin="round"/>
<path d="M16 5.99984C16 4.15889 17.4924 2.6665 19.3333 2.6665C21.1743 2.6665 22.6667 4.15889 22.6667 5.99984C22.6667 6.50788 22.5531 6.98937 22.3497 7.42028" stroke="#C491FF" stroke-width="2" stroke-linecap="round" stroke-linejoin="round"/>
<path d="M18.6667 29.3332C17.1939 29.3332 16 28.1393 16 26.6665" stroke="#C491FF" stroke-width="2" stroke-linecap="round" stroke-linejoin="round"/>
<path d="M24.889 21.3335L22.6667 25.3335H28L25.7778 29.3335" stroke="#C491FF" stroke-width="2" stroke-linecap="round" stroke-linejoin="round"/>
</svg>
