<svg width="63" height="63" viewBox="0 0 63 63" fill="none" xmlns="http://www.w3.org/2000/svg">
<g clip-path="url(#clip0_242_103)">
<path d="M38.4471 34.3084L27.2236 40.1873L22.0381 35.0018L27.9171 23.7784C29.5935 20.578 32.7346 18.4048 36.3205 17.9644L43.9752 17.0244C44.6852 16.9372 45.2883 17.5402 45.201 18.2502L44.261 25.9049C43.8206 29.4908 41.6474 32.6319 38.4471 34.3084Z" stroke="white" stroke-width="2" stroke-linecap="round" stroke-linejoin="round"/>
<path d="M18.149 38.8906C15.5563 41.4833 16.8527 45.3724 16.8527 45.3724C16.8527 45.3724 20.7418 46.6688 23.3345 44.0761" stroke="white" stroke-width="2" stroke-linecap="round" stroke-linejoin="round"/>
<path d="M25.9272 27.2235C18.149 25.9272 15.5563 33.7053 15.5563 33.7053L22.0381 35.0017" stroke="white" stroke-width="2" stroke-linecap="round" stroke-linejoin="round"/>
<path d="M35.5608 36.8571C36.8571 44.6353 29.0789 47.228 29.0789 47.228L27.7826 40.7462" stroke="white" stroke-width="2" stroke-linecap="round" stroke-linejoin="round"/>
<path d="M32.409 29.8163C30.9771 28.3843 30.9771 26.0628 32.409 24.6308C33.841 23.1989 36.1625 23.1988 37.5945 24.6308C39.0265 26.0628 39.0264 28.3843 37.5945 29.8163C36.1625 31.2482 33.841 31.2482 32.409 29.8163Z" stroke="white" stroke-width="2" stroke-linecap="round" stroke-linejoin="round"/>
</g>
<defs>
<clipPath id="clip0_242_103">
<rect width="44" height="44" fill="white" transform="translate(31.1127) rotate(45)"/>
</clipPath>
</defs>
</svg>
