<svg width="468" height="364" viewBox="0 0 468 364" fill="none" xmlns="http://www.w3.org/2000/svg">
<path d="M234 0H292.5V52H234V0Z" fill="#9335FF"/>
<path d="M409.5 208V260H351V208H409.5Z" fill="#9335FF"/>
<path d="M292.5 52H351V104H292.5V52Z" fill="#9335FF"/>
<path d="M351 260V312H292.5L292.5 260H351Z" fill="#9335FF"/>
<path d="M351 104H409.5V156H351V104Z" fill="#9335FF"/>
<path d="M292.5 312V364H234L234 312H292.5Z" fill="#9335FF"/>
<path d="M409.5 156H468V208H409.5V156Z" fill="#9335FF"/>
<path d="M234 0H175.5V52H234V0Z" fill="white"/>
<path d="M58.5 208V260H117V208H58.5Z" fill="white"/>
<path d="M175.5 52H117V104H175.5V52Z" fill="white"/>
<path d="M117 260V312H175.5L175.5 260H117Z" fill="white"/>
<path d="M117 104H58.5V156H117V104Z" fill="white"/>
<path d="M175.5 312V364H234L234 312H175.5Z" fill="white"/>
<path d="M58.5 156H1.52588e-05V208H58.5V156Z" fill="white"/>
</svg>
