<svg width="243" height="227" viewBox="0 0 243 227" fill="none" xmlns="http://www.w3.org/2000/svg">
<path d="M202.5 91.5761L202.5 136.976L243 136.976L243 91.5761L202.5 91.5761Z" fill="#9335FF"/>
<path d="M2.16556e-06 45.4L1.62417e-06 90.8L40.5 90.8L40.5 45.4L2.16556e-06 45.4Z" fill="#9335FF"/>
<path d="M40.5 90.8L40.5 136.2L81 136.2L81 90.8L40.5 90.8Z" fill="#9335FF"/>
<path d="M202.5 45.4L202.5 2.41479e-06L243 2.89775e-06L243 45.4L202.5 45.4Z" fill="#9335FF"/>
<path d="M162 45.788L162 91.188L202.5 91.188L202.5 45.788L162 45.788Z" fill="#9335FF"/>
<path d="M121.5 136.976L162 136.976L162 91.5761L121.5 91.5761L121.5 136.976Z" fill="#0F141E"/>
<path d="M40.5 181.6L40.5 227L81 227L81 181.6L40.5 181.6Z" fill="#9335FF"/>
<path d="M81 181.6L121.5 181.6L121.5 136.976L121.5 136.2L81 136.2L81 181.6Z" fill="#9335FF"/>
</svg>
