<svg xmlns="http://www.w3.org/2000/svg" width="195" height="308" viewBox="0 0 195 308" fill="none">
    <path d="M47.3461 220H96.8462V264H47.3461V220Z" fill="#9335FF" />
    <path d="M96.8462 264H146.346V308H96.8462V264Z" fill="#9335FF" />
    <path d="M-3 0H46.5V44H-3V0Z" fill="#9335FF" />
    <path d="M46.5 44H96V88H46.5V44Z" fill="#9335FF" />
    <path d="M-3 220H-52.5V264H-3V220Z" fill="#9335FF" />
    <path d="M-52.5 264H-102V308H-52.5V264Z" fill="#9335FF" />
    <path d="M-2.57692 176H46.9231V220H-2.57692V176Z" fill="#9335FF" />
    <path d="M145.5 88V132H96V88L145.5 88Z" fill="white" />
    <path d="M145.5 44H195V88H145.5V44Z" fill="white" />
    <path d="M96.8462 132V176H47.3461V132H96.8462Z" fill="white" />
</svg>