<svg width="118" height="22" viewBox="0 0 118 22" fill="none" xmlns="http://www.w3.org/2000/svg">
<path d="M32.17 6.194H30.098V4.654H35.852V6.194H33.794V15H32.17V6.194ZM43.7633 12.634C43.6419 13.0073 43.4553 13.3527 43.2033 13.67C42.9606 13.978 42.6759 14.244 42.3493 14.468C42.0226 14.692 41.6633 14.8693 41.2713 15C40.8793 15.1213 40.4733 15.182 40.0533 15.182C39.4653 15.182 38.9193 15.0793 38.4153 14.874C37.9113 14.6687 37.4726 14.384 37.0993 14.02C36.7353 13.656 36.4459 13.2313 36.2313 12.746C36.0166 12.2513 35.9093 11.7193 35.9093 11.15C35.9093 10.5807 36.0119 10.0487 36.2173 9.554C36.4319 9.05933 36.7213 8.63 37.0853 8.266C37.4493 7.902 37.8739 7.61733 38.3593 7.412C38.8539 7.19733 39.3859 7.09 39.9553 7.09C40.5246 7.09 41.0519 7.19733 41.5373 7.412C42.0319 7.61733 42.4566 7.902 42.8113 8.266C43.1753 8.63 43.4599 9.064 43.6653 9.568C43.8706 10.0627 43.9733 10.5993 43.9733 11.178C43.9733 11.3087 43.9639 11.4207 43.9453 11.514C43.9359 11.598 43.9219 11.696 43.9033 11.808H37.5893C37.6826 12.3773 37.9486 12.8393 38.3873 13.194C38.8353 13.5487 39.3766 13.726 40.0113 13.726C40.8979 13.726 41.5746 13.362 42.0413 12.634H43.7633ZM42.3913 10.394C42.2513 9.806 41.9713 9.35333 41.5513 9.036C41.1313 8.70933 40.6039 8.546 39.9693 8.546C39.3533 8.546 38.8353 8.70933 38.4153 9.036C37.9953 9.35333 37.7106 9.806 37.5613 10.394H42.3913ZM44.6867 4.654H46.2687V15H44.6867V4.654ZM54.8765 12.634C54.7552 13.0073 54.5685 13.3527 54.3165 13.67C54.0739 13.978 53.7892 14.244 53.4625 14.468C53.1359 14.692 52.7765 14.8693 52.3845 15C51.9925 15.1213 51.5865 15.182 51.1665 15.182C50.5785 15.182 50.0325 15.0793 49.5285 14.874C49.0245 14.6687 48.5859 14.384 48.2125 14.02C47.8485 13.656 47.5592 13.2313 47.3445 12.746C47.1299 12.2513 47.0225 11.7193 47.0225 11.15C47.0225 10.5807 47.1252 10.0487 47.3305 9.554C47.5452 9.05933 47.8345 8.63 48.1985 8.266C48.5625 7.902 48.9872 7.61733 49.4725 7.412C49.9672 7.19733 50.4992 7.09 51.0685 7.09C51.6379 7.09 52.1652 7.19733 52.6505 7.412C53.1452 7.61733 53.5699 7.902 53.9245 8.266C54.2885 8.63 54.5732 9.064 54.7785 9.568C54.9839 10.0627 55.0865 10.5993 55.0865 11.178C55.0865 11.3087 55.0772 11.4207 55.0585 11.514C55.0492 11.598 55.0352 11.696 55.0165 11.808H48.7025C48.7959 12.3773 49.0619 12.8393 49.5005 13.194C49.9485 13.5487 50.4899 13.726 51.1245 13.726C52.0112 13.726 52.6879 13.362 53.1545 12.634H54.8765ZM53.5045 10.394C53.3645 9.806 53.0845 9.35333 52.6645 9.036C52.2445 8.70933 51.7172 8.546 51.0825 8.546C50.4665 8.546 49.9485 8.70933 49.5285 9.036C49.1085 9.35333 48.8239 9.806 48.6745 10.394H53.5045ZM57.382 15.504C57.69 15.924 58.012 16.218 58.348 16.386C58.684 16.5633 59.1086 16.652 59.622 16.652C60.3966 16.652 60.9846 16.4373 61.386 16.008C61.7966 15.588 62.002 14.9673 62.002 14.146V13.796C61.6566 14.2813 61.274 14.636 60.854 14.86C60.434 15.0747 59.9253 15.182 59.328 15.182C58.768 15.182 58.25 15.0793 57.774 14.874C57.3073 14.6687 56.9013 14.3887 56.556 14.034C56.22 13.67 55.954 13.2407 55.758 12.746C55.562 12.242 55.464 11.696 55.464 11.108C55.464 10.5293 55.562 9.99733 55.758 9.512C55.954 9.01733 56.22 8.59267 56.556 8.238C56.9013 7.88333 57.3073 7.60333 57.774 7.398C58.25 7.19267 58.7633 7.09 59.314 7.09C60.4713 7.09 61.3673 7.51933 62.002 8.378V7.272H63.528V13.558C63.528 16.5633 62.212 18.066 59.58 18.066C58.6186 18.066 57.7973 17.842 57.116 17.394C56.4346 16.9553 55.94 16.3253 55.632 15.504H57.382ZM59.496 13.726C59.86 13.726 60.1913 13.6653 60.49 13.544C60.7886 13.4133 61.0453 13.2313 61.26 12.998C61.484 12.7647 61.652 12.4893 61.764 12.172C61.8853 11.8547 61.946 11.5 61.946 11.108C61.946 10.7347 61.8853 10.394 61.764 10.086C61.6426 9.76867 61.47 9.498 61.246 9.274C61.022 9.04067 60.756 8.86333 60.448 8.742C60.14 8.61133 59.7993 8.546 59.426 8.546C59.0806 8.546 58.7633 8.61133 58.474 8.742C58.1846 8.86333 57.9326 9.04067 57.718 9.274C57.5126 9.50733 57.3493 9.78267 57.228 10.1C57.116 10.408 57.06 10.7533 57.06 11.136C57.06 11.5187 57.116 11.8687 57.228 12.186C57.3493 12.5033 57.5173 12.7787 57.732 13.012C57.9466 13.236 58.2033 13.4133 58.502 13.544C58.8006 13.6653 59.132 13.726 59.496 13.726ZM64.6242 7.272H66.1082V8.14C66.2295 7.944 66.3508 7.78067 66.4722 7.65C66.5935 7.51933 66.7288 7.41667 66.8782 7.342C67.0275 7.258 67.1955 7.19733 67.3822 7.16C67.5688 7.12267 67.7882 7.09933 68.0402 7.09V8.63C66.8175 8.67667 66.2062 9.344 66.2062 10.632V15H64.6242V7.272ZM68.2725 11.164C68.2725 10.576 68.3705 10.0347 68.5665 9.54C68.7719 9.036 69.0472 8.60667 69.3925 8.252C69.7472 7.888 70.1672 7.60333 70.6525 7.398C71.1472 7.19267 71.6792 7.09 72.2485 7.09C72.8459 7.09 73.3592 7.19733 73.7885 7.412C74.2179 7.61733 74.6005 7.95333 74.9365 8.42V7.272H76.4205V15H74.9365V13.88C74.5539 14.3467 74.1572 14.6827 73.7465 14.888C73.3359 15.084 72.8365 15.182 72.2485 15.182C71.6699 15.182 71.1379 15.084 70.6525 14.888C70.1672 14.6827 69.7472 14.4027 69.3925 14.048C69.0379 13.684 68.7625 13.2593 68.5665 12.774C68.3705 12.2793 68.2725 11.7427 68.2725 11.164ZM69.8685 11.178C69.8685 11.542 69.9292 11.8827 70.0505 12.2C70.1812 12.508 70.3585 12.7787 70.5825 13.012C70.8159 13.236 71.0865 13.4133 71.3945 13.544C71.7119 13.6653 72.0525 13.726 72.4165 13.726C72.7805 13.726 73.1119 13.6653 73.4105 13.544C73.7185 13.4133 73.9845 13.236 74.2085 13.012C74.4325 12.7787 74.6052 12.5033 74.7265 12.186C74.8479 11.8687 74.9085 11.5233 74.9085 11.15C74.9085 10.7673 74.8432 10.4173 74.7125 10.1C74.5912 9.78267 74.4139 9.512 74.1805 9.288C73.9565 9.05467 73.6859 8.87267 73.3685 8.742C73.0605 8.61133 72.7199 8.546 72.3465 8.546C71.9919 8.546 71.6605 8.616 71.3525 8.756C71.0539 8.88667 70.7925 9.06867 70.5685 9.302C70.3539 9.53533 70.1812 9.81533 70.0505 10.142C69.9292 10.4593 69.8685 10.8047 69.8685 11.178ZM77.5148 7.272H78.9988V8.056C79.2788 7.70133 79.5728 7.454 79.8808 7.314C80.1981 7.16467 80.5901 7.09 81.0568 7.09C81.6168 7.09 82.0788 7.19267 82.4428 7.398C82.8161 7.60333 83.1428 7.93467 83.4228 8.392C83.7401 7.944 84.0995 7.61733 84.5008 7.412C84.9021 7.19733 85.3875 7.09 85.9568 7.09C86.9741 7.09 87.7441 7.37933 88.2668 7.958C88.7988 8.53667 89.0648 9.38133 89.0648 10.492V15H87.4688V10.688C87.4688 9.26 86.9228 8.546 85.8308 8.546C84.6641 8.546 84.0808 9.35333 84.0808 10.968V15H82.4988V10.674C82.4988 9.25533 81.9341 8.546 80.8048 8.546C80.2168 8.546 79.7828 8.742 79.5028 9.134C79.2321 9.526 79.0968 10.1373 79.0968 10.968V15H77.5148V7.272ZM97.2043 4.654H98.6043L102.986 15H101.194L99.9623 12.06H95.9023L94.6283 15H92.8503L97.2043 4.654ZM99.3043 10.52L97.9043 6.852L96.4903 10.52H99.3043ZM103.064 11.136C103.064 10.5573 103.162 10.0207 103.358 9.526C103.563 9.022 103.843 8.588 104.198 8.224C104.552 7.85067 104.968 7.56133 105.444 7.356C105.929 7.14133 106.447 7.034 106.998 7.034C107.53 7.034 108.02 7.132 108.468 7.328C108.925 7.51467 109.308 7.78533 109.616 8.14V4.654H111.212V15H109.728V13.866C109.345 14.3233 108.944 14.6593 108.524 14.874C108.104 15.0793 107.609 15.182 107.04 15.182C106.48 15.182 105.957 15.0793 105.472 14.874C104.986 14.6687 104.562 14.384 104.198 14.02C103.843 13.656 103.563 13.2267 103.358 12.732C103.162 12.2373 103.064 11.7053 103.064 11.136ZM104.66 11.094C104.66 11.458 104.725 11.8033 104.856 12.13C104.996 12.4473 105.178 12.7273 105.402 12.97C105.635 13.2033 105.906 13.39 106.214 13.53C106.531 13.6607 106.872 13.726 107.236 13.726C107.581 13.726 107.903 13.6607 108.202 13.53C108.51 13.39 108.776 13.2033 109 12.97C109.224 12.7273 109.401 12.4473 109.532 12.13C109.662 11.8127 109.728 11.472 109.728 11.108C109.728 10.7347 109.662 10.3893 109.532 10.072C109.401 9.74533 109.219 9.46533 108.986 9.232C108.762 8.99867 108.491 8.81667 108.174 8.686C107.856 8.55533 107.511 8.49 107.138 8.49C106.792 8.49 106.466 8.56 106.158 8.7C105.859 8.83067 105.598 9.01267 105.374 9.246C105.15 9.47933 104.972 9.75467 104.842 10.072C104.72 10.3893 104.66 10.73 104.66 11.094ZM113.328 12.606C113.468 13.3527 113.855 13.726 114.49 13.726C114.779 13.726 115.017 13.6373 115.204 13.46C115.39 13.2827 115.484 13.054 115.484 12.774C115.484 12.606 115.446 12.466 115.372 12.354C115.297 12.2327 115.194 12.13 115.064 12.046C114.942 11.962 114.798 11.8873 114.63 11.822C114.462 11.7567 114.289 11.6913 114.112 11.626C113.346 11.3553 112.805 11.052 112.488 10.716C112.17 10.3707 112.012 9.92733 112.012 9.386C112.012 9.05933 112.072 8.756 112.194 8.476C112.315 8.196 112.483 7.95333 112.698 7.748C112.922 7.54267 113.183 7.384 113.482 7.272C113.78 7.15067 114.102 7.09 114.448 7.09C114.793 7.09 115.11 7.146 115.4 7.258C115.689 7.37 115.941 7.524 116.156 7.72C116.37 7.916 116.538 8.154 116.66 8.434C116.79 8.70467 116.86 9.00333 116.87 9.33H115.302C115.227 8.80733 114.942 8.546 114.448 8.546C114.205 8.546 114.004 8.62067 113.846 8.77C113.687 8.91933 113.608 9.10133 113.608 9.316C113.608 9.46533 113.65 9.596 113.734 9.708C113.827 9.82 113.944 9.918 114.084 10.002C114.224 10.086 114.378 10.1607 114.546 10.226C114.714 10.2913 114.882 10.352 115.05 10.408C115.768 10.6413 116.286 10.9307 116.604 11.276C116.921 11.6213 117.08 12.0693 117.08 12.62C117.08 12.984 117.01 13.3247 116.87 13.642C116.739 13.95 116.557 14.2207 116.324 14.454C116.09 14.678 115.81 14.8553 115.484 14.986C115.166 15.1167 114.821 15.182 114.448 15.182C113.654 15.182 113.015 14.958 112.53 14.51C112.054 14.0527 111.788 13.418 111.732 12.606H113.328Z" fill="white"/>
<g clip-path="url(#clip0_56_798)">
<path d="M11 22C17.0751 22 22 17.0751 22 11C22 4.92487 17.0751 0 11 0C4.92487 0 0 4.92487 0 11C0 17.0751 4.92487 22 11 22Z" fill="url(#paint0_linear_56_798)"/>
<path fill-rule="evenodd" clip-rule="evenodd" d="M4.97925 10.884C8.18597 9.48684 10.3243 8.56577 11.3942 8.12076C14.449 6.85015 15.0838 6.62944 15.4975 6.62215C15.5885 6.62055 15.792 6.6431 15.9238 6.75004C16.035 6.84034 16.0657 6.96232 16.0803 7.04793C16.095 7.13354 16.1132 7.32857 16.0987 7.48097C15.9332 9.22033 15.2169 13.4413 14.8525 15.3894C14.6983 16.2137 14.3947 16.4901 14.1007 16.5172C13.4619 16.5759 12.9769 16.095 12.3582 15.6894C11.39 15.0548 10.8431 14.6598 9.90332 14.0405C8.81728 13.3248 9.52132 12.9314 10.1402 12.2886C10.3022 12.1203 13.1168 9.56031 13.1712 9.32808C13.178 9.29903 13.1844 9.19077 13.12 9.1336C13.0557 9.07643 12.9608 9.09598 12.8923 9.11153C12.7952 9.13357 11.2486 10.1558 8.25243 12.1783C7.81343 12.4798 7.41579 12.6266 7.05952 12.6189C6.66677 12.6105 5.91126 12.3969 5.34962 12.2143C4.66074 11.9904 4.11324 11.872 4.16091 11.4917C4.18575 11.2936 4.45852 11.091 4.97925 10.884Z" fill="white"/>
</g>
<defs>
<linearGradient id="paint0_linear_56_798" x1="1100" y1="0" x2="1100" y2="2183.68" gradientUnits="userSpaceOnUse">
<stop stop-color="#2AABEE"/>
<stop offset="1" stop-color="#229ED9"/>
</linearGradient>
<clipPath id="clip0_56_798">
<rect width="22" height="22" fill="white"/>
</clipPath>
</defs>
</svg>
